<?xml version="1.0" encoding="utf-8" standalone="no"?>
<!DOCTYPE svg PUBLIC "-//W3C//DTD SVG 1.1//EN"
  "http://www.w3.org/Graphics/SVG/1.1/DTD/svg11.dtd">
<!-- Created with matplotlib (https://matplotlib.org/) -->
<svg height="483.435469pt" version="1.1" viewBox="0 0 685.460938 483.435469" width="685.460938pt" xmlns="http://www.w3.org/2000/svg" xmlns:xlink="http://www.w3.org/1999/xlink">
 <defs>
  <style type="text/css">
*{stroke-linecap:butt;stroke-linejoin:round;}
  </style>
 </defs>
 <g id="figure_1">
  <g id="patch_1">
   <path d="M 0 483.435469 
L 685.460938 483.435469 
L 685.460938 0 
L 0 0 
z
" style="fill:#ffffff;"/>
  </g>
  <g id="axes_1">
   <g id="patch_2">
    <path d="M 53.328125 445.879219 
L 667.128125 445.879219 
L 667.128125 10.999219 
L 53.328125 10.999219 
z
" style="fill:#ffffff;"/>
   </g>
   <g id="matplotlib.axis_1">
    <g id="xtick_1">
     <g id="line2d_1">
      <path clip-path="url(#p30bb6515d6)" d="M 53.328125 445.879219 
L 53.328125 10.999219 
" style="fill:none;stroke:#b0b0b0;stroke-linecap:square;stroke-width:0.25;"/>
     </g>
     <g id="line2d_2">
      <defs>
       <path d="M 0 0 
L 0 3.5 
" id="m9ea23c2d76" style="stroke:#000000;stroke-width:0.8;"/>
      </defs>
      <g>
       <use style="stroke:#000000;stroke-width:0.8;" x="53.328125" xlink:href="#m9ea23c2d76" y="445.879219"/>
      </g>
     </g>
     <g id="text_1">
      <!-- 4.5 -->
      <defs>
       <path d="M 37.796875 64.3125 
L 12.890625 25.390625 
L 37.796875 25.390625 
z
M 35.203125 72.90625 
L 47.609375 72.90625 
L 47.609375 25.390625 
L 58.015625 25.390625 
L 58.015625 17.1875 
L 47.609375 17.1875 
L 47.609375 0 
L 37.796875 0 
L 37.796875 17.1875 
L 4.890625 17.1875 
L 4.890625 26.703125 
z
" id="DejaVuSans-52"/>
       <path d="M 10.6875 12.40625 
L 21 12.40625 
L 21 0 
L 10.6875 0 
z
" id="DejaVuSans-46"/>
       <path d="M 10.796875 72.90625 
L 49.515625 72.90625 
L 49.515625 64.59375 
L 19.828125 64.59375 
L 19.828125 46.734375 
Q 21.96875 47.46875 24.109375 47.828125 
Q 26.265625 48.1875 28.421875 48.1875 
Q 40.625 48.1875 47.75 41.5 
Q 54.890625 34.8125 54.890625 23.390625 
Q 54.890625 11.625 47.5625 5.09375 
Q 40.234375 -1.421875 26.90625 -1.421875 
Q 22.3125 -1.421875 17.546875 -0.640625 
Q 12.796875 0.140625 7.71875 1.703125 
L 7.71875 11.625 
Q 12.109375 9.234375 16.796875 8.0625 
Q 21.484375 6.890625 26.703125 6.890625 
Q 35.15625 6.890625 40.078125 11.328125 
Q 45.015625 15.765625 45.015625 23.390625 
Q 45.015625 31 40.078125 35.4375 
Q 35.15625 39.890625 26.703125 39.890625 
Q 22.75 39.890625 18.8125 39.015625 
Q 14.890625 38.140625 10.796875 36.28125 
z
" id="DejaVuSans-53"/>
      </defs>
      <g transform="translate(45.376562 460.477656)scale(0.1 -0.1)">
       <use xlink:href="#DejaVuSans-52"/>
       <use x="63.623047" xlink:href="#DejaVuSans-46"/>
       <use x="95.410156" xlink:href="#DejaVuSans-53"/>
      </g>
     </g>
    </g>
    <g id="xtick_2">
     <g id="line2d_3">
      <path clip-path="url(#p30bb6515d6)" d="M 109.128125 445.879219 
L 109.128125 10.999219 
" style="fill:none;stroke:#b0b0b0;stroke-linecap:square;stroke-width:0.25;"/>
     </g>
     <g id="line2d_4">
      <g>
       <use style="stroke:#000000;stroke-width:0.8;" x="109.128125" xlink:href="#m9ea23c2d76" y="445.879219"/>
      </g>
     </g>
     <g id="text_2">
      <!-- 5.0 -->
      <defs>
       <path d="M 31.78125 66.40625 
Q 24.171875 66.40625 20.328125 58.90625 
Q 16.5 51.421875 16.5 36.375 
Q 16.5 21.390625 20.328125 13.890625 
Q 24.171875 6.390625 31.78125 6.390625 
Q 39.453125 6.390625 43.28125 13.890625 
Q 47.125 21.390625 47.125 36.375 
Q 47.125 51.421875 43.28125 58.90625 
Q 39.453125 66.40625 31.78125 66.40625 
z
M 31.78125 74.21875 
Q 44.046875 74.21875 50.515625 64.515625 
Q 56.984375 54.828125 56.984375 36.375 
Q 56.984375 17.96875 50.515625 8.265625 
Q 44.046875 -1.421875 31.78125 -1.421875 
Q 19.53125 -1.421875 13.0625 8.265625 
Q 6.59375 17.96875 6.59375 36.375 
Q 6.59375 54.828125 13.0625 64.515625 
Q 19.53125 74.21875 31.78125 74.21875 
z
" id="DejaVuSans-48"/>
      </defs>
      <g transform="translate(101.176562 460.477656)scale(0.1 -0.1)">
       <use xlink:href="#DejaVuSans-53"/>
       <use x="63.623047" xlink:href="#DejaVuSans-46"/>
       <use x="95.410156" xlink:href="#DejaVuSans-48"/>
      </g>
     </g>
    </g>
    <g id="xtick_3">
     <g id="line2d_5">
      <path clip-path="url(#p30bb6515d6)" d="M 164.928125 445.879219 
L 164.928125 10.999219 
" style="fill:none;stroke:#b0b0b0;stroke-linecap:square;stroke-width:0.25;"/>
     </g>
     <g id="line2d_6">
      <g>
       <use style="stroke:#000000;stroke-width:0.8;" x="164.928125" xlink:href="#m9ea23c2d76" y="445.879219"/>
      </g>
     </g>
     <g id="text_3">
      <!-- 5.5 -->
      <g transform="translate(156.976562 460.477656)scale(0.1 -0.1)">
       <use xlink:href="#DejaVuSans-53"/>
       <use x="63.623047" xlink:href="#DejaVuSans-46"/>
       <use x="95.410156" xlink:href="#DejaVuSans-53"/>
      </g>
     </g>
    </g>
    <g id="xtick_4">
     <g id="line2d_7">
      <path clip-path="url(#p30bb6515d6)" d="M 220.728125 445.879219 
L 220.728125 10.999219 
" style="fill:none;stroke:#b0b0b0;stroke-linecap:square;stroke-width:0.25;"/>
     </g>
     <g id="line2d_8">
      <g>
       <use style="stroke:#000000;stroke-width:0.8;" x="220.728125" xlink:href="#m9ea23c2d76" y="445.879219"/>
      </g>
     </g>
     <g id="text_4">
      <!-- 6.0 -->
      <defs>
       <path d="M 33.015625 40.375 
Q 26.375 40.375 22.484375 35.828125 
Q 18.609375 31.296875 18.609375 23.390625 
Q 18.609375 15.53125 22.484375 10.953125 
Q 26.375 6.390625 33.015625 6.390625 
Q 39.65625 6.390625 43.53125 10.953125 
Q 47.40625 15.53125 47.40625 23.390625 
Q 47.40625 31.296875 43.53125 35.828125 
Q 39.65625 40.375 33.015625 40.375 
z
M 52.59375 71.296875 
L 52.59375 62.3125 
Q 48.875 64.0625 45.09375 64.984375 
Q 41.3125 65.921875 37.59375 65.921875 
Q 27.828125 65.921875 22.671875 59.328125 
Q 17.53125 52.734375 16.796875 39.40625 
Q 19.671875 43.65625 24.015625 45.921875 
Q 28.375 48.1875 33.59375 48.1875 
Q 44.578125 48.1875 50.953125 41.515625 
Q 57.328125 34.859375 57.328125 23.390625 
Q 57.328125 12.15625 50.6875 5.359375 
Q 44.046875 -1.421875 33.015625 -1.421875 
Q 20.359375 -1.421875 13.671875 8.265625 
Q 6.984375 17.96875 6.984375 36.375 
Q 6.984375 53.65625 15.1875 63.9375 
Q 23.390625 74.21875 37.203125 74.21875 
Q 40.921875 74.21875 44.703125 73.484375 
Q 48.484375 72.75 52.59375 71.296875 
z
" id="DejaVuSans-54"/>
      </defs>
      <g transform="translate(212.776562 460.477656)scale(0.1 -0.1)">
       <use xlink:href="#DejaVuSans-54"/>
       <use x="63.623047" xlink:href="#DejaVuSans-46"/>
       <use x="95.410156" xlink:href="#DejaVuSans-48"/>
      </g>
     </g>
    </g>
    <g id="xtick_5">
     <g id="line2d_9">
      <path clip-path="url(#p30bb6515d6)" d="M 276.528125 445.879219 
L 276.528125 10.999219 
" style="fill:none;stroke:#b0b0b0;stroke-linecap:square;stroke-width:0.25;"/>
     </g>
     <g id="line2d_10">
      <g>
       <use style="stroke:#000000;stroke-width:0.8;" x="276.528125" xlink:href="#m9ea23c2d76" y="445.879219"/>
      </g>
     </g>
     <g id="text_5">
      <!-- 6.5 -->
      <g transform="translate(268.576562 460.477656)scale(0.1 -0.1)">
       <use xlink:href="#DejaVuSans-54"/>
       <use x="63.623047" xlink:href="#DejaVuSans-46"/>
       <use x="95.410156" xlink:href="#DejaVuSans-53"/>
      </g>
     </g>
    </g>
    <g id="xtick_6">
     <g id="line2d_11">
      <path clip-path="url(#p30bb6515d6)" d="M 332.328125 445.879219 
L 332.328125 10.999219 
" style="fill:none;stroke:#b0b0b0;stroke-linecap:square;stroke-width:0.25;"/>
     </g>
     <g id="line2d_12">
      <g>
       <use style="stroke:#000000;stroke-width:0.8;" x="332.328125" xlink:href="#m9ea23c2d76" y="445.879219"/>
      </g>
     </g>
     <g id="text_6">
      <!-- 7.0 -->
      <defs>
       <path d="M 8.203125 72.90625 
L 55.078125 72.90625 
L 55.078125 68.703125 
L 28.609375 0 
L 18.3125 0 
L 43.21875 64.59375 
L 8.203125 64.59375 
z
" id="DejaVuSans-55"/>
      </defs>
      <g transform="translate(324.376562 460.477656)scale(0.1 -0.1)">
       <use xlink:href="#DejaVuSans-55"/>
       <use x="63.623047" xlink:href="#DejaVuSans-46"/>
       <use x="95.410156" xlink:href="#DejaVuSans-48"/>
      </g>
     </g>
    </g>
    <g id="xtick_7">
     <g id="line2d_13">
      <path clip-path="url(#p30bb6515d6)" d="M 388.128125 445.879219 
L 388.128125 10.999219 
" style="fill:none;stroke:#b0b0b0;stroke-linecap:square;stroke-width:0.25;"/>
     </g>
     <g id="line2d_14">
      <g>
       <use style="stroke:#000000;stroke-width:0.8;" x="388.128125" xlink:href="#m9ea23c2d76" y="445.879219"/>
      </g>
     </g>
     <g id="text_7">
      <!-- 7.5 -->
      <g transform="translate(380.176562 460.477656)scale(0.1 -0.1)">
       <use xlink:href="#DejaVuSans-55"/>
       <use x="63.623047" xlink:href="#DejaVuSans-46"/>
       <use x="95.410156" xlink:href="#DejaVuSans-53"/>
      </g>
     </g>
    </g>
    <g id="xtick_8">
     <g id="line2d_15">
      <path clip-path="url(#p30bb6515d6)" d="M 443.928125 445.879219 
L 443.928125 10.999219 
" style="fill:none;stroke:#b0b0b0;stroke-linecap:square;stroke-width:0.25;"/>
     </g>
     <g id="line2d_16">
      <g>
       <use style="stroke:#000000;stroke-width:0.8;" x="443.928125" xlink:href="#m9ea23c2d76" y="445.879219"/>
      </g>
     </g>
     <g id="text_8">
      <!-- 8.0 -->
      <defs>
       <path d="M 31.78125 34.625 
Q 24.75 34.625 20.71875 30.859375 
Q 16.703125 27.09375 16.703125 20.515625 
Q 16.703125 13.921875 20.71875 10.15625 
Q 24.75 6.390625 31.78125 6.390625 
Q 38.8125 6.390625 42.859375 10.171875 
Q 46.921875 13.96875 46.921875 20.515625 
Q 46.921875 27.09375 42.890625 30.859375 
Q 38.875 34.625 31.78125 34.625 
z
M 21.921875 38.8125 
Q 15.578125 40.375 12.03125 44.71875 
Q 8.5 49.078125 8.5 55.328125 
Q 8.5 64.0625 14.71875 69.140625 
Q 20.953125 74.21875 31.78125 74.21875 
Q 42.671875 74.21875 48.875 69.140625 
Q 55.078125 64.0625 55.078125 55.328125 
Q 55.078125 49.078125 51.53125 44.71875 
Q 48 40.375 41.703125 38.8125 
Q 48.828125 37.15625 52.796875 32.3125 
Q 56.78125 27.484375 56.78125 20.515625 
Q 56.78125 9.90625 50.3125 4.234375 
Q 43.84375 -1.421875 31.78125 -1.421875 
Q 19.734375 -1.421875 13.25 4.234375 
Q 6.78125 9.90625 6.78125 20.515625 
Q 6.78125 27.484375 10.78125 32.3125 
Q 14.796875 37.15625 21.921875 38.8125 
z
M 18.3125 54.390625 
Q 18.3125 48.734375 21.84375 45.5625 
Q 25.390625 42.390625 31.78125 42.390625 
Q 38.140625 42.390625 41.71875 45.5625 
Q 45.3125 48.734375 45.3125 54.390625 
Q 45.3125 60.0625 41.71875 63.234375 
Q 38.140625 66.40625 31.78125 66.40625 
Q 25.390625 66.40625 21.84375 63.234375 
Q 18.3125 60.0625 18.3125 54.390625 
z
" id="DejaVuSans-56"/>
      </defs>
      <g transform="translate(435.976562 460.477656)scale(0.1 -0.1)">
       <use xlink:href="#DejaVuSans-56"/>
       <use x="63.623047" xlink:href="#DejaVuSans-46"/>
       <use x="95.410156" xlink:href="#DejaVuSans-48"/>
      </g>
     </g>
    </g>
    <g id="xtick_9">
     <g id="line2d_17">
      <path clip-path="url(#p30bb6515d6)" d="M 499.728125 445.879219 
L 499.728125 10.999219 
" style="fill:none;stroke:#b0b0b0;stroke-linecap:square;stroke-width:0.25;"/>
     </g>
     <g id="line2d_18">
      <g>
       <use style="stroke:#000000;stroke-width:0.8;" x="499.728125" xlink:href="#m9ea23c2d76" y="445.879219"/>
      </g>
     </g>
     <g id="text_9">
      <!-- 8.5 -->
      <g transform="translate(491.776562 460.477656)scale(0.1 -0.1)">
       <use xlink:href="#DejaVuSans-56"/>
       <use x="63.623047" xlink:href="#DejaVuSans-46"/>
       <use x="95.410156" xlink:href="#DejaVuSans-53"/>
      </g>
     </g>
    </g>
    <g id="xtick_10">
     <g id="line2d_19">
      <path clip-path="url(#p30bb6515d6)" d="M 555.528125 445.879219 
L 555.528125 10.999219 
" style="fill:none;stroke:#b0b0b0;stroke-linecap:square;stroke-width:0.25;"/>
     </g>
     <g id="line2d_20">
      <g>
       <use style="stroke:#000000;stroke-width:0.8;" x="555.528125" xlink:href="#m9ea23c2d76" y="445.879219"/>
      </g>
     </g>
     <g id="text_10">
      <!-- 9.0 -->
      <defs>
       <path d="M 10.984375 1.515625 
L 10.984375 10.5 
Q 14.703125 8.734375 18.5 7.8125 
Q 22.3125 6.890625 25.984375 6.890625 
Q 35.75 6.890625 40.890625 13.453125 
Q 46.046875 20.015625 46.78125 33.40625 
Q 43.953125 29.203125 39.59375 26.953125 
Q 35.25 24.703125 29.984375 24.703125 
Q 19.046875 24.703125 12.671875 31.3125 
Q 6.296875 37.9375 6.296875 49.421875 
Q 6.296875 60.640625 12.9375 67.421875 
Q 19.578125 74.21875 30.609375 74.21875 
Q 43.265625 74.21875 49.921875 64.515625 
Q 56.59375 54.828125 56.59375 36.375 
Q 56.59375 19.140625 48.40625 8.859375 
Q 40.234375 -1.421875 26.421875 -1.421875 
Q 22.703125 -1.421875 18.890625 -0.6875 
Q 15.09375 0.046875 10.984375 1.515625 
z
M 30.609375 32.421875 
Q 37.25 32.421875 41.125 36.953125 
Q 45.015625 41.5 45.015625 49.421875 
Q 45.015625 57.28125 41.125 61.84375 
Q 37.25 66.40625 30.609375 66.40625 
Q 23.96875 66.40625 20.09375 61.84375 
Q 16.21875 57.28125 16.21875 49.421875 
Q 16.21875 41.5 20.09375 36.953125 
Q 23.96875 32.421875 30.609375 32.421875 
z
" id="DejaVuSans-57"/>
      </defs>
      <g transform="translate(547.576563 460.477656)scale(0.1 -0.1)">
       <use xlink:href="#DejaVuSans-57"/>
       <use x="63.623047" xlink:href="#DejaVuSans-46"/>
       <use x="95.410156" xlink:href="#DejaVuSans-48"/>
      </g>
     </g>
    </g>
    <g id="xtick_11">
     <g id="line2d_21">
      <path clip-path="url(#p30bb6515d6)" d="M 611.328125 445.879219 
L 611.328125 10.999219 
" style="fill:none;stroke:#b0b0b0;stroke-linecap:square;stroke-width:0.25;"/>
     </g>
     <g id="line2d_22">
      <g>
       <use style="stroke:#000000;stroke-width:0.8;" x="611.328125" xlink:href="#m9ea23c2d76" y="445.879219"/>
      </g>
     </g>
     <g id="text_11">
      <!-- 9.5 -->
      <g transform="translate(603.376562 460.477656)scale(0.1 -0.1)">
       <use xlink:href="#DejaVuSans-57"/>
       <use x="63.623047" xlink:href="#DejaVuSans-46"/>
       <use x="95.410156" xlink:href="#DejaVuSans-53"/>
      </g>
     </g>
    </g>
    <g id="xtick_12">
     <g id="line2d_23">
      <path clip-path="url(#p30bb6515d6)" d="M 667.128125 445.879219 
L 667.128125 10.999219 
" style="fill:none;stroke:#b0b0b0;stroke-linecap:square;stroke-width:0.25;"/>
     </g>
     <g id="line2d_24">
      <g>
       <use style="stroke:#000000;stroke-width:0.8;" x="667.128125" xlink:href="#m9ea23c2d76" y="445.879219"/>
      </g>
     </g>
     <g id="text_12">
      <!-- 10.0 -->
      <defs>
       <path d="M 12.40625 8.296875 
L 28.515625 8.296875 
L 28.515625 63.921875 
L 10.984375 60.40625 
L 10.984375 69.390625 
L 28.421875 72.90625 
L 38.28125 72.90625 
L 38.28125 8.296875 
L 54.390625 8.296875 
L 54.390625 0 
L 12.40625 0 
z
" id="DejaVuSans-49"/>
      </defs>
      <g transform="translate(655.995312 460.477656)scale(0.1 -0.1)">
       <use xlink:href="#DejaVuSans-49"/>
       <use x="63.623047" xlink:href="#DejaVuSans-48"/>
       <use x="127.246094" xlink:href="#DejaVuSans-46"/>
       <use x="159.033203" xlink:href="#DejaVuSans-48"/>
      </g>
     </g>
    </g>
    <g id="text_13">
     <!-- Entropy [kJ/kgK] -->
     <defs>
      <path d="M 9.8125 72.90625 
L 55.90625 72.90625 
L 55.90625 64.59375 
L 19.671875 64.59375 
L 19.671875 43.015625 
L 54.390625 43.015625 
L 54.390625 34.71875 
L 19.671875 34.71875 
L 19.671875 8.296875 
L 56.78125 8.296875 
L 56.78125 0 
L 9.8125 0 
z
" id="DejaVuSans-69"/>
      <path d="M 54.890625 33.015625 
L 54.890625 0 
L 45.90625 0 
L 45.90625 32.71875 
Q 45.90625 40.484375 42.875 44.328125 
Q 39.84375 48.1875 33.796875 48.1875 
Q 26.515625 48.1875 22.3125 43.546875 
Q 18.109375 38.921875 18.109375 30.90625 
L 18.109375 0 
L 9.078125 0 
L 9.078125 54.6875 
L 18.109375 54.6875 
L 18.109375 46.1875 
Q 21.34375 51.125 25.703125 53.5625 
Q 30.078125 56 35.796875 56 
Q 45.21875 56 50.046875 50.171875 
Q 54.890625 44.34375 54.890625 33.015625 
z
" id="DejaVuSans-110"/>
      <path d="M 18.3125 70.21875 
L 18.3125 54.6875 
L 36.8125 54.6875 
L 36.8125 47.703125 
L 18.3125 47.703125 
L 18.3125 18.015625 
Q 18.3125 11.328125 20.140625 9.421875 
Q 21.96875 7.515625 27.59375 7.515625 
L 36.8125 7.515625 
L 36.8125 0 
L 27.59375 0 
Q 17.1875 0 13.234375 3.875 
Q 9.28125 7.765625 9.28125 18.015625 
L 9.28125 47.703125 
L 2.6875 47.703125 
L 2.6875 54.6875 
L 9.28125 54.6875 
L 9.28125 70.21875 
z
" id="DejaVuSans-116"/>
      <path d="M 41.109375 46.296875 
Q 39.59375 47.171875 37.8125 47.578125 
Q 36.03125 48 33.890625 48 
Q 26.265625 48 22.1875 43.046875 
Q 18.109375 38.09375 18.109375 28.8125 
L 18.109375 0 
L 9.078125 0 
L 9.078125 54.6875 
L 18.109375 54.6875 
L 18.109375 46.1875 
Q 20.953125 51.171875 25.484375 53.578125 
Q 30.03125 56 36.53125 56 
Q 37.453125 56 38.578125 55.875 
Q 39.703125 55.765625 41.0625 55.515625 
z
" id="DejaVuSans-114"/>
      <path d="M 30.609375 48.390625 
Q 23.390625 48.390625 19.1875 42.75 
Q 14.984375 37.109375 14.984375 27.296875 
Q 14.984375 17.484375 19.15625 11.84375 
Q 23.34375 6.203125 30.609375 6.203125 
Q 37.796875 6.203125 41.984375 11.859375 
Q 46.1875 17.53125 46.1875 27.296875 
Q 46.1875 37.015625 41.984375 42.703125 
Q 37.796875 48.390625 30.609375 48.390625 
z
M 30.609375 56 
Q 42.328125 56 49.015625 48.375 
Q 55.71875 40.765625 55.71875 27.296875 
Q 55.71875 13.875 49.015625 6.21875 
Q 42.328125 -1.421875 30.609375 -1.421875 
Q 18.84375 -1.421875 12.171875 6.21875 
Q 5.515625 13.875 5.515625 27.296875 
Q 5.515625 40.765625 12.171875 48.375 
Q 18.84375 56 30.609375 56 
z
" id="DejaVuSans-111"/>
      <path d="M 18.109375 8.203125 
L 18.109375 -20.796875 
L 9.078125 -20.796875 
L 9.078125 54.6875 
L 18.109375 54.6875 
L 18.109375 46.390625 
Q 20.953125 51.265625 25.265625 53.625 
Q 29.59375 56 35.59375 56 
Q 45.5625 56 51.78125 48.09375 
Q 58.015625 40.1875 58.015625 27.296875 
Q 58.015625 14.40625 51.78125 6.484375 
Q 45.5625 -1.421875 35.59375 -1.421875 
Q 29.59375 -1.421875 25.265625 0.953125 
Q 20.953125 3.328125 18.109375 8.203125 
z
M 48.6875 27.296875 
Q 48.6875 37.203125 44.609375 42.84375 
Q 40.53125 48.484375 33.40625 48.484375 
Q 26.265625 48.484375 22.1875 42.84375 
Q 18.109375 37.203125 18.109375 27.296875 
Q 18.109375 17.390625 22.1875 11.75 
Q 26.265625 6.109375 33.40625 6.109375 
Q 40.53125 6.109375 44.609375 11.75 
Q 48.6875 17.390625 48.6875 27.296875 
z
" id="DejaVuSans-112"/>
      <path d="M 32.171875 -5.078125 
Q 28.375 -14.84375 24.75 -17.8125 
Q 21.140625 -20.796875 15.09375 -20.796875 
L 7.90625 -20.796875 
L 7.90625 -13.28125 
L 13.1875 -13.28125 
Q 16.890625 -13.28125 18.9375 -11.515625 
Q 21 -9.765625 23.484375 -3.21875 
L 25.09375 0.875 
L 2.984375 54.6875 
L 12.5 54.6875 
L 29.59375 11.921875 
L 46.6875 54.6875 
L 56.203125 54.6875 
z
" id="DejaVuSans-121"/>
      <path id="DejaVuSans-32"/>
      <path d="M 8.59375 75.984375 
L 29.296875 75.984375 
L 29.296875 69 
L 17.578125 69 
L 17.578125 -6.203125 
L 29.296875 -6.203125 
L 29.296875 -13.1875 
L 8.59375 -13.1875 
z
" id="DejaVuSans-91"/>
      <path d="M 9.078125 75.984375 
L 18.109375 75.984375 
L 18.109375 31.109375 
L 44.921875 54.6875 
L 56.390625 54.6875 
L 27.390625 29.109375 
L 57.625 0 
L 45.90625 0 
L 18.109375 26.703125 
L 18.109375 0 
L 9.078125 0 
z
" id="DejaVuSans-107"/>
      <path d="M 9.8125 72.90625 
L 19.671875 72.90625 
L 19.671875 5.078125 
Q 19.671875 -8.109375 14.671875 -14.0625 
Q 9.671875 -20.015625 -1.421875 -20.015625 
L -5.171875 -20.015625 
L -5.171875 -11.71875 
L -2.09375 -11.71875 
Q 4.4375 -11.71875 7.125 -8.046875 
Q 9.8125 -4.390625 9.8125 5.078125 
z
" id="DejaVuSans-74"/>
      <path d="M 25.390625 72.90625 
L 33.6875 72.90625 
L 8.296875 -9.28125 
L 0 -9.28125 
z
" id="DejaVuSans-47"/>
      <path d="M 45.40625 27.984375 
Q 45.40625 37.75 41.375 43.109375 
Q 37.359375 48.484375 30.078125 48.484375 
Q 22.859375 48.484375 18.828125 43.109375 
Q 14.796875 37.75 14.796875 27.984375 
Q 14.796875 18.265625 18.828125 12.890625 
Q 22.859375 7.515625 30.078125 7.515625 
Q 37.359375 7.515625 41.375 12.890625 
Q 45.40625 18.265625 45.40625 27.984375 
z
M 54.390625 6.78125 
Q 54.390625 -7.171875 48.1875 -13.984375 
Q 42 -20.796875 29.203125 -20.796875 
Q 24.46875 -20.796875 20.265625 -20.09375 
Q 16.0625 -19.390625 12.109375 -17.921875 
L 12.109375 -9.1875 
Q 16.0625 -11.328125 19.921875 -12.34375 
Q 23.78125 -13.375 27.78125 -13.375 
Q 36.625 -13.375 41.015625 -8.765625 
Q 45.40625 -4.15625 45.40625 5.171875 
L 45.40625 9.625 
Q 42.625 4.78125 38.28125 2.390625 
Q 33.9375 0 27.875 0 
Q 17.828125 0 11.671875 7.65625 
Q 5.515625 15.328125 5.515625 27.984375 
Q 5.515625 40.671875 11.671875 48.328125 
Q 17.828125 56 27.875 56 
Q 33.9375 56 38.28125 53.609375 
Q 42.625 51.21875 45.40625 46.390625 
L 45.40625 54.6875 
L 54.390625 54.6875 
z
" id="DejaVuSans-103"/>
      <path d="M 9.8125 72.90625 
L 19.671875 72.90625 
L 19.671875 42.09375 
L 52.390625 72.90625 
L 65.09375 72.90625 
L 28.90625 38.921875 
L 67.671875 0 
L 54.6875 0 
L 19.671875 35.109375 
L 19.671875 0 
L 9.8125 0 
z
" id="DejaVuSans-75"/>
      <path d="M 30.421875 75.984375 
L 30.421875 -13.1875 
L 9.71875 -13.1875 
L 9.71875 -6.203125 
L 21.390625 -6.203125 
L 21.390625 69 
L 9.71875 69 
L 9.71875 75.984375 
z
" id="DejaVuSans-93"/>
     </defs>
     <g transform="translate(319.910156 474.155781)scale(0.1 -0.1)">
      <use xlink:href="#DejaVuSans-69"/>
      <use x="63.183594" xlink:href="#DejaVuSans-110"/>
      <use x="126.5625" xlink:href="#DejaVuSans-116"/>
      <use x="165.771484" xlink:href="#DejaVuSans-114"/>
      <use x="204.634766" xlink:href="#DejaVuSans-111"/>
      <use x="265.816406" xlink:href="#DejaVuSans-112"/>
      <use x="329.292969" xlink:href="#DejaVuSans-121"/>
      <use x="388.472656" xlink:href="#DejaVuSans-32"/>
      <use x="420.259766" xlink:href="#DejaVuSans-91"/>
      <use x="459.273438" xlink:href="#DejaVuSans-107"/>
      <use x="517.183594" xlink:href="#DejaVuSans-74"/>
      <use x="546.675781" xlink:href="#DejaVuSans-47"/>
      <use x="580.367188" xlink:href="#DejaVuSans-107"/>
      <use x="638.277344" xlink:href="#DejaVuSans-103"/>
      <use x="701.753906" xlink:href="#DejaVuSans-75"/>
      <use x="767.330078" xlink:href="#DejaVuSans-93"/>
     </g>
    </g>
   </g>
   <g id="matplotlib.axis_2">
    <g id="ytick_1">
     <g id="line2d_25">
      <path clip-path="url(#p30bb6515d6)" d="M 53.328125 445.879219 
L 667.128125 445.879219 
" style="fill:none;stroke:#b0b0b0;stroke-linecap:square;stroke-width:0.25;"/>
     </g>
     <g id="line2d_26">
      <defs>
       <path d="M 0 0 
L -3.5 0 
" id="m89ccf84780" style="stroke:#000000;stroke-width:0.8;"/>
      </defs>
      <g>
       <use style="stroke:#000000;stroke-width:0.8;" x="53.328125" xlink:href="#m89ccf84780" y="445.879219"/>
      </g>
     </g>
     <g id="text_14">
      <!-- 2200 -->
      <defs>
       <path d="M 19.1875 8.296875 
L 53.609375 8.296875 
L 53.609375 0 
L 7.328125 0 
L 7.328125 8.296875 
Q 12.9375 14.109375 22.625 23.890625 
Q 32.328125 33.6875 34.8125 36.53125 
Q 39.546875 41.84375 41.421875 45.53125 
Q 43.3125 49.21875 43.3125 52.78125 
Q 43.3125 58.59375 39.234375 62.25 
Q 35.15625 65.921875 28.609375 65.921875 
Q 23.96875 65.921875 18.8125 64.3125 
Q 13.671875 62.703125 7.8125 59.421875 
L 7.8125 69.390625 
Q 13.765625 71.78125 18.9375 73 
Q 24.125 74.21875 28.421875 74.21875 
Q 39.75 74.21875 46.484375 68.546875 
Q 53.21875 62.890625 53.21875 53.421875 
Q 53.21875 48.921875 51.53125 44.890625 
Q 49.859375 40.875 45.40625 35.40625 
Q 44.1875 33.984375 37.640625 27.21875 
Q 31.109375 20.453125 19.1875 8.296875 
z
" id="DejaVuSans-50"/>
      </defs>
      <g transform="translate(20.878125 449.678437)scale(0.1 -0.1)">
       <use xlink:href="#DejaVuSans-50"/>
       <use x="63.623047" xlink:href="#DejaVuSans-50"/>
       <use x="127.246094" xlink:href="#DejaVuSans-48"/>
       <use x="190.869141" xlink:href="#DejaVuSans-48"/>
      </g>
     </g>
    </g>
    <g id="ytick_2">
     <g id="line2d_27">
      <path clip-path="url(#p30bb6515d6)" d="M 53.328125 416.887219 
L 667.128125 416.887219 
" style="fill:none;stroke:#b0b0b0;stroke-linecap:square;stroke-width:0.25;"/>
     </g>
     <g id="line2d_28">
      <g>
       <use style="stroke:#000000;stroke-width:0.8;" x="53.328125" xlink:href="#m89ccf84780" y="416.887219"/>
      </g>
     </g>
     <g id="text_15">
      <!-- 2300 -->
      <defs>
       <path d="M 40.578125 39.3125 
Q 47.65625 37.796875 51.625 33 
Q 55.609375 28.21875 55.609375 21.1875 
Q 55.609375 10.40625 48.1875 4.484375 
Q 40.765625 -1.421875 27.09375 -1.421875 
Q 22.515625 -1.421875 17.65625 -0.515625 
Q 12.796875 0.390625 7.625 2.203125 
L 7.625 11.71875 
Q 11.71875 9.328125 16.59375 8.109375 
Q 21.484375 6.890625 26.8125 6.890625 
Q 36.078125 6.890625 40.9375 10.546875 
Q 45.796875 14.203125 45.796875 21.1875 
Q 45.796875 27.640625 41.28125 31.265625 
Q 36.765625 34.90625 28.71875 34.90625 
L 20.21875 34.90625 
L 20.21875 43.015625 
L 29.109375 43.015625 
Q 36.375 43.015625 40.234375 45.921875 
Q 44.09375 48.828125 44.09375 54.296875 
Q 44.09375 59.90625 40.109375 62.90625 
Q 36.140625 65.921875 28.71875 65.921875 
Q 24.65625 65.921875 20.015625 65.03125 
Q 15.375 64.15625 9.8125 62.3125 
L 9.8125 71.09375 
Q 15.4375 72.65625 20.34375 73.4375 
Q 25.25 74.21875 29.59375 74.21875 
Q 40.828125 74.21875 47.359375 69.109375 
Q 53.90625 64.015625 53.90625 55.328125 
Q 53.90625 49.265625 50.4375 45.09375 
Q 46.96875 40.921875 40.578125 39.3125 
z
" id="DejaVuSans-51"/>
      </defs>
      <g transform="translate(20.878125 420.686437)scale(0.1 -0.1)">
       <use xlink:href="#DejaVuSans-50"/>
       <use x="63.623047" xlink:href="#DejaVuSans-51"/>
       <use x="127.246094" xlink:href="#DejaVuSans-48"/>
       <use x="190.869141" xlink:href="#DejaVuSans-48"/>
      </g>
     </g>
    </g>
    <g id="ytick_3">
     <g id="line2d_29">
      <path clip-path="url(#p30bb6515d6)" d="M 53.328125 387.895219 
L 667.128125 387.895219 
" style="fill:none;stroke:#b0b0b0;stroke-linecap:square;stroke-width:0.25;"/>
     </g>
     <g id="line2d_30">
      <g>
       <use style="stroke:#000000;stroke-width:0.8;" x="53.328125" xlink:href="#m89ccf84780" y="387.895219"/>
      </g>
     </g>
     <g id="text_16">
      <!-- 2400 -->
      <g transform="translate(20.878125 391.694437)scale(0.1 -0.1)">
       <use xlink:href="#DejaVuSans-50"/>
       <use x="63.623047" xlink:href="#DejaVuSans-52"/>
       <use x="127.246094" xlink:href="#DejaVuSans-48"/>
       <use x="190.869141" xlink:href="#DejaVuSans-48"/>
      </g>
     </g>
    </g>
    <g id="ytick_4">
     <g id="line2d_31">
      <path clip-path="url(#p30bb6515d6)" d="M 53.328125 358.903219 
L 667.128125 358.903219 
" style="fill:none;stroke:#b0b0b0;stroke-linecap:square;stroke-width:0.25;"/>
     </g>
     <g id="line2d_32">
      <g>
       <use style="stroke:#000000;stroke-width:0.8;" x="53.328125" xlink:href="#m89ccf84780" y="358.903219"/>
      </g>
     </g>
     <g id="text_17">
      <!-- 2500 -->
      <g transform="translate(20.878125 362.702437)scale(0.1 -0.1)">
       <use xlink:href="#DejaVuSans-50"/>
       <use x="63.623047" xlink:href="#DejaVuSans-53"/>
       <use x="127.246094" xlink:href="#DejaVuSans-48"/>
       <use x="190.869141" xlink:href="#DejaVuSans-48"/>
      </g>
     </g>
    </g>
    <g id="ytick_5">
     <g id="line2d_33">
      <path clip-path="url(#p30bb6515d6)" d="M 53.328125 329.911219 
L 667.128125 329.911219 
" style="fill:none;stroke:#b0b0b0;stroke-linecap:square;stroke-width:0.25;"/>
     </g>
     <g id="line2d_34">
      <g>
       <use style="stroke:#000000;stroke-width:0.8;" x="53.328125" xlink:href="#m89ccf84780" y="329.911219"/>
      </g>
     </g>
     <g id="text_18">
      <!-- 2600 -->
      <g transform="translate(20.878125 333.710437)scale(0.1 -0.1)">
       <use xlink:href="#DejaVuSans-50"/>
       <use x="63.623047" xlink:href="#DejaVuSans-54"/>
       <use x="127.246094" xlink:href="#DejaVuSans-48"/>
       <use x="190.869141" xlink:href="#DejaVuSans-48"/>
      </g>
     </g>
    </g>
    <g id="ytick_6">
     <g id="line2d_35">
      <path clip-path="url(#p30bb6515d6)" d="M 53.328125 300.919219 
L 667.128125 300.919219 
" style="fill:none;stroke:#b0b0b0;stroke-linecap:square;stroke-width:0.25;"/>
     </g>
     <g id="line2d_36">
      <g>
       <use style="stroke:#000000;stroke-width:0.8;" x="53.328125" xlink:href="#m89ccf84780" y="300.919219"/>
      </g>
     </g>
     <g id="text_19">
      <!-- 2700 -->
      <g transform="translate(20.878125 304.718437)scale(0.1 -0.1)">
       <use xlink:href="#DejaVuSans-50"/>
       <use x="63.623047" xlink:href="#DejaVuSans-55"/>
       <use x="127.246094" xlink:href="#DejaVuSans-48"/>
       <use x="190.869141" xlink:href="#DejaVuSans-48"/>
      </g>
     </g>
    </g>
    <g id="ytick_7">
     <g id="line2d_37">
      <path clip-path="url(#p30bb6515d6)" d="M 53.328125 271.927219 
L 667.128125 271.927219 
" style="fill:none;stroke:#b0b0b0;stroke-linecap:square;stroke-width:0.25;"/>
     </g>
     <g id="line2d_38">
      <g>
       <use style="stroke:#000000;stroke-width:0.8;" x="53.328125" xlink:href="#m89ccf84780" y="271.927219"/>
      </g>
     </g>
     <g id="text_20">
      <!-- 2800 -->
      <g transform="translate(20.878125 275.726437)scale(0.1 -0.1)">
       <use xlink:href="#DejaVuSans-50"/>
       <use x="63.623047" xlink:href="#DejaVuSans-56"/>
       <use x="127.246094" xlink:href="#DejaVuSans-48"/>
       <use x="190.869141" xlink:href="#DejaVuSans-48"/>
      </g>
     </g>
    </g>
    <g id="ytick_8">
     <g id="line2d_39">
      <path clip-path="url(#p30bb6515d6)" d="M 53.328125 242.935219 
L 667.128125 242.935219 
" style="fill:none;stroke:#b0b0b0;stroke-linecap:square;stroke-width:0.25;"/>
     </g>
     <g id="line2d_40">
      <g>
       <use style="stroke:#000000;stroke-width:0.8;" x="53.328125" xlink:href="#m89ccf84780" y="242.935219"/>
      </g>
     </g>
     <g id="text_21">
      <!-- 2900 -->
      <g transform="translate(20.878125 246.734437)scale(0.1 -0.1)">
       <use xlink:href="#DejaVuSans-50"/>
       <use x="63.623047" xlink:href="#DejaVuSans-57"/>
       <use x="127.246094" xlink:href="#DejaVuSans-48"/>
       <use x="190.869141" xlink:href="#DejaVuSans-48"/>
      </g>
     </g>
    </g>
    <g id="ytick_9">
     <g id="line2d_41">
      <path clip-path="url(#p30bb6515d6)" d="M 53.328125 213.943219 
L 667.128125 213.943219 
" style="fill:none;stroke:#b0b0b0;stroke-linecap:square;stroke-width:0.25;"/>
     </g>
     <g id="line2d_42">
      <g>
       <use style="stroke:#000000;stroke-width:0.8;" x="53.328125" xlink:href="#m89ccf84780" y="213.943219"/>
      </g>
     </g>
     <g id="text_22">
      <!-- 3000 -->
      <g transform="translate(20.878125 217.742437)scale(0.1 -0.1)">
       <use xlink:href="#DejaVuSans-51"/>
       <use x="63.623047" xlink:href="#DejaVuSans-48"/>
       <use x="127.246094" xlink:href="#DejaVuSans-48"/>
       <use x="190.869141" xlink:href="#DejaVuSans-48"/>
      </g>
     </g>
    </g>
    <g id="ytick_10">
     <g id="line2d_43">
      <path clip-path="url(#p30bb6515d6)" d="M 53.328125 184.951219 
L 667.128125 184.951219 
" style="fill:none;stroke:#b0b0b0;stroke-linecap:square;stroke-width:0.25;"/>
     </g>
     <g id="line2d_44">
      <g>
       <use style="stroke:#000000;stroke-width:0.8;" x="53.328125" xlink:href="#m89ccf84780" y="184.951219"/>
      </g>
     </g>
     <g id="text_23">
      <!-- 3100 -->
      <g transform="translate(20.878125 188.750437)scale(0.1 -0.1)">
       <use xlink:href="#DejaVuSans-51"/>
       <use x="63.623047" xlink:href="#DejaVuSans-49"/>
       <use x="127.246094" xlink:href="#DejaVuSans-48"/>
       <use x="190.869141" xlink:href="#DejaVuSans-48"/>
      </g>
     </g>
    </g>
    <g id="ytick_11">
     <g id="line2d_45">
      <path clip-path="url(#p30bb6515d6)" d="M 53.328125 155.959219 
L 667.128125 155.959219 
" style="fill:none;stroke:#b0b0b0;stroke-linecap:square;stroke-width:0.25;"/>
     </g>
     <g id="line2d_46">
      <g>
       <use style="stroke:#000000;stroke-width:0.8;" x="53.328125" xlink:href="#m89ccf84780" y="155.959219"/>
      </g>
     </g>
     <g id="text_24">
      <!-- 3200 -->
      <g transform="translate(20.878125 159.758437)scale(0.1 -0.1)">
       <use xlink:href="#DejaVuSans-51"/>
       <use x="63.623047" xlink:href="#DejaVuSans-50"/>
       <use x="127.246094" xlink:href="#DejaVuSans-48"/>
       <use x="190.869141" xlink:href="#DejaVuSans-48"/>
      </g>
     </g>
    </g>
    <g id="ytick_12">
     <g id="line2d_47">
      <path clip-path="url(#p30bb6515d6)" d="M 53.328125 126.967219 
L 667.128125 126.967219 
" style="fill:none;stroke:#b0b0b0;stroke-linecap:square;stroke-width:0.25;"/>
     </g>
     <g id="line2d_48">
      <g>
       <use style="stroke:#000000;stroke-width:0.8;" x="53.328125" xlink:href="#m89ccf84780" y="126.967219"/>
      </g>
     </g>
     <g id="text_25">
      <!-- 3300 -->
      <g transform="translate(20.878125 130.766437)scale(0.1 -0.1)">
       <use xlink:href="#DejaVuSans-51"/>
       <use x="63.623047" xlink:href="#DejaVuSans-51"/>
       <use x="127.246094" xlink:href="#DejaVuSans-48"/>
       <use x="190.869141" xlink:href="#DejaVuSans-48"/>
      </g>
     </g>
    </g>
    <g id="ytick_13">
     <g id="line2d_49">
      <path clip-path="url(#p30bb6515d6)" d="M 53.328125 97.975219 
L 667.128125 97.975219 
" style="fill:none;stroke:#b0b0b0;stroke-linecap:square;stroke-width:0.25;"/>
     </g>
     <g id="line2d_50">
      <g>
       <use style="stroke:#000000;stroke-width:0.8;" x="53.328125" xlink:href="#m89ccf84780" y="97.975219"/>
      </g>
     </g>
     <g id="text_26">
      <!-- 3400 -->
      <g transform="translate(20.878125 101.774437)scale(0.1 -0.1)">
       <use xlink:href="#DejaVuSans-51"/>
       <use x="63.623047" xlink:href="#DejaVuSans-52"/>
       <use x="127.246094" xlink:href="#DejaVuSans-48"/>
       <use x="190.869141" xlink:href="#DejaVuSans-48"/>
      </g>
     </g>
    </g>
    <g id="ytick_14">
     <g id="line2d_51">
      <path clip-path="url(#p30bb6515d6)" d="M 53.328125 68.983219 
L 667.128125 68.983219 
" style="fill:none;stroke:#b0b0b0;stroke-linecap:square;stroke-width:0.25;"/>
     </g>
     <g id="line2d_52">
      <g>
       <use style="stroke:#000000;stroke-width:0.8;" x="53.328125" xlink:href="#m89ccf84780" y="68.983219"/>
      </g>
     </g>
     <g id="text_27">
      <!-- 3500 -->
      <g transform="translate(20.878125 72.782437)scale(0.1 -0.1)">
       <use xlink:href="#DejaVuSans-51"/>
       <use x="63.623047" xlink:href="#DejaVuSans-53"/>
       <use x="127.246094" xlink:href="#DejaVuSans-48"/>
       <use x="190.869141" xlink:href="#DejaVuSans-48"/>
      </g>
     </g>
    </g>
    <g id="ytick_15">
     <g id="line2d_53">
      <path clip-path="url(#p30bb6515d6)" d="M 53.328125 39.991219 
L 667.128125 39.991219 
" style="fill:none;stroke:#b0b0b0;stroke-linecap:square;stroke-width:0.25;"/>
     </g>
     <g id="line2d_54">
      <g>
       <use style="stroke:#000000;stroke-width:0.8;" x="53.328125" xlink:href="#m89ccf84780" y="39.991219"/>
      </g>
     </g>
     <g id="text_28">
      <!-- 3600 -->
      <g transform="translate(20.878125 43.790437)scale(0.1 -0.1)">
       <use xlink:href="#DejaVuSans-51"/>
       <use x="63.623047" xlink:href="#DejaVuSans-54"/>
       <use x="127.246094" xlink:href="#DejaVuSans-48"/>
       <use x="190.869141" xlink:href="#DejaVuSans-48"/>
      </g>
     </g>
    </g>
    <g id="ytick_16">
     <g id="line2d_55">
      <path clip-path="url(#p30bb6515d6)" d="M 53.328125 10.999219 
L 667.128125 10.999219 
" style="fill:none;stroke:#b0b0b0;stroke-linecap:square;stroke-width:0.25;"/>
     </g>
     <g id="line2d_56">
      <g>
       <use style="stroke:#000000;stroke-width:0.8;" x="53.328125" xlink:href="#m89ccf84780" y="10.999219"/>
      </g>
     </g>
     <g id="text_29">
      <!-- 3700 -->
      <g transform="translate(20.878125 14.798437)scale(0.1 -0.1)">
       <use xlink:href="#DejaVuSans-51"/>
       <use x="63.623047" xlink:href="#DejaVuSans-55"/>
       <use x="127.246094" xlink:href="#DejaVuSans-48"/>
       <use x="190.869141" xlink:href="#DejaVuSans-48"/>
      </g>
     </g>
    </g>
    <g id="text_30">
     <!-- Enthalpy [kJ/kg] -->
     <defs>
      <path d="M 54.890625 33.015625 
L 54.890625 0 
L 45.90625 0 
L 45.90625 32.71875 
Q 45.90625 40.484375 42.875 44.328125 
Q 39.84375 48.1875 33.796875 48.1875 
Q 26.515625 48.1875 22.3125 43.546875 
Q 18.109375 38.921875 18.109375 30.90625 
L 18.109375 0 
L 9.078125 0 
L 9.078125 75.984375 
L 18.109375 75.984375 
L 18.109375 46.1875 
Q 21.34375 51.125 25.703125 53.5625 
Q 30.078125 56 35.796875 56 
Q 45.21875 56 50.046875 50.171875 
Q 54.890625 44.34375 54.890625 33.015625 
z
" id="DejaVuSans-104"/>
      <path d="M 34.28125 27.484375 
Q 23.390625 27.484375 19.1875 25 
Q 14.984375 22.515625 14.984375 16.5 
Q 14.984375 11.71875 18.140625 8.90625 
Q 21.296875 6.109375 26.703125 6.109375 
Q 34.1875 6.109375 38.703125 11.40625 
Q 43.21875 16.703125 43.21875 25.484375 
L 43.21875 27.484375 
z
M 52.203125 31.203125 
L 52.203125 0 
L 43.21875 0 
L 43.21875 8.296875 
Q 40.140625 3.328125 35.546875 0.953125 
Q 30.953125 -1.421875 24.3125 -1.421875 
Q 15.921875 -1.421875 10.953125 3.296875 
Q 6 8.015625 6 15.921875 
Q 6 25.140625 12.171875 29.828125 
Q 18.359375 34.515625 30.609375 34.515625 
L 43.21875 34.515625 
L 43.21875 35.40625 
Q 43.21875 41.609375 39.140625 45 
Q 35.0625 48.390625 27.6875 48.390625 
Q 23 48.390625 18.546875 47.265625 
Q 14.109375 46.140625 10.015625 43.890625 
L 10.015625 52.203125 
Q 14.9375 54.109375 19.578125 55.046875 
Q 24.21875 56 28.609375 56 
Q 40.484375 56 46.34375 49.84375 
Q 52.203125 43.703125 52.203125 31.203125 
z
" id="DejaVuSans-97"/>
      <path d="M 9.421875 75.984375 
L 18.40625 75.984375 
L 18.40625 0 
L 9.421875 0 
z
" id="DejaVuSans-108"/>
     </defs>
     <g transform="translate(14.798438 268.097812)rotate(-90)scale(0.1 -0.1)">
      <use xlink:href="#DejaVuSans-69"/>
      <use x="63.183594" xlink:href="#DejaVuSans-110"/>
      <use x="126.5625" xlink:href="#DejaVuSans-116"/>
      <use x="165.771484" xlink:href="#DejaVuSans-104"/>
      <use x="229.150391" xlink:href="#DejaVuSans-97"/>
      <use x="290.429688" xlink:href="#DejaVuSans-108"/>
      <use x="318.212891" xlink:href="#DejaVuSans-112"/>
      <use x="381.689453" xlink:href="#DejaVuSans-121"/>
      <use x="440.869141" xlink:href="#DejaVuSans-32"/>
      <use x="472.65625" xlink:href="#DejaVuSans-91"/>
      <use x="511.669922" xlink:href="#DejaVuSans-107"/>
      <use x="569.580078" xlink:href="#DejaVuSans-74"/>
      <use x="599.072266" xlink:href="#DejaVuSans-47"/>
      <use x="632.763672" xlink:href="#DejaVuSans-107"/>
      <use x="690.673828" xlink:href="#DejaVuSans-103"/>
      <use x="754.150391" xlink:href="#DejaVuSans-93"/>
     </g>
    </g>
   </g>
   <g id="line2d_57">
    <path clip-path="url(#p30bb6515d6)" d="M 317.193585 484.435469 
L 307.933427 480.340919 
L 298.810248 476.071158 
L 290.072401 471.74073 
L 281.713106 467.356089 
L 273.477131 462.783537 
L 265.611397 458.161914 
L 257.866667 453.34816 
L 250.48059 448.495653 
L 243.209418 443.45259 
L 236.051839 438.216731 
L 229.004667 432.788808 
L 221.840012 426.989519 
L 214.339159 420.622321 
L 206.287583 413.481409 
L 196.606253 404.574285 
L 178.550649 387.885746 
L 172.842656 382.956182 
L 168.133641 379.177034 
L 164.228927 376.309713 
L 160.692447 373.96965 
L 157.29402 371.989814 
L 154.288542 370.486459 
L 151.44288 369.298047 
L 148.7667 368.404162 
L 145.990498 367.718972 
L 143.39194 367.310364 
L 140.98979 367.138674 
L 138.487393 367.17418 
L 135.869385 367.447605 
L 133.469323 367.910707 
L 130.951687 368.613313 
L 128.298477 369.590482 
L 125.487705 370.88464 
L 122.49208 372.547933 
L 119.751351 374.316459 
L 116.822078 376.455427 
L 113.669201 379.029877 
L 110.246927 382.123944 
L 106.493461 385.850019 
L 102.321697 390.364888 
L 98.433323 394.894338 
L 94.046662 400.339224 
L 88.960302 407.050183 
L 84.126644 413.779693 
L 78.12765 422.548315 
L 72.181731 431.621864 
L 63.250321 445.791379 
L 58.448738 453.606732 
L 42.945072 479.435645 
L 42.945072 479.435645 
" style="fill:none;stroke:#808080;stroke-dasharray:1.85,0.8;stroke-dashoffset:0;stroke-width:0.5;"/>
   </g>
   <g id="line2d_58">
    <path clip-path="url(#p30bb6515d6)" d="M 374.095272 484.435469 
L 362.1083 480.386355 
L 350.661831 476.286991 
L 339.639116 472.100662 
L 329.313641 467.944074 
L 319.396183 463.715733 
L 309.881055 459.420251 
L 300.761769 455.06347 
L 292.031065 450.652535 
L 283.421847 446.053784 
L 275.19163 441.407903 
L 267.078894 436.57246 
L 259.083638 431.543125 
L 251.204271 426.317882 
L 243.437089 420.898062 
L 235.537829 415.111481 
L 227.270382 408.770534 
L 218.400929 401.681823 
L 206.839481 392.132974 
L 191.561888 379.534762 
L 184.97211 374.401227 
L 179.696207 370.56727 
L 175.285781 367.623699 
L 171.270744 365.203908 
L 167.664673 363.2806 
L 164.220167 361.695668 
L 160.941143 360.441136 
L 157.835009 359.501444 
L 154.91282 358.853196 
L 152.189265 358.465281 
L 149.362835 358.291717 
L 146.750882 358.344247 
L 144.030959 358.620172 
L 141.186654 359.15231 
L 138.580378 359.858779 
L 135.84776 360.822775 
L 132.969478 362.081896 
L 129.921883 363.681728 
L 127.152789 365.366407 
L 124.214763 367.385998 
L 121.079057 369.794348 
L 117.709046 372.659398 
L 114.056855 376.069093 
L 110.057812 380.141024 
L 105.6206 385.039487 
L 101.491204 389.925596 
L 96.839153 395.771869 
L 91.452958 402.9464 
L 86.342684 410.112125 
L 80.013956 419.41007 
L 73.755079 428.994026 
L 68.093512 437.9289 
L 59.306052 452.167389 
L 42.945072 479.435645 
L 42.945072 479.435645 
" style="fill:none;stroke:#808080;stroke-dasharray:1.85,0.8;stroke-dashoffset:0;stroke-width:0.5;"/>
   </g>
   <g id="line2d_59">
    <path clip-path="url(#p30bb6515d6)" d="M 394.359452 470.183723 
L 381.641777 466.167317 
L 369.367478 462.056325 
L 357.828053 457.958532 
L 346.718601 453.777877 
L 336.03437 449.517415 
L 325.769722 445.181427 
L 315.918146 440.775525 
L 306.472268 436.306761 
L 297.423847 431.783741 
L 288.494964 427.07109 
L 279.951374 422.31513 
L 271.519941 417.372897 
L 262.939742 412.080864 
L 254.47059 406.594454 
L 245.851482 400.749156 
L 236.577737 394.189717 
L 225.655335 386.18044 
L 201.105333 368.059763 
L 194.52569 363.555651 
L 189.11352 360.116299 
L 184.376755 357.369603 
L 180.066867 355.134636 
L 176.199 353.381012 
L 172.508174 351.960525 
L 168.999033 350.863764 
L 165.67971 350.073717 
L 162.561956 349.565562 
L 159.661101 349.306835 
L 156.656352 349.2651 
L 153.885268 349.436655 
L 151.005935 349.832835 
L 148.002359 350.485749 
L 145.257299 351.297529 
L 142.387018 352.36549 
L 139.372967 353.72588 
L 136.192588 355.422381 
L 132.818015 357.508415 
L 129.744639 359.656451 
L 126.475219 362.191446 
L 122.97462 365.178789 
L 119.197314 368.70238 
L 115.082475 372.873176 
L 110.545502 377.843878 
L 106.354242 382.754329 
L 101.675515 388.565189 
L 96.333011 395.584628 
L 91.370075 402.435389 
L 85.440018 410.992205 
L 79.916584 419.281098 
L 72.588367 430.671594 
L 65.469839 442.069844 
L 60.163366 450.728046 
L 42.945072 479.435645 
L 42.945072 479.435645 
" style="fill:none;stroke:#808080;stroke-dasharray:1.85,0.8;stroke-dashoffset:0;stroke-width:0.5;"/>
   </g>
   <g id="line2d_60">
    <path clip-path="url(#p30bb6515d6)" d="M 414.154965 455.778361 
L 400.573136 451.75233 
L 387.762346 447.725139 
L 375.402342 443.605763 
L 363.793094 439.506148 
L 352.619044 435.328893 
L 341.874453 431.078469 
L 331.55272 426.760692 
L 321.646376 422.382836 
L 311.861021 417.816706 
L 302.480387 413.198819 
L 293.214895 408.393376 
L 284.062874 403.398508 
L 274.748075 398.055852 
L 265.542081 392.520968 
L 255.633495 386.296903 
L 244.760136 379.195885 
L 227.89959 367.872212 
L 215.463278 359.639365 
L 207.954097 354.9272 
L 201.95924 351.414457 
L 196.685744 348.57685 
L 192.153772 346.375431 
L 187.809331 344.51072 
L 183.952276 343.086694 
L 180.300815 341.963222 
L 176.862787 341.124164 
L 173.322711 340.499493 
L 170.001164 340.148503 
L 166.914285 340.037024 
L 163.720985 340.148223 
L 160.780165 340.460599 
L 157.729104 341.002239 
L 154.551876 341.805212 
L 151.653397 342.751946 
L 148.628485 343.95804 
L 145.458847 345.459357 
L 142.122321 347.298939 
L 138.591659 349.529189 
L 135.385257 351.800532 
L 131.984484 354.456905 
L 128.355607 357.561288 
L 124.455278 361.193827 
L 120.226177 365.459421 
L 115.589671 370.500473 
L 111.334415 375.437605 
L 106.621686 381.224194 
L 101.301286 388.123827 
L 95.111089 396.591553 
L 89.183355 405.095216 
L 81.707344 416.297922 
L 74.033234 428.25521 
L 66.579598 440.209077 
L 61.020681 449.288702 
L 42.945072 479.435645 
L 42.945072 479.435645 
" style="fill:none;stroke:#808080;stroke-dasharray:1.85,0.8;stroke-dashoffset:0;stroke-width:0.5;"/>
   </g>
   <g id="line2d_61">
    <path clip-path="url(#p30bb6515d6)" d="M 433.950478 441.372998 
L 419.805554 437.435317 
L 406.130878 433.398267 
L 393.244206 429.365128 
L 380.814417 425.243737 
L 368.836698 421.036996 
L 357.305293 416.749137 
L 346.21349 412.385862 
L 335.553604 407.95451 
L 325.316938 403.464219 
L 315.197806 398.785794 
L 305.195281 393.916096 
L 295.306355 388.855094 
L 285.239065 383.450201 
L 274.992177 377.697119 
L 263.713936 371.104085 
L 249.441537 362.48179 
L 228.996604 350.128473 
L 220.764387 345.425447 
L 214.138902 341.8862 
L 208.573179 339.14961 
L 203.499482 336.893674 
L 198.929753 335.095695 
L 194.567976 333.619224 
L 190.41681 332.459614 
L 186.482084 331.605229 
L 182.772979 331.037067 
L 179.302094 330.728676 
L 176.085355 330.646425 
L 172.767667 330.77599 
L 169.334334 331.147675 
L 166.171352 331.71005 
L 162.888687 332.521381 
L 159.469041 333.616446 
L 156.348251 334.839726 
L 153.090042 336.344773 
L 149.674367 338.170801 
L 146.076841 340.365055 
L 142.267343 342.985307 
L 138.804893 345.624329 
L 135.129007 348.685301 
L 131.201676 352.238957 
L 126.973603 356.376129 
L 122.378823 361.217095 
L 118.204495 365.906574 
L 113.637252 371.332909 
L 108.567516 377.689919 
L 102.821887 385.281173 
L 97.538257 392.590337 
L 91.323111 401.549256 
L 83.498103 413.314746 
L 75.478101 425.838826 
L 67.689356 438.34831 
L 61.877995 447.849359 
L 42.945072 479.435645 
L 42.945072 479.435645 
" style="fill:none;stroke:#808080;stroke-dasharray:1.85,0.8;stroke-dashoffset:0;stroke-width:0.5;"/>
   </g>
   <g id="line2d_62">
    <path clip-path="url(#p30bb6515d6)" d="M 453.745992 426.967635 
L 438.697597 423.02654 
L 424.47307 419.075718 
L 410.725948 415.027976 
L 397.782539 410.990685 
L 385.300941 406.870544 
L 373.275274 402.672021 
L 361.698701 398.40108 
L 350.247006 393.938744 
L 339.234492 389.41039 
L 328.341317 384.690154 
L 317.565564 379.776161 
L 306.902739 374.670501 
L 296.04462 369.227331 
L 284.39072 363.13181 
L 271.050182 355.893465 
L 237.577996 337.58681 
L 229.735668 333.634766 
L 223.308381 330.627384 
L 217.395004 328.105281 
L 212.322119 326.172687 
L 207.469856 324.560674 
L 203.173119 323.354273 
L 199.117184 322.428573 
L 194.959887 321.715765 
L 191.044938 321.281337 
L 187.38553 321.097647 
L 183.615713 321.146245 
L 180.114453 321.41781 
L 176.495288 321.936619 
L 173.165249 322.634103 
L 169.713829 323.584577 
L 166.12385 324.822676 
L 162.852886 326.174078 
L 159.443672 327.809668 
L 155.876494 329.76813 
L 152.127464 332.095884 
L 148.167217 334.849435 
L 144.577012 337.601089 
L 140.775854 340.771243 
L 136.727369 344.427815 
L 132.384775 348.657283 
L 127.686143 353.57295 
L 122.546346 359.328899 
L 117.839049 364.92346 
L 112.635687 371.439246 
L 106.772699 379.163118 
L 101.423579 386.531267 
L 95.206844 395.441855 
L 87.559183 406.857091 
L 80.048475 418.482673 
L 73.272801 429.255858 
L 62.735309 446.410015 
L 42.945072 479.435645 
L 42.945072 479.435645 
" style="fill:none;stroke:#808080;stroke-dasharray:1.85,0.8;stroke-dashoffset:0;stroke-width:0.5;"/>
   </g>
   <g id="line2d_63">
    <path clip-path="url(#p30bb6515d6)" d="M 473.541505 412.562272 
L 457.56345 408.621877 
L 442.438826 404.663185 
L 428.154821 400.699726 
L 414.35408 396.643244 
L 401.031634 392.496621 
L 388.181498 388.264198 
L 375.79662 383.951983 
L 363.868828 379.567878 
L 352.062432 374.992198 
L 340.376448 370.221555 
L 328.807534 365.256031 
L 317.032278 359.955073 
L 304.733441 354.166332 
L 291.281067 347.5816 
L 271.057462 337.392822 
L 255.137028 329.466444 
L 245.66808 324.993866 
L 237.991796 321.611763 
L 231.496794 318.988893 
L 225.883929 316.946398 
L 220.504028 315.223801 
L 215.7022 313.912261 
L 211.148713 312.891864 
L 206.850003 312.150057 
L 202.815508 311.667631 
L 198.676678 311.404835 
L 194.809678 311.385899 
L 191.231878 311.574183 
L 187.548747 311.984056 
L 183.745578 312.646006 
L 180.250225 313.474793 
L 176.631913 314.560332 
L 172.873594 315.937095 
L 169.454311 317.412538 
L 165.896057 319.174343 
L 162.179447 321.260659 
L 158.281087 323.717091 
L 154.172341 326.59891 
L 150.456336 329.458775 
L 146.531824 332.733694 
L 142.363956 336.488949 
L 137.908272 340.807005 
L 133.106497 345.794838 
L 127.879565 351.596053 
L 123.119428 357.194773 
L 117.893058 363.66382 
L 112.059263 371.251769 
L 105.384819 380.365037 
L 99.154176 389.247192 
L 91.634784 400.394152 
L 84.493049 411.357618 
L 74.567623 427.087597 
L 63.592624 444.970672 
L 42.945072 479.435645 
L 42.945072 479.435645 
" style="fill:none;stroke:#808080;stroke-dasharray:1.85,0.8;stroke-dashoffset:0;stroke-width:0.5;"/>
   </g>
   <g id="line2d_64">
    <path clip-path="url(#p30bb6515d6)" d="M 493.337018 398.15691 
L 476.769601 394.309082 
L 460.715179 390.351424 
L 445.530798 386.380414 
L 430.845976 382.309613 
L 416.655689 378.141698 
L 402.953799 373.880946 
L 389.732976 369.533501 
L 376.984595 365.107678 
L 364.358993 360.48682 
L 351.853954 355.669145 
L 339.464281 350.657406 
L 326.519437 345.175252 
L 312.690067 339.068733 
L 295.67613 331.295372 
L 268.175465 318.709889 
L 258.232108 314.430509 
L 250.176574 311.200622 
L 243.36679 308.700596 
L 237.13939 306.64946 
L 231.505551 305.027436 
L 226.483347 303.799458 
L 221.727509 302.851389 
L 217.244743 302.170279 
L 212.658014 301.707434 
L 208.34754 301.506184 
L 204.327462 301.53705 
L 200.196504 301.801647 
L 196.370453 302.26772 
L 192.427517 302.979722 
L 188.811375 303.846336 
L 185.076456 304.961683 
L 181.206881 306.358069 
L 177.183817 308.073477 
L 173.520083 309.871412 
L 169.703497 311.98386 
L 165.712349 314.453386 
L 161.520288 317.331158 
L 157.094843 320.679586 
L 153.085253 323.982483 
L 148.842249 327.748374 
L 144.325211 332.052983 
L 139.481632 336.993195 
L 134.241534 342.696774 
L 129.503022 348.157325 
L 124.343683 354.409316 
L 118.649687 361.654298 
L 112.244112 370.202409 
L 106.40889 378.323701 
L 99.638925 388.10672 
L 91.331797 400.580602 
L 83.195172 413.226997 
L 75.862445 424.919337 
L 64.449938 443.531329 
L 42.945072 479.435645 
L 42.945072 479.435645 
" style="fill:none;stroke:#808080;stroke-dasharray:1.85,0.8;stroke-dashoffset:0;stroke-width:0.5;"/>
   </g>
   <g id="line2d_65">
    <path clip-path="url(#p30bb6515d6)" d="M 513.132531 383.751547 
L 495.596122 379.910652 
L 478.965169 376.044016 
L 462.853853 372.070078 
L 447.627828 368.089409 
L 432.905584 364.014826 
L 418.680794 359.850957 
L 404.94593 355.604339 
L 391.335574 351.164384 
L 377.848864 346.527222 
L 364.482386 341.692668 
L 350.88178 336.531381 
L 336.6978 330.904068 
L 320.893027 324.386937 
L 274.542439 305.087409 
L 265.449563 301.667524 
L 257.65241 298.974346 
L 250.81682 296.850935 
L 244.599287 295.156629 
L 239.015454 293.862209 
L 233.704432 292.859942 
L 228.670985 292.141403 
L 223.922825 291.691578 
L 219.470694 291.488687 
L 215.328331 291.504284 
L 211.08268 291.737693 
L 207.161307 292.159305 
L 203.132153 292.808152 
L 198.9808 293.7143 
L 195.174486 294.763994 
L 191.244292 296.073314 
L 187.173799 297.675686 
L 183.481812 299.348873 
L 179.652119 301.307276 
L 175.666454 303.587109 
L 171.502964 306.231289 
L 167.135179 309.291303 
L 162.530555 312.829803 
L 158.364645 316.301925 
L 153.962911 320.242751 
L 149.285011 324.727607 
L 144.27902 329.852467 
L 138.876091 335.743244 
L 134.003107 341.359156 
L 128.712917 347.761677 
L 122.896368 355.144403 
L 116.386586 363.800379 
L 110.496984 371.959659 
L 103.732447 381.680036 
L 95.585999 393.829113 
L 87.867624 405.72867 
L 77.157268 422.751076 
L 65.307253 442.091985 
L 42.945072 479.435645 
L 42.945072 479.435645 
" style="fill:none;stroke:#808080;stroke-dasharray:1.85,0.8;stroke-dashoffset:0;stroke-width:0.5;"/>
   </g>
   <g id="line2d_66">
    <path clip-path="url(#p30bb6515d6)" d="M 532.928044 369.346184 
L 514.396442 365.516353 
L 496.799343 361.652927 
L 480.123958 357.768755 
L 463.973414 353.781516 
L 448.342371 349.694097 
L 433.224262 345.511194 
L 418.611158 341.239672 
L 404.123691 336.771937 
L 389.759825 332.105613 
L 375.514351 327.24305 
L 360.655279 321.930111 
L 344.820942 316.026489 
L 324.77673 308.298662 
L 297.18796 297.667838 
L 285.601843 293.456963 
L 276.446881 290.360571 
L 268.657116 287.952681 
L 261.5065 285.978042 
L 255.004665 284.421133 
L 249.168198 283.251065 
L 243.620059 282.367176 
L 238.3655 281.760169 
L 233.412688 281.414214 
L 228.772763 281.306813 
L 224.023056 281.43062 
L 219.596209 281.772944 
L 215.511168 282.293955 
L 211.317989 283.043156 
L 207.002528 284.05014 
L 203.050569 285.18935 
L 198.975309 286.587434 
L 194.760798 288.27699 
L 190.388194 290.296187 
L 186.414905 292.368675 
L 182.285464 294.763682 
L 177.97846 297.523389 
L 173.468052 300.698209 
L 168.722615 304.349219 
L 164.438464 307.914196 
L 159.92206 311.942312 
L 155.134895 316.50571 
L 150.027807 321.695569 
L 144.536282 327.630285 
L 139.604048 333.258023 
L 134.275037 339.637449 
L 128.451911 346.941834 
L 121.99017 355.425889 
L 114.656437 365.496915 
L 107.885957 375.173032 
L 99.858725 387.066504 
L 92.451899 398.398866 
L 82.702437 413.756907 
L 73.23815 429.044474 
L 66.164567 440.652642 
L 42.945072 479.435645 
L 42.945072 479.435645 
" style="fill:none;stroke:#808080;stroke-dasharray:1.85,0.8;stroke-dashoffset:0;stroke-width:0.5;"/>
   </g>
   <g id="line2d_67">
    <path clip-path="url(#p30bb6515d6)" d="M 554.997535 353.27707 
L 544.350938 353.328838 
L 544.350938 353.328838 
" style="fill:none;stroke:#ff0000;stroke-linecap:square;stroke-width:0.5;"/>
   </g>
   <g id="line2d_68">
    <path clip-path="url(#p30bb6515d6)" d="M 569.290202 342.39649 
L 512.45461 342.63289 
L 494.38821 342.793843 
L 494.38821 342.793843 
" style="fill:none;stroke:#ff0000;stroke-linecap:square;stroke-width:0.5;"/>
   </g>
   <g id="line2d_69">
    <path clip-path="url(#p30bb6515d6)" d="M 589.041041 326.083593 
L 515.563992 326.286043 
L 474.991737 326.606574 
L 446.8078 327.040107 
L 433.711996 327.343379 
L 433.711996 327.343379 
" style="fill:none;stroke:#ff0000;stroke-linecap:square;stroke-width:0.5;"/>
   </g>
   <g id="line2d_70">
    <path clip-path="url(#p30bb6515d6)" d="M 612.883653 304.231003 
L 521.305819 304.40453 
L 476.061301 304.698302 
L 445.244573 305.109777 
L 421.711829 305.638772 
L 402.850538 306.27628 
L 386.989806 307.026105 
L 373.419338 307.881528 
L 371.897747 307.992723 
L 371.897747 307.992723 
" style="fill:none;stroke:#ff0000;stroke-linecap:square;stroke-width:0.5;"/>
   </g>
   <g id="line2d_71">
    <path clip-path="url(#p30bb6515d6)" d="M 634.472198 282.198401 
L 526.87042 282.356007 
L 478.694327 282.634361 
L 446.524744 283.031501 
L 422.162611 283.547959 
L 402.572972 284.181007 
L 386.240559 284.925761 
L 372.256953 285.777833 
L 359.690602 286.764159 
L 348.559401 287.858753 
L 338.557687 289.062269 
L 329.708358 290.341025 
L 324.503265 291.20635 
L 324.503265 291.20635 
" style="fill:none;stroke:#ff0000;stroke-linecap:square;stroke-width:0.5;"/>
   </g>
   <g id="line2d_72">
    <path clip-path="url(#p30bb6515d6)" d="M 663.586426 248.725364 
L 536.20859 248.86846 
L 484.901354 249.135072 
L 451.707194 249.516986 
L 426.774668 250.016375 
L 406.692783 250.634954 
L 389.948661 251.36798 
L 375.398841 252.225801 
L 362.670993 253.196975 
L 351.38956 254.275266 
L 341.170403 255.468115 
L 331.614797 256.805895 
L 322.729498 258.276328 
L 314.527358 259.857622 
L 307.028083 261.517506 
L 299.801555 263.334591 
L 292.8464 265.308321 
L 286.162323 267.435922 
L 279.749817 269.712724 
L 273.609818 272.132578 
L 268.829943 274.195655 
L 268.829943 274.195655 
" style="fill:none;stroke:#ff0000;stroke-linecap:square;stroke-width:0.5;"/>
   </g>
   <g id="line2d_73">
    <path clip-path="url(#p30bb6515d6)" d="M 686.460938 191.629598 
L 548.7472 191.768085 
L 496.320026 192.030532 
L 462.511438 192.410788 
L 437.518894 192.902406 
L 417.132319 193.52039 
L 400.429784 194.24037 
L 386.003948 195.074926 
L 373.391962 196.015328 
L 361.632443 197.115643 
L 351.225003 198.310037 
L 341.690392 199.622209 
L 333.042643 201.02361 
L 324.781664 202.578734 
L 316.908257 204.284688 
L 309.425783 206.133535 
L 302.340603 208.111531 
L 295.662495 210.198447 
L 288.828952 212.577652 
L 282.405033 215.057152 
L 276.410275 217.598466 
L 270.2439 220.45589 
L 264.523947 223.338854 
L 258.61656 226.562013 
L 252.490719 230.178544 
L 246.831209 233.775997 
L 240.935108 237.792367 
L 234.760141 242.298075 
L 229.086022 246.711708 
L 223.110148 251.644793 
L 216.770978 257.196867 
L 210.985739 262.54859 
L 204.800305 268.567434 
L 198.112198 275.414462 
L 192.045928 281.922544 
L 188.133435 286.26663 
L 188.133435 286.26663 
" style="fill:none;stroke:#ff0000;stroke-linecap:square;stroke-width:0.5;"/>
   </g>
   <g id="line2d_74">
    <path clip-path="url(#p30bb6515d6)" d="M 686.460938 132.74306 
L 559.264913 132.885199 
L 508.10633 133.148674 
L 474.705225 133.529422 
L 449.563523 134.02945 
L 429.719184 134.634784 
L 412.788705 135.366888 
L 398.181946 136.217302 
L 385.304735 137.18703 
L 373.553423 138.299266 
L 362.936617 139.53321 
L 353.469214 140.853425 
L 344.530285 142.323361 
L 336.123114 143.934527 
L 328.253999 145.671428 
L 320.932579 147.510905 
L 314.172026 149.421805 
L 307.295691 151.595407 
L 300.992749 153.809655 
L 294.565058 156.30427 
L 288.731602 158.789941 
L 282.769013 161.562867 
L 276.658872 164.662211 
L 271.174413 167.677876 
L 265.543117 171.014625 
L 259.744717 174.714554 
L 253.755177 178.827175 
L 248.447506 182.724982 
L 242.956804 187.012659 
L 237.257462 191.74167 
L 231.318766 196.973237 
L 225.10344 202.78102 
L 219.679927 208.1252 
L 214.000225 213.99455 
L 208.024768 220.465336 
L 201.70458 227.631215 
L 194.977949 235.609245 
L 187.765454 244.548842 
L 179.962236 254.645658 
L 173.200065 263.730838 
L 165.870284 273.906115 
L 157.837701 285.418237 
L 148.910727 298.614667 
L 138.804371 314.009079 
L 127.069756 332.405897 
L 116.768924 348.943222 
L 104.666216 368.746868 
L 90.22407 392.773317 
L 68.120222 430.013756 
L 41.96128 474.031653 
L 35.661051 484.435469 
L 35.661051 484.435469 
" style="fill:none;stroke:#ff0000;stroke-linecap:square;stroke-width:0.5;"/>
   </g>
   <g id="line2d_75">
    <path clip-path="url(#p30bb6515d6)" d="M 686.460938 71.952172 
L 569.113556 72.10116 
L 519.152678 72.37251 
L 486.362054 72.760285 
L 461.839628 73.260284 
L 442.02247 73.876377 
L 425.125346 74.620503 
L 410.557993 75.483523 
L 397.726586 76.465842 
L 386.647055 77.524496 
L 376.096747 78.754239 
L 366.702189 80.066483 
L 357.846436 81.523305 
L 349.532943 83.114955 
L 341.767764 84.824776 
L 334.559768 86.628709 
L 327.251814 88.694878 
L 320.50805 90.835173 
L 314.345102 93.005311 
L 308.081152 95.437823 
L 301.702349 98.167609 
L 295.92293 100.876102 
L 290.027018 103.883779 
L 283.999569 107.227874 
L 278.604049 110.463386 
L 273.081174 114.021809 
L 267.415659 117.940279 
L 261.589981 122.261097 
L 255.583992 127.032588 
L 250.274964 131.522888 
L 244.799708 136.424453 
L 239.139235 141.78196 
L 233.271985 147.645831 
L 227.173479 154.072967 
L 220.815974 161.12748 
L 214.168162 168.881322 
L 207.194998 177.414619 
L 199.857835 186.815367 
L 193.435581 195.379857 
L 186.707076 204.668185 
L 179.648662 214.734356 
L 170.715487 227.904712 
L 161.26138 242.30584 
L 151.305201 257.906818 
L 139.171281 277.39371 
L 123.2339 303.494096 
L 96.859898 346.761267 
L 86.979688 362.543838 
L 78.216168 376.110801 
L 71.501215 386.121536 
L 65.405064 394.842968 
L 59.821111 402.465128 
L 54.659981 409.146439 
L 52.214745 412.174938 
L 52.214745 412.174938 
" style="fill:none;stroke:#ff0000;stroke-linecap:square;stroke-width:0.5;"/>
   </g>
   <g id="line2d_76">
    <path clip-path="url(#p30bb6515d6)" d="M 686.460938 9.173204 
L 578.91423 9.328387 
L 530.147921 9.607246 
L 497.962922 10.001499 
L 473.453893 10.516323 
L 453.653426 11.150262 
L 437.380982 11.883493 
L 422.841146 12.759661 
L 410.041559 13.75579 
L 398.996918 14.827942 
L 388.487923 16.071546 
L 379.138386 17.396408 
L 370.333754 18.864586 
L 362.077498 20.465418 
L 354.375433 22.181307 
L 347.235868 23.987331 
L 340.008649 26.050382 
L 333.351203 28.18115 
L 326.59871 30.589341 
L 320.429183 33.02541 
L 314.160671 35.748938 
L 308.495289 38.440294 
L 302.731494 41.41592 
L 296.857854 44.707936 
L 290.861494 48.352367 
L 285.502654 51.861967 
L 280.027931 55.70231 
L 274.425317 59.906554 
L 268.681555 64.511153 
L 262.782069 69.556021 
L 256.710936 75.084599 
L 251.357462 80.2438 
L 245.853698 85.824051 
L 240.187617 91.857926 
L 234.346939 98.378676 
L 228.319518 105.419265 
L 222.093908 113.010957 
L 215.660194 121.18126 
L 209.01115 129.951063 
L 200.978168 140.953251 
L 192.654909 152.773759 
L 184.06534 165.358736 
L 173.98492 180.530999 
L 161.166864 200.25266 
L 133.72639 242.633261 
L 126.778434 253.041883 
L 126.778434 253.041883 
" style="fill:none;stroke:#ff0000;stroke-linecap:square;stroke-width:0.5;"/>
   </g>
   <g id="line2d_77">
    <path clip-path="url(#p30bb6515d6)" d="M 231.238066 -1 
L 225.261522 6.562594 
L 225.261522 6.562594 
" style="fill:none;stroke:#ff0000;stroke-linecap:square;stroke-width:0.5;"/>
   </g>
   <g id="line2d_78">
    <path clip-path="url(#p30bb6515d6)" d="M 427.758135 445.879219 
L 560.544368 349.142385 
L 569.57713 342.170361 
L 578.235909 335.198337 
L 586.5506 328.226313 
L 594.547887 321.254289 
L 603.19502 313.410762 
L 611.50074 305.567235 
L 619.491823 297.723708 
L 628.030678 289.008678 
L 636.239474 280.293648 
L 644.143925 271.578618 
L 651.766905 262.863587 
L 659.8514 253.277054 
L 667.644238 243.690521 
L 675.167012 234.103988 
L 683.088296 223.645952 
L 686.460938 219.076986 
L 686.460938 219.076986 
" style="fill:none;stroke:#0000ff;stroke-linecap:square;stroke-width:0.5;"/>
   </g>
   <g id="line2d_79">
    <path clip-path="url(#p30bb6515d6)" d="M 396.754992 445.879219 
L 532.792212 343.041864 
L 541.490689 336.06984 
L 549.843066 329.097816 
L 557.875875 322.125792 
L 566.560409 314.282265 
L 574.900948 306.438738 
L 582.924442 298.595211 
L 590.654906 290.751684 
L 598.926665 282.036654 
L 606.889368 273.321624 
L 614.566374 264.606593 
L 622.705922 255.02006 
L 630.54971 245.433527 
L 638.119762 235.846994 
L 646.088871 225.388958 
L 653.7784 214.930922 
L 661.816762 203.601383 
L 669.573895 192.271844 
L 677.070341 180.942305 
L 684.872936 168.741263 
L 686.460938 166.205876 
L 686.460938 166.205876 
" style="fill:none;stroke:#0000ff;stroke-linecap:square;stroke-width:0.5;"/>
   </g>
   <g id="line2d_80">
    <path clip-path="url(#p30bb6515d6)" d="M 356.327459 445.879219 
L 496.468598 334.326834 
L 504.728182 327.35481 
L 513.650077 319.511283 
L 522.210454 311.667756 
L 530.437737 303.824229 
L 538.357385 295.980702 
L 546.823858 287.265672 
L 554.966591 278.550642 
L 562.810441 269.835612 
L 571.11987 260.249078 
L 579.120742 250.662545 
L 586.83643 241.076012 
L 594.952741 230.617976 
L 602.778577 220.15994 
L 610.335424 209.701904 
L 618.24069 198.372365 
L 625.874598 187.042826 
L 633.814558 174.841784 
L 641.484099 162.640742 
L 648.902622 150.4397 
L 656.592202 137.367155 
L 664.032734 124.29461 
L 671.714131 110.350561 
L 679.150421 96.406513 
L 686.460938 82.26086 
L 686.460938 82.26086 
" style="fill:none;stroke:#0000ff;stroke-linecap:square;stroke-width:0.5;"/>
   </g>
   <g id="line2d_81">
    <path clip-path="url(#p30bb6515d6)" d="M 326.227703 445.879219 
L 469.096888 327.35481 
L 478.00455 319.511283 
L 486.554487 311.667756 
L 494.773915 303.824229 
L 502.687526 295.980702 
L 511.148812 287.265672 
L 519.287509 278.550642 
L 527.128164 269.835612 
L 535.434794 260.249078 
L 543.433425 250.662545 
L 551.147294 241.076012 
L 559.261986 230.617976 
L 567.086495 220.15994 
L 574.642244 209.701904 
L 582.546522 198.372365 
L 590.179605 187.042826 
L 598.118823 174.841784 
L 605.787744 162.640742 
L 613.205741 150.4397 
L 620.894845 137.367155 
L 628.334972 124.29461 
L 636.016001 110.350561 
L 643.451978 96.406513 
L 651.102939 81.590962 
L 658.943112 65.903908 
L 666.533818 50.216854 
L 674.294591 33.658297 
L 681.814747 17.09974 
L 684.527976 10.999219 
L 684.527976 10.999219 
" style="fill:none;stroke:#0000ff;stroke-linecap:square;stroke-width:0.5;"/>
   </g>
   <g id="line2d_82">
    <path clip-path="url(#p30bb6515d6)" d="M 296.610739 445.879219 
L 441.444935 320.382786 
L 450.011872 312.539259 
L 458.250694 304.695732 
L 466.184798 296.852205 
L 474.669199 288.137175 
L 482.830766 279.422145 
L 490.693679 270.707115 
L 499.023851 261.120581 
L 507.04492 251.534048 
L 514.780083 241.947515 
L 522.916712 231.489479 
L 530.761859 221.031443 
L 538.337016 210.573407 
L 546.26102 199.243868 
L 553.912578 187.914329 
L 561.870402 175.713287 
L 569.556704 163.512245 
L 576.990964 151.311203 
L 584.696359 138.238658 
L 592.151712 125.166113 
L 599.847915 111.222064 
L 607.298064 97.278016 
L 614.963092 82.462465 
L 622.81715 66.775411 
L 630.420805 51.088357 
L 638.194328 34.5298 
L 645.726383 17.971243 
L 648.829552 10.999219 
L 648.829552 10.999219 
" style="fill:none;stroke:#0000ff;stroke-linecap:square;stroke-width:0.5;"/>
   </g>
   <g id="line2d_83">
    <path clip-path="url(#p30bb6515d6)" d="M 258.335915 445.879219 
L 406.767676 309.053247 
L 414.826335 301.20972 
L 423.44621 292.49469 
L 431.738339 283.77966 
L 439.725957 275.06463 
L 447.430464 266.3496 
L 455.601743 256.763066 
L 463.477765 247.176533 
L 471.079868 237.59 
L 479.08324 227.131964 
L 486.805982 216.673928 
L 494.878937 205.344389 
L 502.66912 194.01485 
L 510.197046 182.685311 
L 518.031813 170.484269 
L 525.604335 158.283227 
L 533.447663 145.210682 
L 541.031429 132.138137 
L 548.855164 118.194088 
L 556.424065 104.25004 
L 564.20661 89.434489 
L 571.740556 74.618938 
L 579.465696 58.931884 
L 586.949527 43.24483 
L 594.605402 26.686273 
L 601.642844 10.999219 
L 601.642844 10.999219 
" style="fill:none;stroke:#0000ff;stroke-linecap:square;stroke-width:0.5;"/>
   </g>
   <g id="line2d_84">
    <path clip-path="url(#p30bb6515d6)" d="M 230.180315 445.879219 
L 380.33675 300.338217 
L 388.866218 291.623187 
L 397.082841 282.908157 
L 405.006368 274.193127 
L 413.406241 264.606593 
L 421.497842 255.02006 
L 429.302863 245.433527 
L 437.513872 234.975491 
L 445.430838 224.517455 
L 453.074903 214.059419 
L 461.07011 202.72988 
L 468.789268 191.400341 
L 476.252004 180.070802 
L 484.02226 167.86976 
L 491.535442 155.668718 
L 499.320222 142.596173 
L 506.850022 129.523628 
L 514.620639 115.579579 
L 522.140478 101.635531 
L 529.874826 86.81998 
L 537.364165 72.004429 
L 545.045551 56.317375 
L 552.89567 39.758818 
L 560.499251 23.200261 
L 565.954048 10.999219 
L 565.954048 10.999219 
" style="fill:none;stroke:#0000ff;stroke-linecap:square;stroke-width:0.5;"/>
   </g>
   <g id="line2d_85">
    <path clip-path="url(#p30bb6515d6)" d="M 202.867103 445.879219 
L 354.535269 290.751684 
L 362.639044 282.036654 
L 371.236667 272.450121 
L 379.521789 262.863587 
L 387.513906 253.277054 
L 395.231705 243.690521 
L 403.358903 233.232485 
L 411.201739 222.774449 
L 418.779663 212.316413 
L 426.710723 200.986874 
L 434.372283 189.657335 
L 442.34311 177.456293 
L 450.043926 165.255251 
L 457.493626 153.054209 
L 465.216127 139.981664 
L 472.688815 126.909119 
L 480.403483 112.96507 
L 487.871869 99.021022 
L 495.555868 84.205471 
L 503.429445 68.518417 
L 511.05196 52.831363 
L 518.844636 36.272806 
L 526.395053 19.714249 
L 530.277264 10.999219 
L 530.277264 10.999219 
" style="fill:none;stroke:#0000ff;stroke-linecap:square;stroke-width:0.5;"/>
   </g>
   <g id="line2d_86">
    <path clip-path="url(#p30bb6515d6)" d="M 168.380417 445.879219 
L 320.598552 277.679139 
L 328.871878 268.092606 
L 337.590593 257.634569 
L 346.003807 247.176533 
L 354.127727 236.718497 
L 361.978771 226.260461 
L 370.194728 214.930922 
L 378.128702 203.601383 
L 385.798936 192.271844 
L 393.783639 180.070802 
L 401.501577 167.86976 
L 409.494984 154.797215 
L 417.22255 141.72467 
L 424.702377 128.652125 
L 432.42628 114.708076 
L 439.905056 100.764028 
L 447.600925 85.948477 
L 455.487632 70.261423 
L 463.12357 54.574369 
L 470.930499 38.015812 
L 478.495088 21.457255 
L 483.155284 10.999219 
L 483.155284 10.999219 
" style="fill:none;stroke:#0000ff;stroke-linecap:square;stroke-width:0.5;"/>
   </g>
   <g id="line2d_87">
    <path clip-path="url(#p30bb6515d6)" d="M 143.849586 445.879219 
L 294.780491 268.092606 
L 303.266659 257.634569 
L 312.162473 246.30503 
L 320.758581 234.975491 
L 329.067601 223.645952 
L 337.103428 212.316413 
L 344.880385 200.986874 
L 352.982341 188.785832 
L 360.817665 176.58479 
L 368.935223 163.512245 
L 376.784058 150.4397 
L 384.381511 137.367155 
L 392.226379 123.423107 
L 399.821219 109.479058 
L 407.634959 94.663507 
L 415.202578 79.847956 
L 422.965026 64.160902 
L 430.487064 48.473848 
L 438.183594 31.915291 
L 446.033261 14.485231 
L 447.573738 10.999219 
L 447.573738 10.999219 
" style="fill:none;stroke:#0000ff;stroke-linecap:square;stroke-width:0.5;"/>
   </g>
   <g id="line2d_88">
    <path clip-path="url(#p30bb6515d6)" d="M 121.04178 445.879219 
L 268.07771 260.249078 
L 277.337123 248.048036 
L 286.313674 235.846994 
L 295.010557 223.645952 
L 303.434836 211.44491 
L 311.595991 199.243868 
L 320.060502 186.171323 
L 328.249773 173.098778 
L 336.178324 160.026233 
L 344.36417 146.082185 
L 352.286332 132.138137 
L 359.960641 118.194088 
L 367.859623 103.378537 
L 375.512151 88.562986 
L 383.363228 72.875932 
L 390.971945 57.188878 
L 398.757389 40.630321 
L 406.697473 23.200261 
L 412.109111 10.999219 
L 412.109111 10.999219 
" style="fill:none;stroke:#0000ff;stroke-linecap:square;stroke-width:0.5;"/>
   </g>
   <g id="line2d_89">
    <path clip-path="url(#p30bb6515d6)" d="M 94.322115 445.879219 
L 228.488701 258.506072 
L 238.726915 243.690521 
L 248.69189 228.87497 
L 257.812864 214.930922 
L 266.681088 200.986874 
L 275.297815 187.042826 
L 283.667306 173.098778 
L 292.296254 158.283227 
L 300.663007 143.467676 
L 308.778305 128.652125 
L 317.109472 112.96507 
L 325.185014 97.278016 
L 333.01835 81.590962 
L 341.038458 65.032405 
L 348.817761 48.473848 
L 356.761493 31.043788 
L 364.848138 12.742225 
L 365.605297 10.999219 
L 365.605297 10.999219 
" style="fill:none;stroke:#0000ff;stroke-linecap:square;stroke-width:0.5;"/>
   </g>
   <g id="line2d_90">
    <path clip-path="url(#p30bb6515d6)" d="M 77.474043 445.879219 
L 191.626314 272.450121 
L 203.879742 253.277054 
L 215.309 234.975491 
L 225.928381 217.545431 
L 235.762656 200.986874 
L 245.341119 184.428317 
L 254.660227 167.86976 
L 263.720283 151.311203 
L 272.524701 134.752646 
L 281.079263 118.194088 
L 289.391439 101.635531 
L 297.888685 84.205471 
L 306.137663 66.775411 
L 314.54409 48.473848 
L 322.702038 30.172285 
L 330.99579 10.999219 
L 330.99579 10.999219 
" style="fill:none;stroke:#0000ff;stroke-linecap:square;stroke-width:0.5;"/>
   </g>
   <g id="line2d_91">
    <path clip-path="url(#p30bb6515d6)" d="M 64.38576 445.879219 
L 129.368409 337.812846 
L 148.45142 305.567235 
L 164.180932 278.550642 
L 177.632156 255.02006 
L 189.842672 233.232485 
L 201.31635 212.316413 
L 212.064069 192.271844 
L 222.555144 172.227275 
L 232.341379 153.054209 
L 241.879995 133.881143 
L 251.169953 114.708076 
L 260.213018 95.53501 
L 269.013213 76.361944 
L 277.576286 57.188878 
L 286.282662 37.144309 
L 294.746491 17.09974 
L 297.275744 10.999219 
L 297.275744 10.999219 
" style="fill:none;stroke:#0000ff;stroke-linecap:square;stroke-width:0.5;"/>
   </g>
   <g id="line2d_92">
    <path clip-path="url(#p30bb6515d6)" d="M 50.181006 445.879219 
L 66.494295 415.376614 
L 83.017477 384.002505 
L 99.285355 352.628397 
L 114.849402 322.125792 
L 129.716063 292.49469 
L 143.462684 264.606593 
L 156.534004 237.59 
L 168.936021 211.44491 
L 180.678135 186.171323 
L 191.773572 161.769239 
L 202.622293 137.367155 
L 212.843733 113.836573 
L 222.826059 90.305992 
L 232.567909 66.775411 
L 242.069983 43.24483 
L 251.334787 19.714249 
L 254.706748 10.999219 
L 254.706748 10.999219 
" style="fill:none;stroke:#0000ff;stroke-linecap:square;stroke-width:0.5;"/>
   </g>
   <g id="line2d_93">
    <path clip-path="url(#p30bb6515d6)" d="M 35.202348 445.879219 
L 47.566088 421.477135 
L 60.116091 396.203547 
L 72.418784 370.92996 
L 84.896226 344.78487 
L 97.128564 318.63978 
L 109.51801 291.623187 
L 121.657559 264.606593 
L 133.550234 237.59 
L 145.19758 210.573407 
L 156.600129 183.556814 
L 167.75785 156.540221 
L 178.670588 129.523628 
L 189.338437 102.507034 
L 199.762045 75.490441 
L 209.942824 48.473848 
L 219.883059 21.457255 
L 223.666965 10.999219 
L 223.666965 10.999219 
" style="fill:none;stroke:#0000ff;stroke-linecap:square;stroke-width:0.5;"/>
   </g>
   <g id="line2d_94">
    <path clip-path="url(#p30bb6515d6)" d="M 39.985811 484.435469 
L 42.945072 479.435645 
L 42.945072 479.435645 
" style="fill:none;stroke:#000000;stroke-linecap:square;stroke-width:1.5;"/>
   </g>
   <g id="line2d_95">
    <path clip-path="url(#p30bb6515d6)" d="M 552.723558 354.940822 
L 533.576317 351.207786 
L 514.983435 347.35639 
L 497.341086 343.476484 
L 480.239167 339.487696 
L 463.672163 335.392871 
L 447.633199 331.196871 
L 432.11385 326.907026 
L 416.720607 322.419035 
L 401.450003 317.73243 
L 385.917157 312.728375 
L 369.741261 307.279861 
L 351.044269 300.735366 
L 305.062052 284.509184 
L 294.441667 281.078664 
L 285.617274 278.45051 
L 277.844426 276.358655 
L 270.748003 274.67645 
L 264.341248 273.380768 
L 258.233077 272.374342 
L 252.426558 271.652981 
L 246.927581 271.206185 
L 241.744995 271.016795 
L 236.890663 271.060866 
L 232.379409 271.307833 
L 227.761866 271.779063 
L 223.503367 272.420058 
L 219.135 273.293056 
L 214.64265 274.427657 
L 210.532086 275.683465 
L 206.297019 277.201012 
L 201.92164 279.012697 
L 197.387318 281.156369 
L 193.272073 283.339304 
L 189.00057 285.845666 
L 184.551826 288.716913 
L 179.900616 292.002413 
L 175.016196 295.761728 
L 170.615326 299.415982 
L 165.985653 303.527965 
L 161.090369 308.166866 
L 155.882843 313.419464 
L 150.302469 319.397374 
L 144.267867 326.248854 
L 138.811185 332.771494 
L 132.867055 340.208987 
L 126.298081 348.803946 
L 118.886651 358.93685 
L 112.101269 368.583047 
L 104.161647 380.273496 
L 96.990717 391.165867 
L 87.915219 405.343483 
L 79.746912 418.414555 
L 67.021881 439.213299 
L 42.945072 479.435645 
L 42.945072 479.435645 
" style="fill:none;stroke:#000000;stroke-linecap:square;stroke-width:1.5;"/>
   </g>
   <g id="patch_3">
    <path d="M 53.328125 445.879219 
L 53.328125 10.999219 
" style="fill:none;stroke:#000000;stroke-linecap:square;stroke-linejoin:miter;stroke-width:0.8;"/>
   </g>
   <g id="patch_4">
    <path d="M 667.128125 445.879219 
L 667.128125 10.999219 
" style="fill:none;stroke:#000000;stroke-linecap:square;stroke-linejoin:miter;stroke-width:0.8;"/>
   </g>
   <g id="patch_5">
    <path d="M 53.328125 445.879219 
L 667.128125 445.879219 
" style="fill:none;stroke:#000000;stroke-linecap:square;stroke-linejoin:miter;stroke-width:0.8;"/>
   </g>
   <g id="patch_6">
    <path d="M 53.328125 10.999219 
L 667.128125 10.999219 
" style="fill:none;stroke:#000000;stroke-linecap:square;stroke-linejoin:miter;stroke-width:0.8;"/>
   </g>
  </g>
 </g>
 <defs>
  <clipPath id="p30bb6515d6">
   <rect height="434.88" width="613.8" x="53.328125" y="10.999219"/>
  </clipPath>
 </defs>
</svg>
