<?xml version="1.0" encoding="UTF-8" standalone="no"?>
<!-- Created with Inkscape (http://www.inkscape.org/) -->
<svg
   xmlns:dc="http://purl.org/dc/elements/1.1/"
   xmlns:cc="http://creativecommons.org/ns#"
   xmlns:rdf="http://www.w3.org/1999/02/22-rdf-syntax-ns#"
   xmlns:svg="http://www.w3.org/2000/svg"
   xmlns="http://www.w3.org/2000/svg"
   xmlns:xlink="http://www.w3.org/1999/xlink"
   xmlns:sodipodi="http://sodipodi.sourceforge.net/DTD/sodipodi-0.dtd"
   xmlns:inkscape="http://www.inkscape.org/namespaces/inkscape"
   width="2042.5082"
   height="894.97485"
   id="svg4240"
   sodipodi:version="0.32"
   inkscape:version="0.46"
   version="1.0"
   sodipodi:docname="Turbojet operation-axial flow-en.svg"
   inkscape:output_extension="org.inkscape.output.svg.inkscape">
  <defs
     id="defs4242"><inkscape:perspective
   sodipodi:type="inkscape:persp3d"
   inkscape:vp_x="0 : 526.18109 : 1"
   inkscape:vp_y="0 : 1000 : 0"
   inkscape:vp_z="744.09448 : 526.18109 : 1"
   inkscape:persp3d-origin="372.04724 : 350.78739 : 1"
   id="perspective4248" />

	
	
	
	
	
	
	
	
	

			
			
		
		
	
			
			
		
		
	
			
			
		<linearGradient
   y2="292.54691"
   x2="859.17883"
   y1="292.54691"
   x1="124.62419"
   gradientTransform="matrix(1.3643308,0,0,-1.0764388,770.92094,603.29944)"
   gradientUnits="userSpaceOnUse"
   id="linearGradient3708"
   xlink:href="#linearGradient5931"
   inkscape:collect="always" />
<linearGradient
   y2="292.54691"
   x2="859.17883"
   y1="292.54691"
   x1="124.62419"
   gradientTransform="matrix(1.3643308,0,0,1.0764388,770.92094,-31.296077)"
   gradientUnits="userSpaceOnUse"
   id="linearGradient5956"
   xlink:href="#linearGradient5931"
   inkscape:collect="always" />
<linearGradient
   y2="292.54691"
   x2="859.17291"
   y1="292.54691"
   x1="124.62419"
   gradientTransform="matrix(1.3643308,0,0,-1.0764388,768.95265,941.07505)"
   gradientUnits="userSpaceOnUse"
   id="linearGradient5953"
   xlink:href="#linearGradient5931"
   inkscape:collect="always" />
<linearGradient
   gradientTransform="matrix(1.3643308,0,0,1.0764388,768.95265,309.05794)"
   y2="292.54691"
   x2="859.17291"
   y1="292.54691"
   x1="124.62419"
   gradientUnits="userSpaceOnUse"
   id="linearGradient5525"
   xlink:href="#linearGradient5931"
   inkscape:collect="always" />

			
		<linearGradient
   y2="292.54691"
   x2="859.17291"
   y1="292.54691"
   x1="124.9121"
   gradientUnits="userSpaceOnUse"
   id="linearGradient4654">
				<stop
   id="stop4656"
   style="stop-color:#BAFFFF"
   offset="0" />

				<stop
   id="stop4658"
   style="stop-color:#E6C4D6"
   offset="0.1648" />

				<stop
   id="stop4660"
   style="stop-color:#E6C7CD"
   offset="0.1919" />

				<stop
   id="stop4662"
   style="stop-color:#E6CFB5"
   offset="0.236" />

				<stop
   id="stop4664"
   style="stop-color:#E6DB8D"
   offset="0.2918" />

				<stop
   id="stop4666"
   style="stop-color:#E6EC56"
   offset="0.3562" />

				<stop
   id="stop4668"
   style="stop-color:#E6FF1C"
   offset="0.4176" />

				<stop
   id="stop4670"
   style="stop-color:#E63B63"
   offset="0.478" />

				<stop
   id="stop4672"
   style="stop-color:#E6C9BF"
   offset="0.989" />

			</linearGradient>

			
			<linearGradient
   y2="291.1055"
   x2="890.32031"
   y1="291.1055"
   x1="-8.9868002"
   gradientUnits="userSpaceOnUse"
   id="linearGradient4638">
				<stop
   id="stop4640"
   style="stop-color:#C4FFFF"
   offset="0" />

				<stop
   id="stop4642"
   style="stop-color:#C6FDFD"
   offset="0.064" />

				<stop
   id="stop4644"
   style="stop-color:#CCF5F5"
   offset="0.099" />

				<stop
   id="stop4646"
   style="stop-color:#D6E7E7"
   offset="0.1269" />

				<stop
   id="stop4648"
   style="stop-color:#E4D4D4"
   offset="0.1511" />

				<stop
   id="stop4650"
   style="stop-color:#E6D1D1"
   offset="0.1538" />

			</linearGradient>

		
	
			<clipPath
   id="clipPath4632">
			<rect
   id="use4634"
   x="14.317"
   y="112.158"
   width="822.54498"
   height="363.66599" />

		</clipPath>

		<defs
   id="defs4628">
			<rect
   id="rect4630"
   x="14.317"
   y="112.158"
   width="822.54498"
   height="363.66599" />

		</defs>

	
	
	
	
	
	
	
	

	
	
	
	
	
	
	
	
	
	
	
	
	
	

	

		<inkscape:perspective
   sodipodi:type="inkscape:persp3d"
   inkscape:vp_x="0 : 526.18109 : 1"
   inkscape:vp_y="0 : 1000 : 0"
   inkscape:vp_z="744.09448 : 526.18109 : 1"
   inkscape:persp3d-origin="372.04724 : 350.78739 : 1"
   id="perspective2979" />

	
	
	
	
	
	
	
	
	
	
	
	
	
	
	
	
	
	

		
		
		
		
		
		
		
		
		
		
		
		
		
		
		
		
		
		
		
		
		
		
		
	<inkscape:perspective
   id="perspective4412"
   inkscape:persp3d-origin="436 : 192.33333 : 1"
   inkscape:vp_z="872 : 288.5 : 1"
   inkscape:vp_y="0 : 1000 : 0"
   inkscape:vp_x="0 : 288.5 : 1"
   sodipodi:type="inkscape:persp3d" />
<linearGradient
   id="linearGradient5931"
   gradientUnits="userSpaceOnUse"
   x1="124.9121"
   y1="292.54691"
   x2="859.17291"
   y2="292.54691">
				<stop
   offset="0"
   style="stop-color:#BAFFFF"
   id="stop5933" />

				<stop
   offset="0.34721157"
   style="stop-color:#E6C4D6"
   id="stop5935" />

				<stop
   offset="0.37911189"
   style="stop-color:#E6C7CD"
   id="stop5937" />

				<stop
   offset="0.40881097"
   style="stop-color:#E6CFB5"
   id="stop5939" />

				<stop
   offset="0.43260893"
   style="stop-color:#E6DB8D"
   id="stop5941" />

				<stop
   offset="0.46500692"
   style="stop-color:#E6EC56"
   id="stop5943" />

				<stop
   offset="0.49600497"
   style="stop-color:#E6FF1C"
   id="stop5945" />

				<stop
   offset="0.65241104"
   style="stop-color:#E63B63"
   id="stop5947" />

				<stop
   offset="0.88819361"
   style="stop-color:#E6C9BF"
   id="stop5949" />

			</linearGradient>





<linearGradient
   inkscape:collect="always"
   xlink:href="#linearGradient5931"
   id="linearGradient6975"
   gradientUnits="userSpaceOnUse"
   gradientTransform="matrix(2.5614968,0,0,2.0209868,-877.51691,-84.054562)"
   x1="124.62419"
   y1="292.54691"
   x2="859.17883"
   y2="292.54691" />
</defs>
  <sodipodi:namedview
     id="base"
     pagecolor="#ffffff"
     bordercolor="#666666"
     borderopacity="1.0"
     inkscape:pageopacity="0.0"
     inkscape:pageshadow="2"
     inkscape:zoom="0.35"
     inkscape:cx="1361.3517"
     inkscape:cy="236.17082"
     inkscape:document-units="px"
     inkscape:current-layer="layer1"
     showgrid="false"
     inkscape:window-width="1280"
     inkscape:window-height="750"
     inkscape:window-x="-8"
     inkscape:window-y="-8" />
  <metadata
     id="metadata4245">
    <rdf:RDF>
      <cc:Work
         rdf:about="">
        <dc:format>image/svg+xml</dc:format>
        <dc:type
           rdf:resource="http://purl.org/dc/dcmitype/StillImage" />
      </cc:Work>
    </rdf:RDF>
  </metadata>
  <g
     inkscape:label="Calque 1"
     inkscape:groupmode="layer"
     id="layer1"
     transform="translate(635.32395,-82.980209)">
    <path
       sodipodi:nodetypes="ccsssscsccsssssssc"
       id="path4674"
       d="M 1323.2667,314.76068 C 1323.2667,314.76068 1188.4011,402.00459 1012.0753,402.00459 C 1012.0753,402.00459 698.44044,283.18026 669.90545,284.4864 C 669.45261,284.50712 669.039,284.58016 668.73203,284.66241 C 597.43567,303.76622 545.18949,331.63469 483.33139,341.92539 C 421.86643,352.15065 350.84455,344.85895 262.96277,344.85895 C 120.1517,344.85895 10.868583,304.50749 -125.73311,294.69517 C -125.73311,294.69517 -177.84675,293.66066 -296.34864,292.75902 C -391.07082,292.03831 -557.55236,186.03631 -557.55236,186.03631 C -557.55236,186.03631 -557.55236,837.28541 -557.55236,837.28541 C -557.55236,837.28541 -391.07082,731.28342 -296.34864,730.5627 C -177.84675,729.66106 -125.73311,728.62653 -125.73311,728.62655 C 10.868583,718.81423 120.1517,678.46275 262.96277,678.46277 C 350.84455,678.46277 421.86643,671.17103 483.33139,681.39633 C 545.18949,691.68703 597.43567,719.55548 668.73203,738.65931 C 669.039,738.74156 669.45261,738.81458 669.90545,738.83532 C 698.44044,740.14146 1012.0753,621.31711 1012.0753,621.31713 C 1188.4011,621.31713 1323.2667,708.56102 1323.2667,708.56104"
       style="fill:url(#linearGradient6975);stroke:none" />
    <path
       sodipodi:nodetypes="ccccccccc"
       d="M -531.91118,499.13803 L -531.91118,524.65995 L -428.53151,524.65995 L -428.53151,499.13803 L -531.91118,499.13803 z M -428.53151,479.08021 C -428.53151,479.08021 -332.88318,511.89776 -332.88318,511.89776 C -332.88318,511.89776 -428.53151,544.71529 -428.53151,544.71529 C -428.53151,544.71529 -428.53151,479.08021 -428.53151,479.08021 z"
       style="opacity:0.3;fill:#000000;fill-opacity:1;fill-rule:nonzero;stroke:none;stroke-width:13.58339882;stroke-opacity:1"
       id="line4014" />
    <g
       transform="matrix(1.8774749,0,0,1.8774749,-2327.9111,-27.062811)"
       id="g3713">
      <g
         id="g3700">
        <path
           sodipodi:nodetypes="ccccc"
           id="rect2917"
           d="M 1378.8712,259.37481 L 1507.833,253.63195 L 1507.833,320.24915 L 1378.8712,314.50629 L 1378.8712,259.37481 z"
           style="fill:#333333;fill-opacity:1;fill-rule:evenodd;stroke:none;stroke-width:15;stroke-linecap:square;stroke-linejoin:round;stroke-miterlimit:4;stroke-dashoffset:0;stroke-opacity:1" />
        <g
           transform="matrix(1.0355933,0,0,1,-49.142826,-5.6664968e-2)"
           id="g3694">
          <path
             style="fill:#999999;fill-opacity:1;fill-rule:evenodd;stroke:#000000;stroke-width:1.04679406;stroke-linecap:butt;stroke-linejoin:miter;stroke-miterlimit:4;stroke-dasharray:none;stroke-opacity:1"
             d="M 1383.0931,256.49849 L 1450.8167,256.49849 C 1450.8167,256.49849 1500.9719,248.8477 1502.6721,247.43089 L 1503.5222,253.38151 C 1503.5222,253.38151 1464.1348,269.24981 1454.5004,269.53318 C 1444.8661,269.81654 1413.4129,269.53318 1413.4129,269.53318 C 1413.4129,269.53318 1385.6433,265.5661 1381.6762,263.2992 L 1383.0931,256.49849 z"
             id="path3690"
             sodipodi:nodetypes="ccscscsc" />
          <path
             sodipodi:nodetypes="ccscscsc"
             id="path3692"
             d="M 1383.0931,317.49593 L 1450.8167,317.49593 C 1450.8167,317.49593 1500.9719,325.14672 1502.6721,326.56353 L 1503.5222,320.61291 C 1503.5222,320.61291 1464.1348,304.74461 1454.5004,304.46124 C 1444.8661,304.17788 1413.4129,304.46124 1413.4129,304.46124 C 1413.4129,304.46124 1385.6433,308.42832 1381.6762,310.69522 L 1383.0931,317.49593 z"
             style="fill:#999999;fill-opacity:1;fill-rule:evenodd;stroke:#000000;stroke-width:1.04679406;stroke-linecap:butt;stroke-linejoin:miter;stroke-miterlimit:4;stroke-dasharray:none;stroke-opacity:1" />
        </g>
      </g>
      <path
         sodipodi:nodetypes="ccccc"
         id="path5909"
         d="M 1378.5289,259.92372 L 1153.7164,245.66484 L 1153.7164,328.21625 L 1378.5289,313.95738 L 1378.5289,259.92372 z"
         style="fill:#6c8940;fill-opacity:1;fill-rule:evenodd;stroke:#000000;stroke-width:1.06526053;stroke-linecap:square;stroke-linejoin:round;stroke-miterlimit:4;stroke-dashoffset:0;stroke-opacity:1" />
      <path
         style="fill:#6c8940;fill-opacity:1;fill-rule:evenodd;stroke:#000000;stroke-width:1.06526053;stroke-linecap:square;stroke-linejoin:round;stroke-miterlimit:4;stroke-dashoffset:0;stroke-opacity:1"
         d="M 1515.9814,253.07844 L 1604.5439,247.86888 L 1604.5439,326.01222 L 1515.9814,320.80266 L 1515.9814,253.07844 z"
         id="rect5906"
         sodipodi:nodetypes="ccccc" />
      <rect
         style="opacity:1;fill:#6c8940;fill-opacity:1;fill-rule:evenodd;stroke:#000000;stroke-width:1.06526053;stroke-linecap:square;stroke-linejoin:round;stroke-miterlimit:4;stroke-dasharray:none;stroke-dashoffset:0;stroke-opacity:1"
         id="rect3698"
         width="125.83088"
         height="21.639706"
         x="1380.1323"
         y="276.1207" />
      <g
         id="g5530">
        <path
           sodipodi:nodetypes="cccccccccsccc"
           id="Bottom_Wall_1_"
           d="M 1167.2742,167.21123 C 1136.6581,165.79423 1085.6042,172.97323 1166.6072,173.54423 C 1197.4402,180.54423 1257.4896,183.85205 1257.4896,183.85205 L 1381.7712,201.24047 L 1499.8368,205.80741 C 1499.8368,205.80741 1563.4699,170.13129 1594.4986,168.26417 C 1624.9784,169.00032 1754.19,219.48488 1773.464,231.59788 L 1775.7675,225.75488 C 1775.7675,225.75488 1634.8035,156.34203 1596.2842,156.34203 C 1574.1616,156.34203 1544.6054,165.83584 1496.7589,191.85505 C 1496.7589,191.85505 1388.356,189.39205 1388.356,189.39205 L 1257.2426,175.36705 C 1257.2426,175.36705 1179.8582,168.62823 1167.2742,167.21123 z"
           style="fill:#cccccc;stroke:#000000;stroke-width:1.07277071" />
        <path
           style="fill:#cccccc;stroke:#000000;stroke-width:1.07277071"
           d="M 1167.2742,406.66986 C 1136.6581,408.08686 1085.6042,400.90786 1166.6072,400.33686 C 1197.4402,393.33686 1257.4896,390.02904 1257.4896,390.02904 L 1381.7712,372.64062 L 1499.8368,368.07368 C 1499.8368,368.07368 1563.4699,403.7498 1594.4986,405.61692 C 1624.9784,404.88077 1754.19,354.39621 1773.464,342.28321 L 1775.7675,348.12621 C 1775.7675,348.12621 1634.8035,417.53906 1596.2842,417.53906 C 1574.1616,417.53906 1544.6054,408.04525 1496.7589,382.02604 C 1496.7589,382.02604 1388.356,384.48904 1388.356,384.48904 L 1257.2426,398.51404 C 1257.2426,398.51404 1179.8582,405.25286 1167.2742,406.66986 z"
           id="path2997"
           sodipodi:nodetypes="cccccccccsccc" />
      </g>
      <path
         style="fill:#999999;fill-opacity:1;stroke:#000000;stroke-width:0.92235583"
         d="M 1754.0162,286.95617 C 1754.0162,286.95617 1754.0162,286.92492 1754.0162,286.92492 C 1682.9222,245.87878 1601.3287,246.89368 1601.3287,246.89367 C 1601.3287,246.89366 1601.3287,326.98741 1601.3287,326.98742 C 1601.3287,326.98743 1682.9222,328.00231 1754.0162,286.95617 z"
         id="path2999"
         sodipodi:nodetypes="ccccc" />
      <path
         style="fill:#999999;fill-opacity:1;stroke:#000000;stroke-width:0.92235583"
         d="M 1075.7418,286.7472 C 1075.7418,286.7472 1075.7418,287.15345 1075.7418,287.15345 C 1076.1145,297.79903 1090.9568,314.84316 1116.3981,322.9972 C 1145.0397,332.17704 1157.0855,329.18469 1157.0855,329.1847 C 1157.0855,329.18471 1157.0855,244.71595 1157.0855,244.71595 C 1157.0855,244.71595 1154.7938,244.12403 1149.8043,244.2472 C 1143.3892,244.40557 1132.509,245.70854 1116.3981,250.8722 C 1090.9469,259.02943 1076.1034,276.10247 1075.7418,286.7472 z"
         id="path3009"
         sodipodi:nodetypes="ccscccss" />
      <g
         id="g5534"
         transform="translate(0,0.9510038)">
        <g
           transform="matrix(1,0,0,0.6870432,1054.1686,86.865494)"
           id="g3210">
		<g
   id="g3212">
			<polygon
   style="fill:#b6c4a0;stroke:#000000;stroke-width:1.1127727"
   id="polygon3214"
   points="123.375,184.315 100.863,184.315 99.131,135.249 126.262,139.866 123.375,184.315 " />

			<polygon
   style="fill:#a3b588;stroke:#000000;stroke-width:1.1127727"
   id="polygon3216"
   points="123.375,216.352 102.017,220.682 99.13,182.583 126.839,179.696 123.375,216.352 " />

			<polygon
   style="fill:#91a770;stroke:#000000;stroke-width:0.9970423"
   id="polygon3218"
   points="123.375,246.067 102.017,249.543 99.13,218.958 126.839,216.64 123.375,246.067 " />

			<polygon
   style="fill:#7e9858;stroke:#000000;stroke-width:0.90682274"
   id="polygon3220"
   points="122.798,267.881 102.595,276.097 98.553,245.457 126.262,243.54 122.798,267.881 " />

			<polygon
   style="fill:#6c8940;stroke:#000000;stroke-width:0.79359835"
   id="polygon3222"
   points="122.798,285.39 102.595,291.683 98.553,268.214 126.262,266.746 122.798,285.39 " />

		</g>

		<g
   id="g3224">
			<polygon
   style="fill:#2e3b1b;stroke:#000000;stroke-width:1.1127727"
   id="polygon3226"
   points="102.017,396.164 124.529,396.164 126.261,445.231 99.13,440.615 102.017,396.164 " />

			<polygon
   style="fill:#3e4e25;stroke:#000000;stroke-width:1.1127727"
   id="polygon3228"
   points="102.017,364.127 123.375,359.798 126.262,397.896 98.553,400.785 102.017,364.127 " />

			<polygon
   style="fill:#4d622e;stroke:#000000;stroke-width:0.9970423"
   id="polygon3230"
   points="102.017,334.413 123.375,330.937 126.262,361.522 98.553,363.84 102.017,334.413 " />

			<polygon
   style="fill:#5d7537;stroke:#000000;stroke-width:0.90682274"
   id="polygon3232"
   points="102.594,312.6 122.797,304.382 126.839,335.022 99.13,336.94 102.594,312.6 " />

			<polygon
   style="fill:#6c8940;stroke:#000000;stroke-width:0.79359835"
   id="polygon3234"
   points="102.594,295.091 122.797,288.796 126.839,312.267 99.13,313.734 102.594,295.091 " />

		</g>

		<polygon
   style="fill:#1f2712;stroke:#000000;stroke-width:1.1127727"
   id="polygon3236"
   points="102.595,291.683 122.798,285.39 124.53,290.528 101.439,296.878 102.595,291.683 " />

	</g>
        <g
           id="g3238"
           transform="matrix(1,0,0,0.4982696,1256.4892,141.65514)">
		<g
   id="g3240">
			<polygon
   points="123.375,184.315 100.863,184.315 99.131,135.249 126.262,139.866 123.375,184.315 "
   id="polygon3242"
   style="fill:#b6c4a0;stroke:#000000;stroke-width:1.30667114" />

			<polygon
   points="123.375,216.352 102.017,220.682 99.13,182.583 126.839,179.696 123.375,216.352 "
   id="polygon3244"
   style="fill:#a3b588;stroke:#000000;stroke-width:1.30667114" />

			<polygon
   points="123.375,246.067 102.017,249.543 99.13,218.958 126.839,216.64 123.375,246.067 "
   id="polygon3246"
   style="fill:#91a770;stroke:#000000;stroke-width:1.17077494" />

			<polygon
   points="122.798,267.881 102.595,276.097 98.553,245.457 126.262,243.54 122.798,267.881 "
   id="polygon3248"
   style="fill:#7e9858;stroke:#000000;stroke-width:1.06483483" />

			<polygon
   points="122.798,285.39 102.595,291.683 98.553,268.214 126.262,266.746 122.798,285.39 "
   id="polygon3250"
   style="fill:#6c8940;stroke:#000000;stroke-width:0.93188137" />

		</g>

		<g
   id="g3252">
			<polygon
   points="102.017,396.164 124.529,396.164 126.261,445.231 99.13,440.615 102.017,396.164 "
   id="polygon3254"
   style="fill:#2e3b1b;stroke:#000000;stroke-width:1.30667114" />

			<polygon
   points="102.017,364.127 123.375,359.798 126.262,397.896 98.553,400.785 102.017,364.127 "
   id="polygon3256"
   style="fill:#3e4e25;stroke:#000000;stroke-width:1.30667114" />

			<polygon
   points="102.017,334.413 123.375,330.937 126.262,361.522 98.553,363.84 102.017,334.413 "
   id="polygon3258"
   style="fill:#4d622e;stroke:#000000;stroke-width:1.17077494" />

			<polygon
   points="102.594,312.6 122.797,304.382 126.839,335.022 99.13,336.94 102.594,312.6 "
   id="polygon3260"
   style="fill:#5d7537;stroke:#000000;stroke-width:1.06483483" />

			<polygon
   points="102.594,295.091 122.797,288.796 126.839,312.267 99.13,313.734 102.594,295.091 "
   id="polygon3262"
   style="fill:#6c8940;stroke:#000000;stroke-width:0.93188137" />

		</g>

		<polygon
   points="102.595,291.683 122.798,285.39 124.53,290.528 101.439,296.878 102.595,291.683 "
   id="polygon3264"
   style="fill:#1f2712;stroke:#000000;stroke-width:1.30667114" />

	</g>
        <g
           transform="matrix(1,0,0,0.5326213,1222.7691,131.68491)"
           id="g4372">
		<g
   id="g4374">
			<polygon
   style="fill:#b6c4a0;stroke:#000000;stroke-width:1.26383173"
   id="polygon4376"
   points="123.375,184.315 100.863,184.315 99.131,135.249 126.262,139.866 123.375,184.315 " />

			<polygon
   style="fill:#a3b588;stroke:#000000;stroke-width:1.26383173"
   id="polygon4378"
   points="123.375,216.352 102.017,220.682 99.13,182.583 126.839,179.696 123.375,216.352 " />

			<polygon
   style="fill:#91a770;stroke:#000000;stroke-width:1.13239086"
   id="polygon4380"
   points="123.375,246.067 102.017,249.543 99.13,218.958 126.839,216.64 123.375,246.067 " />

			<polygon
   style="fill:#7e9858;stroke:#000000;stroke-width:1.02992404"
   id="polygon4382"
   points="122.798,267.881 102.595,276.097 98.553,245.457 126.262,243.54 122.798,267.881 " />

			<polygon
   style="fill:#6c8940;stroke:#000000;stroke-width:0.90132946"
   id="polygon4384"
   points="122.798,285.39 102.595,291.683 98.553,268.214 126.262,266.746 122.798,285.39 " />

		</g>

		<g
   id="g4386">
			<polygon
   style="fill:#2e3b1b;stroke:#000000;stroke-width:1.26383173"
   id="polygon4388"
   points="102.017,396.164 124.529,396.164 126.261,445.231 99.13,440.615 102.017,396.164 " />

			<polygon
   style="fill:#3e4e25;stroke:#000000;stroke-width:1.26383173"
   id="polygon4390"
   points="102.017,364.127 123.375,359.798 126.262,397.896 98.553,400.785 102.017,364.127 " />

			<polygon
   style="fill:#4d622e;stroke:#000000;stroke-width:1.13239086"
   id="polygon4392"
   points="102.017,334.413 123.375,330.937 126.262,361.522 98.553,363.84 102.017,334.413 " />

			<polygon
   style="fill:#5d7537;stroke:#000000;stroke-width:1.02992404"
   id="polygon4394"
   points="102.594,312.6 122.797,304.382 126.839,335.022 99.13,336.94 102.594,312.6 " />

			<polygon
   style="fill:#6c8940;stroke:#000000;stroke-width:0.90132946"
   id="polygon4396"
   points="102.594,295.091 122.797,288.796 126.839,312.267 99.13,313.734 102.594,295.091 " />

		</g>

		<polygon
   style="fill:#1f2712;stroke:#000000;stroke-width:1.26383173"
   id="polygon4398"
   points="102.595,291.683 122.798,285.39 124.53,290.528 101.439,296.878 102.595,291.683 " />

	</g>
        <g
           id="g4400"
           transform="matrix(1,0,0,0.5651883,1189.049,122.23266)">
		<g
   id="g4402">
			<polygon
   points="123.375,184.315 100.863,184.315 99.131,135.249 126.262,139.866 123.375,184.315 "
   id="polygon4404"
   style="fill:#b6c4a0;stroke:#000000;stroke-width:1.2268796" />

			<polygon
   points="123.375,216.352 102.017,220.682 99.13,182.583 126.839,179.696 123.375,216.352 "
   id="polygon4406"
   style="fill:#a3b588;stroke:#000000;stroke-width:1.2268796" />

			<polygon
   points="123.375,246.067 102.017,249.543 99.13,218.958 126.839,216.64 123.375,246.067 "
   id="polygon4408"
   style="fill:#91a770;stroke:#000000;stroke-width:1.09928179" />

			<polygon
   points="122.798,267.881 102.595,276.097 98.553,245.457 126.262,243.54 122.798,267.881 "
   id="polygon4410"
   style="fill:#7e9858;stroke:#000000;stroke-width:0.99981099" />

			<polygon
   points="122.798,285.39 102.595,291.683 98.553,268.214 126.262,266.746 122.798,285.39 "
   id="polygon4412"
   style="fill:#6c8940;stroke:#000000;stroke-width:0.87497628" />

		</g>

		<g
   id="g4414">
			<polygon
   points="102.017,396.164 124.529,396.164 126.261,445.231 99.13,440.615 102.017,396.164 "
   id="polygon4416"
   style="fill:#2e3b1b;stroke:#000000;stroke-width:1.2268796" />

			<polygon
   points="102.017,364.127 123.375,359.798 126.262,397.896 98.553,400.785 102.017,364.127 "
   id="polygon4418"
   style="fill:#3e4e25;stroke:#000000;stroke-width:1.2268796" />

			<polygon
   points="102.017,334.413 123.375,330.937 126.262,361.522 98.553,363.84 102.017,334.413 "
   id="polygon4420"
   style="fill:#4d622e;stroke:#000000;stroke-width:1.09928179" />

			<polygon
   points="102.594,312.6 122.797,304.382 126.839,335.022 99.13,336.94 102.594,312.6 "
   id="polygon4422"
   style="fill:#5d7537;stroke:#000000;stroke-width:0.99981099" />

			<polygon
   points="102.594,295.091 122.797,288.796 126.839,312.267 99.13,313.734 102.594,295.091 "
   id="polygon4424"
   style="fill:#6c8940;stroke:#000000;stroke-width:0.87497628" />

		</g>

		<polygon
   points="102.595,291.683 122.798,285.39 124.53,290.528 101.439,296.878 102.595,291.683 "
   id="polygon4426"
   style="fill:#1f2712;stroke:#000000;stroke-width:1.2268796" />

	</g>
        <g
           transform="matrix(1,0,0,0.5995851,1155.3289,112.24933)"
           id="g4428">
		<g
   id="g4430">
			<polygon
   style="fill:#b6c4a0;stroke:#000000;stroke-width:1.19116819"
   id="polygon4432"
   points="123.375,184.315 100.863,184.315 99.131,135.249 126.262,139.866 123.375,184.315 " />

			<polygon
   style="fill:#a3b588;stroke:#000000;stroke-width:1.19116819"
   id="polygon4434"
   points="123.375,216.352 102.017,220.682 99.13,182.583 126.839,179.696 123.375,216.352 " />

			<polygon
   style="fill:#91a770;stroke:#000000;stroke-width:1.06728458"
   id="polygon4436"
   points="123.375,246.067 102.017,249.543 99.13,218.958 126.839,216.64 123.375,246.067 " />

			<polygon
   style="fill:#7e9858;stroke:#000000;stroke-width:0.97070903"
   id="polygon4438"
   points="122.798,267.881 102.595,276.097 98.553,245.457 126.262,243.54 122.798,267.881 " />

			<polygon
   style="fill:#6c8940;stroke:#000000;stroke-width:0.84950793"
   id="polygon4440"
   points="122.798,285.39 102.595,291.683 98.553,268.214 126.262,266.746 122.798,285.39 " />

		</g>

		<g
   id="g4442">
			<polygon
   style="fill:#2e3b1b;stroke:#000000;stroke-width:1.19116819"
   id="polygon4444"
   points="102.017,396.164 124.529,396.164 126.261,445.231 99.13,440.615 102.017,396.164 " />

			<polygon
   style="fill:#3e4e25;stroke:#000000;stroke-width:1.19116819"
   id="polygon4446"
   points="102.017,364.127 123.375,359.798 126.262,397.896 98.553,400.785 102.017,364.127 " />

			<polygon
   style="fill:#4d622e;stroke:#000000;stroke-width:1.06728458"
   id="polygon4448"
   points="102.017,334.413 123.375,330.937 126.262,361.522 98.553,363.84 102.017,334.413 " />

			<polygon
   style="fill:#5d7537;stroke:#000000;stroke-width:0.97070903"
   id="polygon4450"
   points="102.594,312.6 122.797,304.382 126.839,335.022 99.13,336.94 102.594,312.6 " />

			<polygon
   style="fill:#6c8940;stroke:#000000;stroke-width:0.84950793"
   id="polygon4452"
   points="102.594,295.091 122.797,288.796 126.839,312.267 99.13,313.734 102.594,295.091 " />

		</g>

		<polygon
   style="fill:#1f2712;stroke:#000000;stroke-width:1.19116819"
   id="polygon4454"
   points="102.595,291.683 122.798,285.39 124.53,290.528 101.439,296.878 102.595,291.683 " />

	</g>
        <g
           id="g4456"
           transform="matrix(1,0,0,0.6321899,1121.6088,102.78612)">
		<g
   id="g4458">
			<polygon
   points="123.375,184.315 100.863,184.315 99.131,135.249 126.262,139.866 123.375,184.315 "
   id="polygon4460"
   style="fill:#b6c4a0;stroke:#000000;stroke-width:1.16004479" />

			<polygon
   points="123.375,216.352 102.017,220.682 99.13,182.583 126.839,179.696 123.375,216.352 "
   id="polygon4462"
   style="fill:#a3b588;stroke:#000000;stroke-width:1.16004479" />

			<polygon
   points="123.375,246.067 102.017,249.543 99.13,218.958 126.839,216.64 123.375,246.067 "
   id="polygon4464"
   style="fill:#91a770;stroke:#000000;stroke-width:1.03939795" />

			<polygon
   points="122.798,267.881 102.595,276.097 98.553,245.457 126.262,243.54 122.798,267.881 "
   id="polygon4466"
   style="fill:#7e9858;stroke:#000000;stroke-width:0.94534588" />

			<polygon
   points="122.798,285.39 102.595,291.683 98.553,268.214 126.262,266.746 122.798,285.39 "
   id="polygon4468"
   style="fill:#6c8940;stroke:#000000;stroke-width:0.82731152" />

		</g>

		<g
   id="g4470">
			<polygon
   points="102.017,396.164 124.529,396.164 126.261,445.231 99.13,440.615 102.017,396.164 "
   id="polygon4472"
   style="fill:#2e3b1b;stroke:#000000;stroke-width:1.16004479" />

			<polygon
   points="102.017,364.127 123.375,359.798 126.262,397.896 98.553,400.785 102.017,364.127 "
   id="polygon4474"
   style="fill:#3e4e25;stroke:#000000;stroke-width:1.16004479" />

			<polygon
   points="102.017,334.413 123.375,330.937 126.262,361.522 98.553,363.84 102.017,334.413 "
   id="polygon4476"
   style="fill:#4d622e;stroke:#000000;stroke-width:1.03939795" />

			<polygon
   points="102.594,312.6 122.797,304.382 126.839,335.022 99.13,336.94 102.594,312.6 "
   id="polygon4478"
   style="fill:#5d7537;stroke:#000000;stroke-width:0.94534588" />

			<polygon
   points="102.594,295.091 122.797,288.796 126.839,312.267 99.13,313.734 102.594,295.091 "
   id="polygon4480"
   style="fill:#6c8940;stroke:#000000;stroke-width:0.82731152" />

		</g>

		<polygon
   points="102.595,291.683 122.798,285.39 124.53,290.528 101.439,296.878 102.595,291.683 "
   id="polygon4482"
   style="fill:#1f2712;stroke:#000000;stroke-width:1.16004479" />

	</g>
        <g
           transform="matrix(1,0,0,0.6575612,1087.8887,95.42235)"
           id="g4484">
		<g
   id="g4486">
			<polygon
   style="fill:#b6c4a0;stroke:#000000;stroke-width:1.13744509"
   id="polygon4488"
   points="123.375,184.315 100.863,184.315 99.131,135.249 126.262,139.866 123.375,184.315 " />

			<polygon
   style="fill:#a3b588;stroke:#000000;stroke-width:1.13744509"
   id="polygon4490"
   points="123.375,216.352 102.017,220.682 99.13,182.583 126.839,179.696 123.375,216.352 " />

			<polygon
   style="fill:#91a770;stroke:#000000;stroke-width:1.01914871"
   id="polygon4492"
   points="123.375,246.067 102.017,249.543 99.13,218.958 126.839,216.64 123.375,246.067 " />

			<polygon
   style="fill:#7e9858;stroke:#000000;stroke-width:0.92692882"
   id="polygon4494"
   points="122.798,267.881 102.595,276.097 98.553,245.457 126.262,243.54 122.798,267.881 " />

			<polygon
   style="fill:#6c8940;stroke:#000000;stroke-width:0.811194"
   id="polygon4496"
   points="122.798,285.39 102.595,291.683 98.553,268.214 126.262,266.746 122.798,285.39 " />

		</g>

		<g
   id="g4498">
			<polygon
   style="fill:#2e3b1b;stroke:#000000;stroke-width:1.13744509"
   id="polygon4500"
   points="102.017,396.164 124.529,396.164 126.261,445.231 99.13,440.615 102.017,396.164 " />

			<polygon
   style="fill:#3e4e25;stroke:#000000;stroke-width:1.13744509"
   id="polygon4502"
   points="102.017,364.127 123.375,359.798 126.262,397.896 98.553,400.785 102.017,364.127 " />

			<polygon
   style="fill:#4d622e;stroke:#000000;stroke-width:1.01914871"
   id="polygon4504"
   points="102.017,334.413 123.375,330.937 126.262,361.522 98.553,363.84 102.017,334.413 " />

			<polygon
   style="fill:#5d7537;stroke:#000000;stroke-width:0.92692882"
   id="polygon4506"
   points="102.594,312.6 122.797,304.382 126.839,335.022 99.13,336.94 102.594,312.6 " />

			<polygon
   style="fill:#6c8940;stroke:#000000;stroke-width:0.811194"
   id="polygon4508"
   points="102.594,295.091 122.797,288.796 126.839,312.267 99.13,313.734 102.594,295.091 " />

		</g>

		<polygon
   style="fill:#1f2712;stroke:#000000;stroke-width:1.13744509"
   id="polygon4510"
   points="102.595,291.683 122.798,285.39 124.53,290.528 101.439,296.878 102.595,291.683 " />

	</g>
        <g
           transform="matrix(1.2027205,0,0,1.033177,944.72285,-13.879751)"
           id="g4512">
		<g
   id="g4514">
			<polygon
   style="fill:#b6c4a0;stroke:#000000;stroke-width:0.4580296"
   id="polygon4516"
   points="489.822,232.197 502.411,232.197 503.379,205.31 488.209,207.841 489.822,232.197 " />

			<polygon
   style="fill:#a3b588;stroke:#000000;stroke-width:0.4580296"
   id="polygon4518"
   points="489.822,249.752 501.766,252.124 503.38,231.248 487.886,229.666 489.822,249.752 " />

			<polygon
   style="fill:#91a770;stroke:#000000;stroke-width:0.4103919"
   id="polygon4520"
   points="489.822,266.035 501.766,267.94 503.38,251.179 487.886,249.91 489.822,266.035 " />

			<polygon
   style="fill:#7e9858;stroke:#000000;stroke-width:0.37321815"
   id="polygon4522"
   points="490.147,277.988 501.44,282.491 503.701,265.7 488.209,264.65 490.147,277.988 " />

			<polygon
   style="fill:#6c8940;stroke:#000000;stroke-width:0.32663161"
   id="polygon4524"
   points="490.147,287.582 501.44,291.03 503.701,278.171 488.209,277.366 490.147,287.582 " />

		</g>

		<g
   id="g4526">
			<polygon
   style="fill:#2e3b1b;stroke:#000000;stroke-width:0.4580296"
   id="polygon4528"
   points="501.766,348.283 489.178,348.283 488.209,375.17 503.38,372.641 501.766,348.283 " />

			<polygon
   style="fill:#3e4e25;stroke:#000000;stroke-width:0.4580296"
   id="polygon4530"
   points="501.766,330.729 489.824,328.354 488.209,349.233 503.701,350.816 501.766,330.729 " />

			<polygon
   style="fill:#4d622e;stroke:#000000;stroke-width:0.4103919"
   id="polygon4532"
   points="501.766,314.446 489.824,312.54 488.209,329.3 503.701,330.571 501.766,314.446 " />

			<polygon
   style="fill:#5d7537;stroke:#000000;stroke-width:0.37321815"
   id="polygon4534"
   points="501.442,302.491 490.147,297.989 487.886,314.779 503.38,315.828 501.442,302.491 " />

			<polygon
   style="fill:#6c8940;stroke:#000000;stroke-width:0.32663161"
   id="polygon4536"
   points="501.442,292.897 490.147,289.449 487.886,302.311 503.38,303.113 501.442,292.897 " />

		</g>

		<polygon
   style="fill:#1f2712;stroke:#000000;stroke-width:0.4580296"
   id="polygon4538"
   points="501.44,291.03 490.147,287.582 489.178,290.399 502.088,293.878 501.44,291.03 " />

	</g>
        <g
           id="g4540"
           transform="matrix(1.2027205,0,0,1.1858188,972.11457,-58.182507)">
		<g
   id="g4542">
			<polygon
   points="489.822,232.197 502.411,232.197 503.379,205.31 488.209,207.841 489.822,232.197 "
   id="polygon4544"
   style="fill:#b6c4a0;stroke:#000000;stroke-width:0.42753509" />

			<polygon
   points="489.822,249.752 501.766,252.124 503.38,231.248 487.886,229.666 489.822,249.752 "
   id="polygon4546"
   style="fill:#a3b588;stroke:#000000;stroke-width:0.42753509" />

			<polygon
   points="489.822,266.035 501.766,267.94 503.38,251.179 487.886,249.91 489.822,266.035 "
   id="polygon4548"
   style="fill:#91a770;stroke:#000000;stroke-width:0.38306898" />

			<polygon
   points="490.147,277.988 501.44,282.491 503.701,265.7 488.209,264.65 490.147,277.988 "
   id="polygon4550"
   style="fill:#7e9858;stroke:#000000;stroke-width:0.34837016" />

			<polygon
   points="490.147,287.582 501.44,291.03 503.701,278.171 488.209,277.366 490.147,287.582 "
   id="polygon4552"
   style="fill:#6c8940;stroke:#000000;stroke-width:0.30488524" />

		</g>

		<g
   id="g4554">
			<polygon
   points="501.766,348.283 489.178,348.283 488.209,375.17 503.38,372.641 501.766,348.283 "
   id="polygon4556"
   style="fill:#2e3b1b;stroke:#000000;stroke-width:0.42753509" />

			<polygon
   points="501.766,330.729 489.824,328.354 488.209,349.233 503.701,350.816 501.766,330.729 "
   id="polygon4558"
   style="fill:#3e4e25;stroke:#000000;stroke-width:0.42753509" />

			<polygon
   points="501.766,314.446 489.824,312.54 488.209,329.3 503.701,330.571 501.766,314.446 "
   id="polygon4560"
   style="fill:#4d622e;stroke:#000000;stroke-width:0.38306898" />

			<polygon
   points="501.442,302.491 490.147,297.989 487.886,314.779 503.38,315.828 501.442,302.491 "
   id="polygon4562"
   style="fill:#5d7537;stroke:#000000;stroke-width:0.34837016" />

			<polygon
   points="501.442,292.897 490.147,289.449 487.886,302.311 503.38,303.113 501.442,292.897 "
   id="polygon4564"
   style="fill:#6c8940;stroke:#000000;stroke-width:0.30488524" />

		</g>

		<polygon
   points="501.44,291.03 490.147,287.582 489.178,290.399 502.088,293.878 501.44,291.03 "
   id="polygon4566"
   style="fill:#1f2712;stroke:#000000;stroke-width:0.42753509" />

	</g>
        <g
           transform="matrix(1.2027205,0,0,1.3352468,999.5063,-101.55249)"
           id="g4568">
		<g
   id="g4570">
			<polygon
   style="fill:#b6c4a0;stroke:#000000;stroke-width:0.40290269"
   id="polygon4572"
   points="489.822,232.197 502.411,232.197 503.379,205.31 488.209,207.841 489.822,232.197 " />

			<polygon
   style="fill:#a3b588;stroke:#000000;stroke-width:0.40290269"
   id="polygon4574"
   points="489.822,249.752 501.766,252.124 503.38,231.248 487.886,229.666 489.822,249.752 " />

			<polygon
   style="fill:#91a770;stroke:#000000;stroke-width:0.36099848"
   id="polygon4576"
   points="489.822,266.035 501.766,267.94 503.38,251.179 487.886,249.91 489.822,266.035 " />

			<polygon
   style="fill:#7e9858;stroke:#000000;stroke-width:0.32829884"
   id="polygon4578"
   points="490.147,277.988 501.44,282.491 503.701,265.7 488.209,264.65 490.147,277.988 " />

			<polygon
   style="fill:#6c8940;stroke:#000000;stroke-width:0.2873193"
   id="polygon4580"
   points="490.147,287.582 501.44,291.03 503.701,278.171 488.209,277.366 490.147,287.582 " />

		</g>

		<g
   id="g4582">
			<polygon
   style="fill:#2e3b1b;stroke:#000000;stroke-width:0.40290269"
   id="polygon4584"
   points="501.766,348.283 489.178,348.283 488.209,375.17 503.38,372.641 501.766,348.283 " />

			<polygon
   style="fill:#3e4e25;stroke:#000000;stroke-width:0.40290269"
   id="polygon4586"
   points="501.766,330.729 489.824,328.354 488.209,349.233 503.701,350.816 501.766,330.729 " />

			<polygon
   style="fill:#4d622e;stroke:#000000;stroke-width:0.36099848"
   id="polygon4588"
   points="501.766,314.446 489.824,312.54 488.209,329.3 503.701,330.571 501.766,314.446 " />

			<polygon
   style="fill:#5d7537;stroke:#000000;stroke-width:0.32829884"
   id="polygon4590"
   points="501.442,302.491 490.147,297.989 487.886,314.779 503.38,315.828 501.442,302.491 " />

			<polygon
   style="fill:#6c8940;stroke:#000000;stroke-width:0.2873193"
   id="polygon4592"
   points="501.442,292.897 490.147,289.449 487.886,302.311 503.38,303.113 501.442,292.897 " />

		</g>

		<polygon
   style="fill:#1f2712;stroke:#000000;stroke-width:0.40290269"
   id="polygon4594"
   points="501.44,291.03 490.147,287.582 489.178,290.399 502.088,293.878 501.44,291.03 " />

	</g>
        <g
           id="g4596"
           transform="matrix(1.2027205,0,0,0.8838535,917.33114,29.459901)">
		<g
   id="g4598">
			<polygon
   points="489.822,232.197 502.411,232.197 503.379,205.31 488.209,207.841 489.822,232.197 "
   id="polygon4600"
   style="fill:#b6c4a0;stroke:#000000;stroke-width:0.49521157" />

			<polygon
   points="489.822,249.752 501.766,252.124 503.38,231.248 487.886,229.666 489.822,249.752 "
   id="polygon4602"
   style="fill:#a3b588;stroke:#000000;stroke-width:0.49521157" />

			<polygon
   points="489.822,266.035 501.766,267.94 503.38,251.179 487.886,249.91 489.822,266.035 "
   id="polygon4604"
   style="fill:#91a770;stroke:#000000;stroke-width:0.44370672" />

			<polygon
   points="490.147,277.988 501.44,282.491 503.701,265.7 488.209,264.65 490.147,277.988 "
   id="polygon4606"
   style="fill:#7e9858;stroke:#000000;stroke-width:0.40351528" />

			<polygon
   points="490.147,287.582 501.44,291.03 503.701,278.171 488.209,277.366 490.147,287.582 "
   id="polygon4608"
   style="fill:#6c8940;stroke:#000000;stroke-width:0.35314691" />

		</g>

		<g
   id="g4610">
			<polygon
   points="501.766,348.283 489.178,348.283 488.209,375.17 503.38,372.641 501.766,348.283 "
   id="polygon4612"
   style="fill:#2e3b1b;stroke:#000000;stroke-width:0.49521157" />

			<polygon
   points="501.766,330.729 489.824,328.354 488.209,349.233 503.701,350.816 501.766,330.729 "
   id="polygon4614"
   style="fill:#3e4e25;stroke:#000000;stroke-width:0.49521157" />

			<polygon
   points="501.766,314.446 489.824,312.54 488.209,329.3 503.701,330.571 501.766,314.446 "
   id="polygon4616"
   style="fill:#4d622e;stroke:#000000;stroke-width:0.44370672" />

			<polygon
   points="501.442,302.491 490.147,297.989 487.886,314.779 503.38,315.828 501.442,302.491 "
   id="polygon4618"
   style="fill:#5d7537;stroke:#000000;stroke-width:0.40351528" />

			<polygon
   points="501.442,292.897 490.147,289.449 487.886,302.311 503.38,303.113 501.442,292.897 "
   id="polygon4620"
   style="fill:#6c8940;stroke:#000000;stroke-width:0.35314691" />

		</g>

		<polygon
   points="501.44,291.03 490.147,287.582 489.178,290.399 502.088,293.878 501.44,291.03 "
   id="polygon4622"
   style="fill:#1f2712;stroke:#000000;stroke-width:0.49521157" />

	</g>
      </g>
    </g>
    <path
       id="path3938"
       style="opacity:0.3;fill:#000000;fill-opacity:1;fill-rule:nonzero;stroke:none;stroke-width:13.58339882;stroke-opacity:1"
       d="M -532.92006,258.09496 L -541.50376,282.13013 L -444.14628,316.8995 L -435.56247,292.86435 L -532.92006,258.09496 z M -428.81651,273.97498 C -428.81651,273.97498 -349.77764,337.04989 -349.77764,337.04989 C -349.77764,337.04989 -450.89153,335.78652 -450.89153,335.78652 C -450.89153,335.78652 -428.81651,273.97498 -428.81651,273.97498 z"
       sodipodi:nodetypes="ccccccccc" />
    <path
       sodipodi:nodetypes="ccsccsccccc"
       d="M -367.08927,416.9354 L -370.18485,391.60192 C -370.18485,391.60192 -331.90201,393.7958 -315.68457,391.71631 C -300.88012,389.818 -267.56846,379.06256 -267.56846,379.06256 L -264.47269,404.39606 C -264.47269,404.39606 -297.78454,415.15148 -312.58899,417.04981 C -328.80624,419.1293 -367.08927,416.9354 -367.08927,416.9354 z M -262.03985,424.3058 C -262.03985,424.3058 -171.07826,380.12891 -171.07826,380.12891 C -171.07826,380.12891 -270.0011,359.15528 -270.0011,359.15528 C -270.0011,359.15528 -262.03985,424.3058 -262.03985,424.3058 z"
       style="opacity:0.3;fill:#000000;fill-opacity:1;fill-rule:nonzero;stroke:none;stroke-width:13.58339882;stroke-opacity:1"
       id="path3940" />
    <path
       id="path3942"
       style="opacity:0.3;fill:#000000;fill-opacity:1;fill-rule:nonzero;stroke:none;stroke-width:13.58339882;stroke-opacity:1"
       d="M 301.11062,433.95959 L 298.01504,408.62611 C 298.01504,408.62611 336.29788,410.81999 352.51532,408.7405 C 367.31977,406.84219 400.63143,396.08675 400.63143,396.08675 L 403.7272,421.42025 C 403.7272,421.42025 370.41535,432.17567 355.6109,434.074 C 339.39365,436.15349 301.11062,433.95959 301.11062,433.95959 z M 406.16003,441.32999 C 406.16003,441.32999 497.12163,397.1531 497.12163,397.1531 C 497.12163,397.1531 398.19879,376.17947 398.19879,376.17947 C 398.19879,376.17947 406.16003,441.32999 406.16003,441.32999 z"
       sodipodi:nodetypes="ccsccsccccc" />
    <path
       id="path3946"
       style="opacity:0.3;fill:#000000;fill-opacity:1;fill-rule:nonzero;stroke:none;stroke-width:13.58339882;stroke-opacity:1"
       d="M 698.64021,374.37742 L 698.64021,399.89934 C 698.64021,399.89934 740.32879,398.95523 757.58954,402.90882 C 794.27071,413.68091 854.7682,433.013 890.67379,445.29974 C 907.00425,448.91112 916.38036,448.05105 916.38036,448.05105 L 916.38036,422.52913 C 916.38036,422.52913 907.00425,423.3892 890.67379,419.77782 C 855.30648,405.96047 793.9812,388.95107 757.58954,377.3869 C 740.32879,373.43331 698.64021,374.37742 698.64021,374.37742 z M 916.38036,402.47131 C 916.38036,402.47131 1012.0287,435.28886 1012.0287,435.28886 C 1012.0287,435.28886 916.38036,468.10639 916.38036,468.10639 C 916.38036,468.10639 916.38036,402.47131 916.38036,402.47131 z"
       sodipodi:nodetypes="ccccccccccccc" />
    <path
       id="path3948"
       style="opacity:0.3;fill:#000000;fill-opacity:1;fill-rule:nonzero;stroke:none;stroke-width:13.58339882;stroke-opacity:1"
       d="M 1005.934,499.13803 L 1005.934,524.65995 L 1196.5886,524.65995 L 1196.5886,499.13803 L 1005.934,499.13803 z M 1196.5886,479.08021 C 1196.5886,479.08021 1292.2369,511.89776 1292.2369,511.89776 C 1292.2369,511.89776 1196.5886,544.71529 1196.5886,544.71529 C 1196.5886,544.71529 1196.5886,479.08021 1196.5886,479.08021 z"
       sodipodi:nodetypes="ccccccccc" />
    <path
       id="path3950"
       style="opacity:0.3;fill:#000000;fill-opacity:1;fill-rule:nonzero;stroke:none;stroke-width:13.58339882;stroke-opacity:1"
       d="M 1067.7169,432.03497 L 1074.3224,456.68725 C 1074.3224,456.68725 1114.3879,455.84761 1128.7338,452.00361 C 1151.5033,445.90255 1196.7506,426.92116 1196.7506,426.92116 L 1190.1451,402.26888 C 1190.1451,402.26888 1144.8978,421.25027 1122.1283,427.35133 C 1104.9498,431.9543 1067.7169,432.03497 1067.7169,432.03497 z M 1184.9537,382.89453 C 1184.9537,382.89453 1285.8366,389.83824 1285.8366,389.83824 C 1285.8366,389.83824 1201.9413,446.29314 1201.9413,446.29314 C 1201.9413,446.29314 1184.9537,382.89453 1184.9537,382.89453 z"
       sodipodi:nodetypes="ccsccsccccc" />
    <g
       transform="matrix(1.8774749,0,0,1.961692,-323.31162,-21.43181)"
       id="g4043">
		<g
   id="g4045">
			<line
   x1="351.19299"
   y1="122.549"
   x2="361.58301"
   y2="271.479"
   id="line4047"
   style="fill:none;stroke:#000000;stroke-width:1.04214346" />

			<polygon
   points="359.027,268.946 361.561,271.15 363.764,268.616 363.904,270.625 361.701,273.159 359.168,270.956 359.027,268.946 "
   id="polygon4049" />

		</g>

	</g>
    <path
       style="font-size:44.03313828px;font-style:normal;font-weight:normal;text-align:start;line-height:100%;writing-mode:lr-tb;text-anchor:start;fill:#000000;fill-opacity:1;stroke:none;stroke-width:1px;stroke-linecap:butt;stroke-linejoin:miter;stroke-opacity:1;font-family:Bitstream Vera Sans"
       d="M 282.26965,200.9625 L 286.20425,200.61849 C 286.39058,202.19521 286.82417,203.48883 287.50503,204.49934 C 288.18587,205.50988 289.24298,206.3269 290.67636,206.95041 C 292.10972,207.57393 293.72226,207.88568 295.51399,207.88568 C 297.10501,207.88568 298.50971,207.64918 299.7281,207.17616 C 300.94644,206.70315 301.85305,206.05456 302.44792,205.23036 C 303.04274,204.40618 303.34017,203.50674 303.34019,202.53204 C 303.34017,201.54303 303.05349,200.67942 302.48017,199.94123 C 301.9068,199.20305 300.96078,198.58312 299.6421,198.08143 C 298.79639,197.75177 296.92584,197.23934 294.03045,196.54414 C 291.13503,195.84897 289.10681,195.1932 287.94579,194.57684 C 286.44075,193.7885 285.31914,192.81023 284.58096,191.64201 C 283.84277,190.47383 283.47367,189.16589 283.47368,187.71816 C 283.47367,186.12714 283.92519,184.64002 284.82821,183.25679 C 285.73123,181.87362 287.04993,180.82368 288.78431,180.10696 C 290.51868,179.39031 292.44656,179.03197 294.56796,179.03194 C 296.90434,179.03197 298.96481,179.40823 300.74937,180.16071 C 302.5339,180.91326 303.90635,182.02054 304.86673,183.48255 C 305.82706,184.94461 306.34308,186.60016 306.41477,188.44918 L 302.41567,188.75019 C 302.20064,186.75783 301.47321,185.25279 300.23336,184.23507 C 298.99348,183.2174 297.16235,182.70856 294.73997,182.70853 C 292.21723,182.70856 290.37893,183.17082 289.22508,184.09532 C 288.07121,185.01987 287.49427,186.13431 287.49428,187.43865 C 287.49427,188.57104 287.90278,189.50273 288.71981,190.23372 C 289.52249,190.96476 291.61879,191.7137 295.00873,192.48053 C 298.39863,193.2474 300.72427,193.9175 301.98566,194.49083 C 303.82035,195.33654 305.17488,196.40798 306.04926,197.70517 C 306.92359,199.00238 307.36077,200.49667 307.3608,202.18803 C 307.36077,203.86508 306.88059,205.44537 305.92026,206.92891 C 304.95988,208.41245 303.58026,209.56631 301.7814,210.3905 C 299.9825,211.21468 297.95787,211.62678 295.70749,211.62678 C 292.85507,211.62678 290.46493,211.2111 288.53706,210.37975 C 286.60917,209.54839 285.09696,208.29778 284.00044,206.6279 C 282.90391,204.95803 282.32698,203.06956 282.26965,200.9625 L 282.26965,200.9625 z M 312.60693,211.08926 L 312.60693,179.56945 L 316.47703,179.56945 L 316.47703,190.87874 C 318.28307,188.78604 320.56213,187.73968 323.31421,187.73966 C 325.00557,187.73968 326.47477,188.07294 327.72182,188.73944 C 328.96883,189.40598 329.86111,190.32691 330.39864,191.50226 C 330.93613,192.67764 331.20489,194.38335 331.20491,196.61939 L 331.20491,211.08926 L 327.33481,211.08926 L 327.33481,196.61939 C 327.33479,194.68436 326.91553,193.27607 326.07703,192.39453 C 325.23849,191.51303 324.05238,191.07227 322.51869,191.07225 C 321.37198,191.07227 320.29337,191.36969 319.28285,191.96452 C 318.27232,192.55939 317.55205,193.36566 317.12205,194.38333 C 316.69203,195.40104 316.47702,196.80574 316.47703,198.59744 L 316.47703,211.08926 L 312.60693,211.08926 z M 352.01745,208.27269 C 350.58406,209.49106 349.20444,210.35108 347.87859,210.85276 C 346.55271,211.35444 345.13009,211.60528 343.61073,211.60528 C 341.10233,211.60528 339.17445,210.99251 337.82708,209.76698 C 336.47971,208.54145 335.80603,206.9755 335.80603,205.06911 C 335.80603,203.95109 336.06045,202.92981 336.5693,202.00528 C 337.07814,201.08077 337.74466,200.339 338.56885,199.77997 C 339.39303,199.22097 340.32114,198.79813 341.35317,198.51144 C 342.11285,198.31078 343.25955,198.11727 344.79326,197.93092 C 347.918,197.55826 350.21855,197.11392 351.69494,196.59789 C 351.70926,196.06756 351.71642,195.73072 351.71644,195.58736 C 351.71642,194.01067 351.35091,192.89981 350.61991,192.25478 C 349.63087,191.38044 348.16167,190.94326 346.2123,190.94324 C 344.39191,190.94326 343.04812,191.26219 342.18094,191.90002 C 341.31375,192.53789 340.67232,193.66666 340.25664,195.28636 L 336.47255,194.77034 C 336.81655,193.15065 337.38273,191.8427 338.17109,190.84649 C 338.95944,189.85032 340.09897,189.08347 341.58968,188.54593 C 343.08038,188.00844 344.80759,187.73968 346.77131,187.73966 C 348.72068,187.73968 350.30456,187.96902 351.52294,188.42768 C 352.74128,188.88638 353.63714,189.46331 354.21051,190.15847 C 354.78383,190.85368 355.18518,191.73162 355.41454,192.79229 C 355.54352,193.45166 355.60802,194.64136 355.60804,196.36138 L 355.60804,201.52152 C 355.60802,205.11928 355.69044,207.39476 355.8553,208.34794 C 356.02011,209.30114 356.34621,210.21491 356.83357,211.08926 L 352.79147,211.08926 C 352.39011,210.28658 352.1321,209.34772 352.01745,208.27269 L 352.01745,208.27269 z M 351.69494,199.62947 C 350.29022,200.20283 348.18317,200.69017 345.37378,201.09151 C 343.78273,201.32085 342.65753,201.57886 341.99819,201.86553 C 341.33883,202.15221 340.82999,202.57147 340.47165,203.12331 C 340.1133,203.67516 339.93413,204.28793 339.93414,204.96161 C 339.93413,205.99364 340.32472,206.85366 341.10592,207.54167 C 341.8871,208.22969 343.03021,208.5737 344.53526,208.5737 C 346.02595,208.5737 347.35182,208.24761 348.51286,207.59542 C 349.67387,206.94324 350.52673,206.05097 351.07142,204.9186 C 351.48708,204.04426 351.69492,202.75422 351.69494,201.0485 L 351.69494,199.62947 z M 362.55272,211.08926 L 362.55272,191.26575 L 359.13413,191.26575 L 359.13413,188.25567 L 362.55272,188.25567 L 362.55272,185.82611 C 362.55272,184.29243 362.68889,183.1529 362.96123,182.40752 C 363.33391,181.40419 363.98967,180.59076 364.92853,179.96721 C 365.86738,179.34373 367.1825,179.03197 368.87389,179.03194 C 369.96324,179.03197 371.16727,179.16097 372.48598,179.41895 L 371.90546,182.79453 C 371.10276,182.65122 370.34308,182.57956 369.62641,182.57953 C 368.45103,182.57956 367.61968,182.8304 367.13234,183.33205 C 366.64499,183.83375 366.40131,184.77261 366.40132,186.14862 L 366.40132,188.25567 L 370.85194,188.25567 L 370.85194,191.26575 L 366.40132,191.26575 L 366.40132,211.08926 L 362.55272,211.08926 z M 382.29023,207.62767 L 382.84924,211.04626 C 381.75987,211.2756 380.78518,211.39027 379.92517,211.39027 C 378.52046,211.39027 377.4311,211.1681 376.65708,210.72375 C 375.88306,210.27941 375.33838,209.69531 375.02304,208.97146 C 374.7077,208.24761 374.55002,206.72466 374.55003,204.40259 L 374.55003,191.26575 L 371.71195,191.26575 L 371.71195,188.25567 L 374.55003,188.25567 L 374.55003,182.60103 L 378.39863,180.27897 L 378.39863,188.25567 L 382.29023,188.25567 L 382.29023,191.26575 L 378.39863,191.26575 L 378.39863,204.6176 C 378.39862,205.7213 378.46671,206.43081 378.60288,206.74615 C 378.73905,207.0615 378.96122,207.31234 379.2694,207.49867 C 379.57757,207.68501 380.01833,207.77818 380.59168,207.77818 C 381.02169,207.77818 381.58787,207.72801 382.29023,207.62767 L 382.29023,207.62767 z"
       id="text4680" />
    <g
       transform="matrix(1.8774749,0,0,1.8774749,-421.20072,-28.667104)"
       id="g4075">
		<line
   style="fill:none;stroke:#000000;stroke-width:1.06526053"
   id="line4079"
   y2="341.90302"
   x2="392.056"
   y1="457.1803"
   x1="378.202" />
<polygon
   id="polygon4081"
   points="394.212,344.784 392.031,342.231 389.479,344.415 389.635,342.406 392.187,340.224 394.369,342.775 394.212,344.784 " />

	</g>
    <path
       style="font-size:44.03313828px;font-style:normal;font-weight:normal;text-align:start;line-height:100%;writing-mode:lr-tb;text-anchor:start;fill:#000000;fill-opacity:1;stroke:none;stroke-width:1px;stroke-linecap:butt;stroke-linejoin:miter;stroke-opacity:1;font-family:Bitstream Vera Sans"
       d="M 191.56958,856.70488 L 195.74068,857.75841 C 194.8663,861.18417 193.29318,863.79648 191.02131,865.59536 C 188.7494,867.39424 185.97224,868.29368 182.68985,868.29368 C 179.29275,868.29368 176.52993,867.60208 174.40138,866.21887 C 172.27282,864.83568 170.65311,862.83254 169.54226,860.20947 C 168.43139,857.58641 167.87596,854.76984 167.87596,851.75975 C 167.87596,848.47735 168.50306,845.6142 169.75726,843.17028 C 171.01146,840.72641 172.796,838.8702 175.1109,837.60164 C 177.42578,836.33313 179.9736,835.69887 182.75435,835.69884 C 185.90774,835.69887 188.55948,836.50155 190.70955,838.1069 C 192.85958,839.7123 194.35745,841.96986 195.20317,844.87957 L 191.09656,845.8471 C 190.36552,843.55373 189.30483,841.88385 187.91448,840.83747 C 186.52409,839.79114 184.77538,839.26796 182.66835,839.26793 C 180.24594,839.26796 178.2213,839.84847 176.59444,841.00947 C 174.96755,842.17053 173.82444,843.72932 173.1651,845.68584 C 172.50574,847.64241 172.17607,849.65988 172.17607,851.73825 C 172.17607,854.41867 172.56666,856.75864 173.34786,858.75818 C 174.12903,860.75774 175.34381,862.25203 176.9922,863.24105 C 178.64056,864.23008 180.42511,864.72459 182.34584,864.72459 C 184.68221,864.72459 186.66026,864.05091 188.27999,862.70353 C 189.89968,861.35617 190.9962,859.35662 191.56958,856.70488 L 191.56958,856.70488 z M 198.96577,856.33937 C 198.96577,852.11094 200.14113,848.97903 202.49186,846.94363 C 204.45557,845.25227 206.84929,844.40658 209.67304,844.40656 C 212.81211,844.40658 215.37784,845.43503 217.37024,847.49189 C 219.36261,849.5488 220.3588,852.39045 220.35882,856.01686 C 220.3588,858.95528 219.91804,861.26659 219.03654,862.95079 C 218.15499,864.635 216.87213,865.94295 215.18794,866.87464 C 213.50371,867.80633 211.66541,868.27218 209.67304,868.27218 C 206.47662,868.27218 203.89297,867.24732 201.92209,865.1976 C 199.95121,863.14788 198.96577,860.19514 198.96577,856.33937 L 198.96577,856.33937 z M 202.94337,856.33937 C 202.94336,859.26345 203.58121,861.45292 204.85692,862.90779 C 206.13261,864.36266 207.73798,865.0901 209.67304,865.0901 C 211.59375,865.0901 213.19195,864.35908 214.46767,862.89704 C 215.74335,861.43501 216.3812,859.20612 216.38122,856.21037 C 216.3812,853.38664 215.73977,851.24734 214.45692,849.79245 C 213.17403,848.3376 211.57941,847.61016 209.67304,847.61014 C 207.73798,847.61016 206.13261,848.33402 204.85692,849.7817 C 203.58121,851.22942 202.94336,853.41531 202.94337,856.33937 L 202.94337,856.33937 z M 224.91694,867.75616 L 224.91694,844.92257 L 228.37853,844.92257 L 228.37853,848.12616 C 229.0952,847.00815 230.0484,846.10871 231.2381,845.42784 C 232.42779,844.74701 233.78232,844.40658 235.30171,844.40656 C 236.99307,844.40658 238.37985,844.75776 239.46206,845.46009 C 240.54424,846.16246 241.30751,847.14432 241.75187,848.40566 C 243.5579,845.73962 245.90862,844.40658 248.80405,844.40656 C 251.06875,844.40658 252.81029,845.03368 254.02869,846.28786 C 255.24702,847.54208 255.8562,849.47354 255.85624,852.08226 L 255.85624,867.75616 L 252.00764,867.75616 L 252.00764,853.37229 C 252.00761,851.82427 251.88219,850.70982 251.63138,850.02896 C 251.38051,849.34812 250.92541,848.79986 250.26609,848.38416 C 249.60671,847.96851 248.8327,847.76067 247.94403,847.76065 C 246.33863,847.76067 245.0056,848.2946 243.94493,849.36244 C 242.88421,850.43032 242.35387,852.13961 242.35389,854.49032 L 242.35389,867.75616 L 238.48379,867.75616 L 238.48379,852.92078 C 238.48377,851.20075 238.16843,849.91072 237.53776,849.05068 C 236.90707,848.19068 235.87504,847.76067 234.44168,847.76065 C 233.35231,847.76067 232.34537,848.04734 231.42086,848.62067 C 230.49632,849.19404 229.82622,850.03256 229.41055,851.13623 C 228.99487,852.23995 228.78703,853.83099 228.78704,855.90936 L 228.78704,867.75616 L 224.91694,867.75616 z M 265.20898,867.75616 L 261.61839,867.75616 L 261.61839,836.23635 L 265.48849,836.23635 L 265.48849,847.48114 C 267.12252,845.43144 269.20807,844.40658 271.74515,844.40656 C 273.14984,844.40658 274.47929,844.68967 275.7335,845.25583 C 276.98768,845.82204 278.01971,846.61756 278.82958,847.64239 C 279.63942,848.66727 280.27368,849.90355 280.73238,851.35124 C 281.19104,852.79896 281.42038,854.347 281.4204,855.99536 C 281.42038,859.90847 280.45285,862.93288 278.51782,865.0686 C 276.58276,867.20432 274.2607,868.27218 271.55164,868.27218 C 268.8569,868.27218 266.74268,867.14698 265.20898,864.89659 L 265.20898,867.75616 z M 265.16598,856.16736 C 265.16597,858.90511 265.53865,860.88316 266.28401,862.10152 C 267.50236,864.09391 269.15074,865.0901 271.22914,865.0901 C 272.9205,865.0901 274.38253,864.3555 275.61525,862.88629 C 276.84793,861.41709 277.46428,859.22762 277.4643,856.31787 C 277.46428,853.33647 276.87301,851.13625 275.6905,849.7172 C 274.50795,848.29818 273.07817,847.58866 271.40114,847.58864 C 269.70975,847.58866 268.24772,848.32326 267.01503,849.79245 C 265.78232,851.26167 265.16597,853.38664 265.16598,856.16736 L 265.16598,856.16736 z M 301.11491,867.75616 L 301.11491,864.40208 C 299.33751,866.98215 296.92229,868.27218 293.86922,868.27218 C 292.52184,868.27218 291.26406,868.01417 290.09587,867.49816 C 288.92767,866.98215 288.06048,866.33355 287.49431,865.55236 C 286.92812,864.77117 286.53036,863.8144 286.30103,862.68203 C 286.14335,861.92235 286.06452,860.71832 286.06452,859.06994 L 286.06452,844.92257 L 289.93462,844.92257 L 289.93462,857.5864 C 289.93461,859.60746 290.01345,860.96916 290.17113,861.67151 C 290.41479,862.68921 290.93081,863.48831 291.71917,864.06882 C 292.50751,864.64934 293.4822,864.93959 294.64324,864.93959 C 295.80426,864.93959 296.89362,864.64217 297.91133,864.04732 C 298.929,863.45247 299.64927,862.64262 300.07213,861.61776 C 300.49496,860.5929 300.70638,859.10578 300.7064,857.15639 L 300.7064,844.92257 L 304.5765,844.92257 L 304.5765,867.75616 L 301.11491,867.75616 z M 309.11311,860.94049 L 312.94021,860.33847 C 313.15521,861.87218 313.75364,863.04755 314.73551,863.86456 C 315.71736,864.68159 317.08981,865.0901 318.85286,865.0901 C 320.63023,865.0901 321.94893,864.72817 322.80896,864.00432 C 323.66897,863.28047 324.09898,862.4312 324.099,861.4565 C 324.09898,860.58215 323.71914,859.89414 322.95947,859.39245 C 322.42911,859.04845 321.11041,858.61127 319.00337,858.08091 C 316.16528,857.36424 314.19799,856.74431 313.10146,856.22112 C 312.00493,855.69795 311.17358,854.9741 310.6074,854.04956 C 310.04122,853.12505 309.75813,852.10378 309.75813,850.98573 C 309.75813,849.96806 309.99105,849.02562 310.4569,848.15841 C 310.92274,847.29124 311.557,846.57097 312.35969,845.9976 C 312.9617,845.55328 313.78231,845.17702 314.82151,844.86882 C 315.86069,844.56067 316.97514,844.40658 318.16484,844.40656 C 319.95655,844.40658 321.52967,844.66459 322.88422,845.18058 C 324.23873,845.69662 325.23851,846.39538 325.88354,847.27689 C 326.52854,848.15843 326.97289,849.33737 327.21658,850.81373 L 323.43248,851.32974 C 323.26046,850.15439 322.76236,849.23704 321.93819,848.57767 C 321.11399,847.91834 319.94938,847.58866 318.44435,847.58864 C 316.66696,847.58866 315.39843,847.8825 314.63875,848.47017 C 313.87906,849.05787 313.49922,849.74588 313.49922,850.53422 C 313.49922,851.03592 313.65689,851.48743 313.97224,851.88875 C 314.28757,852.30445 314.78208,852.64846 315.45577,852.92078 C 315.84278,853.06413 316.9823,853.39381 318.87436,853.90981 C 321.61209,854.64084 323.52205,855.23927 324.60426,855.7051 C 325.68644,856.17096 326.53571,856.84823 327.15208,857.73691 C 327.76841,858.6256 328.07658,859.7293 328.0766,861.04799 C 328.07658,862.33803 327.70032,863.55281 326.94782,864.69234 C 326.19528,865.83187 325.10951,866.71339 323.69049,867.3369 C 322.27144,867.96042 320.66606,868.27218 318.87436,868.27218 C 315.90728,868.27218 313.64614,867.65583 312.09094,866.42313 C 310.53573,865.19043 309.54312,863.36289 309.11311,860.94049 L 309.11311,860.94049 z M 341.12744,864.29458 L 341.68645,867.71316 C 340.59708,867.9425 339.62239,868.05717 338.76238,868.05717 C 337.35767,868.05717 336.26831,867.835 335.49429,867.39066 C 334.72027,866.94631 334.17559,866.36221 333.86025,865.63836 C 333.54491,864.91451 333.38724,863.39156 333.38724,861.06949 L 333.38724,847.93265 L 330.54917,847.93265 L 330.54917,844.92257 L 333.38724,844.92257 L 333.38724,839.26793 L 337.23584,836.94587 L 337.23584,844.92257 L 341.12744,844.92257 L 341.12744,847.93265 L 337.23584,847.93265 L 337.23584,861.2845 C 337.23583,862.3882 337.30392,863.09772 337.44009,863.41305 C 337.57626,863.7284 337.79843,863.97924 338.10661,864.16557 C 338.41478,864.35191 338.85554,864.44508 339.4289,864.44508 C 339.8589,864.44508 340.42508,864.39491 341.12744,864.29458 L 341.12744,864.29458 z M 344.91153,840.68696 L 344.91153,836.23635 L 348.78163,836.23635 L 348.78163,840.68696 L 344.91153,840.68696 z M 344.91153,867.75616 L 344.91153,844.92257 L 348.78163,844.92257 L 348.78163,867.75616 L 344.91153,867.75616 z M 353.25376,856.33937 C 353.25375,852.11094 354.42912,848.97903 356.77985,846.94363 C 358.74356,845.25227 361.13728,844.40658 363.96103,844.40656 C 367.1001,844.40658 369.66583,845.43503 371.65823,847.49189 C 373.65059,849.5488 374.64679,852.39045 374.64681,856.01686 C 374.64679,858.95528 374.20602,861.26659 373.32452,862.95079 C 372.44298,864.635 371.16012,865.94295 369.47592,866.87464 C 367.7917,867.80633 365.9534,868.27218 363.96103,868.27218 C 360.76461,868.27218 358.18096,867.24732 356.21008,865.1976 C 354.2392,863.14788 353.25375,860.19514 353.25376,856.33937 L 353.25376,856.33937 z M 357.23136,856.33937 C 357.23135,859.26345 357.8692,861.45292 359.14491,862.90779 C 360.4206,864.36266 362.02597,865.0901 363.96103,865.0901 C 365.88173,865.0901 367.47994,864.35908 368.75566,862.89704 C 370.03134,861.43501 370.66919,859.20612 370.66921,856.21037 C 370.66919,853.38664 370.02775,851.24734 368.74491,849.79245 C 367.46202,848.3376 365.8674,847.61016 363.96103,847.61014 C 362.02597,847.61016 360.4206,848.33402 359.14491,849.7817 C 357.8692,851.22942 357.23135,853.41531 357.23136,856.33937 L 357.23136,856.33937 z M 379.20493,867.75616 L 379.20493,844.92257 L 382.68802,844.92257 L 382.68802,848.16916 C 384.36505,845.66078 386.78745,844.40658 389.95521,844.40656 C 391.33123,844.40658 392.59617,844.65384 393.75005,845.14833 C 394.9039,845.64287 395.7675,846.29146 396.34087,847.09413 C 396.9142,847.89684 397.31554,848.85003 397.5449,849.9537 C 397.68822,850.67041 397.75989,851.9246 397.75991,853.7163 L 397.75991,867.75616 L 393.88981,867.75616 L 393.88981,853.86681 C 393.88979,852.29011 393.73929,851.11117 393.4383,850.32996 C 393.13727,849.5488 392.60334,848.92528 391.8365,848.45942 C 391.06964,847.99359 390.1702,847.76067 389.13818,847.76065 C 387.4898,847.76067 386.06718,848.28385 384.87032,849.33019 C 383.67345,850.37657 383.07502,852.36178 383.07503,855.28584 L 383.07503,867.75616 L 379.20493,867.75616 z M 183.48537,903.42559 L 187.29097,903.9201 C 186.87527,906.54317 185.81099,908.59647 184.09813,910.08001 C 182.38524,911.56355 180.28177,912.30532 177.78772,912.30532 C 174.66296,912.30532 172.15098,911.28404 170.25178,909.24149 C 168.35256,907.19894 167.40295,904.27128 167.40295,900.45851 C 167.40295,897.99313 167.81146,895.83591 168.62848,893.98684 C 169.4455,892.13781 170.68895,890.75103 172.35883,889.82649 C 174.0287,888.90198 175.84549,888.43972 177.80922,888.4397 C 180.28894,888.43972 182.31715,889.06682 183.89388,890.321 C 185.47057,891.57522 186.48109,893.35618 186.92546,895.66389 L 183.16286,896.2444 C 182.8045,894.71071 182.17023,893.55685 181.26006,892.78281 C 180.34985,892.00881 179.24974,891.6218 177.95972,891.62178 C 176.01033,891.6218 174.42646,892.32057 173.2081,893.71809 C 171.98973,895.11564 171.38055,897.32661 171.38055,900.35101 C 171.38055,903.41843 171.96823,905.64732 173.1436,907.03768 C 174.31896,908.42805 175.85266,909.12324 177.74472,909.12323 C 179.26408,909.12324 180.53261,908.65739 181.55032,907.7257 C 182.56799,906.79401 183.21301,905.36064 183.48537,903.42559 L 183.48537,903.42559 z M 190.60205,911.7893 L 190.60205,880.26949 L 194.47215,880.26949 L 194.47215,891.57878 C 196.27819,889.48608 198.55725,888.43972 201.30933,888.4397 C 203.00069,888.43972 204.46989,888.77298 205.71694,889.43948 C 206.96395,890.10601 207.85623,891.02695 208.39376,892.2023 C 208.93125,893.37768 209.20001,895.08339 209.20003,897.31943 L 209.20003,911.7893 L 205.32993,911.7893 L 205.32993,897.31943 C 205.32991,895.3844 204.91065,893.97611 204.07215,893.09457 C 203.23361,892.21307 202.0475,891.77231 200.51381,891.77229 C 199.3671,891.77231 198.28849,892.06973 197.27797,892.66456 C 196.26744,893.25943 195.54717,894.0657 195.11717,895.08337 C 194.68715,896.10108 194.47214,897.50578 194.47215,899.29748 L 194.47215,911.7893 L 190.60205,911.7893 z M 230.01257,908.97273 C 228.57918,910.1911 227.19957,911.05112 225.87371,911.5528 C 224.54783,912.05448 223.12521,912.30532 221.60585,912.30532 C 219.09745,912.30532 217.16957,911.69255 215.8222,910.46702 C 214.47483,909.24149 213.80115,907.67553 213.80115,905.76915 C 213.80115,904.65113 214.05557,903.62985 214.56442,902.70532 C 215.07326,901.7808 215.73978,901.03904 216.56397,900.48001 C 217.38816,899.92101 218.31626,899.49816 219.34829,899.21148 C 220.10797,899.01082 221.25467,898.81731 222.78838,898.63096 C 225.91312,898.2583 228.21367,897.81396 229.69006,897.29793 C 229.70438,896.7676 229.71154,896.43075 229.71156,896.2874 C 229.71154,894.71071 229.34604,893.59985 228.61503,892.95482 C 227.62599,892.08048 226.15679,891.6433 224.20742,891.64328 C 222.38703,891.6433 221.04325,891.96223 220.17607,892.60006 C 219.30887,893.23793 218.66744,894.3667 218.25177,895.98639 L 214.46767,895.47038 C 214.81167,893.85069 215.37786,892.54274 216.16621,891.54653 C 216.95456,890.55036 218.09409,889.78351 219.5848,889.24597 C 221.0755,888.70848 222.80271,888.43972 224.76643,888.4397 C 226.7158,888.43972 228.29968,888.66906 229.51806,889.12772 C 230.7364,889.58642 231.63226,890.16335 232.20563,890.85851 C 232.77895,891.55372 233.1803,892.43166 233.40966,893.49233 C 233.53864,894.1517 233.60314,895.34139 233.60316,897.06142 L 233.60316,902.22156 C 233.60314,905.81932 233.68556,908.09479 233.85042,909.04798 C 234.01523,910.00118 234.34133,910.91495 234.82869,911.7893 L 230.78659,911.7893 C 230.38523,910.98662 230.12722,910.04776 230.01257,908.97273 L 230.01257,908.97273 z M 229.69006,900.32951 C 228.28534,900.90287 226.17829,901.39021 223.3689,901.79154 C 221.77785,902.02089 220.65265,902.2789 219.99331,902.56556 C 219.33395,902.85225 218.82511,903.27151 218.46677,903.82335 C 218.10842,904.3752 217.92925,904.98797 217.92926,905.66164 C 217.92925,906.69368 218.31984,907.5537 219.10104,908.24171 C 219.88222,908.92973 221.02533,909.27374 222.53038,909.27374 C 224.02107,909.27374 225.34694,908.94765 226.50798,908.29546 C 227.66899,907.64328 228.52185,906.75101 229.06655,905.61864 C 229.48221,904.74429 229.69004,903.45426 229.69006,901.74854 L 229.69006,900.32951 z M 239.62332,911.7893 L 239.62332,888.95571 L 243.08491,888.95571 L 243.08491,892.1593 C 243.80158,891.04129 244.75477,890.14185 245.94448,889.46098 C 247.13417,888.78015 248.4887,888.43972 250.00808,888.4397 C 251.69945,888.43972 253.08623,888.7909 254.16844,889.49323 C 255.25062,890.1956 256.01389,891.17746 256.45825,892.4388 C 258.26428,889.77276 260.615,888.43972 263.51043,888.4397 C 265.77513,888.43972 267.51667,889.06682 268.73507,890.321 C 269.9534,891.57522 270.56258,893.50668 270.56262,896.1154 L 270.56262,911.7893 L 266.71402,911.7893 L 266.71402,897.40543 C 266.71399,895.85741 266.58857,894.74296 266.33776,894.06209 C 266.08689,893.38126 265.63179,892.833 264.97247,892.4173 C 264.31309,892.00164 263.53907,891.79381 262.65041,891.79379 C 261.04501,891.79381 259.71198,892.32774 258.65131,893.39558 C 257.59059,894.46346 257.06025,896.17275 257.06027,898.52346 L 257.06027,911.7893 L 253.19017,911.7893 L 253.19017,896.95392 C 253.19015,895.23389 252.87481,893.94386 252.24414,893.08382 C 251.61344,892.22382 250.58142,891.79381 249.14806,891.79379 C 248.05869,891.79381 247.05175,892.08048 246.12723,892.65381 C 245.2027,893.22717 244.5326,894.0657 244.11693,895.16937 C 243.70125,896.27308 243.49341,897.86412 243.49342,899.9425 L 243.49342,911.7893 L 239.62332,911.7893 z M 279.91536,911.7893 L 276.32477,911.7893 L 276.32477,880.26949 L 280.19487,880.26949 L 280.19487,891.51428 C 281.8289,889.46458 283.91446,888.43972 286.45153,888.4397 C 287.85622,888.43972 289.18567,888.72281 290.43988,889.28897 C 291.69407,889.85517 292.72609,890.65069 293.53596,891.67553 C 294.3458,892.70041 294.98006,893.93669 295.43876,895.38438 C 295.89742,896.8321 296.12676,898.38014 296.12678,900.0285 C 296.12676,903.94161 295.15923,906.96602 293.22421,909.10173 C 291.28914,911.23746 288.96708,912.30532 286.25803,912.30532 C 283.56328,912.30532 281.44906,911.18012 279.91536,908.92973 L 279.91536,911.7893 z M 279.87236,900.2005 C 279.87235,902.93825 280.24503,904.9163 280.99039,906.13466 C 282.20875,908.12705 283.85712,909.12324 285.93552,909.12323 C 287.62688,909.12324 289.08892,908.38863 290.32163,906.91943 C 291.55431,905.45023 292.17066,903.26076 292.17068,900.35101 C 292.17066,897.36961 291.5794,895.16939 290.39688,893.75034 C 289.21434,892.33132 287.78455,891.6218 286.10752,891.62178 C 284.41613,891.6218 282.9541,892.3564 281.72141,893.82559 C 280.4887,895.29481 279.87235,897.41978 279.87236,900.2005 L 279.87236,900.2005 z M 316.48781,904.43611 L 320.48691,904.93063 C 319.85621,907.26702 318.68801,909.08024 316.98232,910.37027 C 315.27659,911.6603 313.09787,912.30532 310.44615,912.30532 C 307.10639,912.30532 304.45824,911.27687 302.5017,909.21999 C 300.54514,907.1631 299.56687,904.27845 299.56687,900.56601 C 299.56687,896.7246 300.5559,893.74319 302.53395,891.62178 C 304.51199,889.50042 307.07772,888.43972 310.23115,888.4397 C 313.28421,888.43972 315.77827,889.47892 317.71334,891.55728 C 319.64837,893.63569 320.61589,896.55976 320.61592,900.32951 C 320.61589,900.55886 320.60873,900.90287 320.59442,901.36153 L 303.56598,901.36153 C 303.70931,903.86994 304.41882,905.79065 305.69453,907.12368 C 306.97022,908.45672 308.56126,909.12324 310.46765,909.12323 C 311.88668,909.12324 313.09787,908.75056 314.10125,908.00521 C 315.10459,907.25986 315.90011,906.07016 316.48781,904.43611 L 316.48781,904.43611 z M 303.78098,898.17945 L 316.53081,898.17945 C 316.35879,896.25875 315.87144,894.81821 315.06877,893.85784 C 313.83606,892.36715 312.23785,891.6218 310.27415,891.62178 C 308.49676,891.6218 307.00247,892.21665 305.79128,893.40633 C 304.58008,894.59604 303.90998,896.18708 303.78098,898.17945 L 303.78098,898.17945 z M 325.32454,911.7893 L 325.32454,888.95571 L 328.80763,888.95571 L 328.80763,892.4173 C 329.69631,890.79761 330.51692,889.72975 331.26944,889.21372 C 332.02195,888.69773 332.84972,888.43972 333.75276,888.4397 C 335.05711,888.43972 336.38298,888.8554 337.73036,889.68673 L 336.39733,893.27732 C 335.45129,892.71833 334.50527,892.43882 333.55925,892.4388 C 332.71355,892.43882 331.95387,892.69324 331.28019,893.20207 C 330.6065,893.71094 330.12632,894.41687 329.83966,895.31988 C 329.40964,896.69593 329.19463,898.20097 329.19464,899.83499 L 329.19464,911.7893 L 325.32454,911.7893 z"
       id="text4712" />
    <path
       style="font-size:44.03313828px;font-style:normal;font-weight:normal;text-align:start;line-height:100%;writing-mode:lr-tb;text-anchor:start;fill:#000000;fill-opacity:1;stroke:none;stroke-width:1px;stroke-linecap:butt;stroke-linejoin:miter;stroke-opacity:1;font-family:Bitstream Vera Sans"
       d="M -174.40648,200.72894 L -170.23537,201.78247 C -171.10976,205.20823 -172.68288,207.82055 -174.95475,209.61942 C -177.22666,211.4183 -180.00381,212.31774 -183.28621,212.31774 C -186.68331,212.31774 -189.44613,211.62614 -191.57468,210.24294 C -193.70324,208.85974 -195.32295,206.85661 -196.4338,204.23353 C -197.54467,201.61047 -198.1001,198.7939 -198.1001,195.78381 C -198.1001,192.50142 -197.473,189.63826 -196.2188,187.19434 C -194.9646,184.75047 -193.18006,182.89426 -190.86516,181.6257 C -188.55028,180.3572 -186.00246,179.72293 -183.22171,179.7229 C -180.06832,179.72293 -177.41658,180.52562 -175.2665,182.13096 C -173.11648,183.73636 -171.61861,185.99392 -170.77289,188.90364 L -174.87949,189.87116 C -175.61054,187.57779 -176.67123,185.90792 -178.06158,184.86153 C -179.45197,183.8152 -181.20068,183.29202 -183.30771,183.29199 C -185.73012,183.29202 -187.75476,183.87253 -189.38162,185.03354 C -191.0085,186.19459 -192.15162,187.75338 -192.81096,189.70991 C -193.47032,191.66648 -193.79999,193.68394 -193.79998,195.76231 C -193.79999,198.44273 -193.4094,200.7827 -192.6282,202.78225 C -191.84703,204.7818 -190.63225,206.27609 -188.98386,207.26511 C -187.3355,208.25414 -185.55095,208.74865 -183.63022,208.74865 C -181.29385,208.74865 -179.3158,208.07497 -177.69607,206.7276 C -176.07638,205.38024 -174.97986,203.38069 -174.40648,200.72894 L -174.40648,200.72894 z M -167.01029,200.36343 C -167.01029,196.13501 -165.83493,193.00309 -163.4842,190.96769 C -161.52049,189.27634 -159.12676,188.43065 -156.30302,188.43062 C -153.16395,188.43065 -150.59822,189.45909 -148.60582,191.51595 C -146.61345,193.57286 -145.61726,196.41451 -145.61724,200.04092 C -145.61726,202.97934 -146.05802,205.29065 -146.93952,206.97485 C -147.82107,208.65907 -149.10393,209.96702 -150.78812,210.8987 C -152.47235,211.8304 -154.31064,212.29624 -156.30302,212.29624 C -159.49944,212.29624 -162.08309,211.27138 -164.05397,209.22166 C -166.02485,207.17195 -167.01029,204.21921 -167.01029,200.36343 L -167.01029,200.36343 z M -163.03269,200.36343 C -163.03269,203.28752 -162.39485,205.47699 -161.11914,206.93185 C -159.84345,208.38673 -158.23808,209.11416 -156.30302,209.11416 C -154.38231,209.11416 -152.78411,208.38314 -151.50839,206.9211 C -150.23271,205.45907 -149.59486,203.23018 -149.59484,200.23443 C -149.59486,197.4107 -150.23629,195.2714 -151.51914,193.81651 C -152.80202,192.36166 -154.39665,191.63423 -156.30302,191.63421 C -158.23808,191.63423 -159.84345,192.35808 -161.11914,193.80576 C -162.39485,195.25348 -163.03269,197.43937 -163.03269,200.36343 L -163.03269,200.36343 z M -141.05912,211.78023 L -141.05912,188.94664 L -137.59753,188.94664 L -137.59753,192.15022 C -136.88085,191.03221 -135.92766,190.13277 -134.73796,189.4519 C -133.54827,188.77107 -132.19374,188.43065 -130.67435,188.43062 C -128.98299,188.43065 -127.59621,188.78182 -126.514,189.48415 C -125.43182,190.18652 -124.66855,191.16838 -124.22419,192.42973 C -122.41816,189.76368 -120.06744,188.43065 -117.172,188.43062 C -114.90731,188.43065 -113.16576,189.05775 -111.94737,190.31192 C -110.72904,191.56614 -110.11986,193.49761 -110.11982,196.10632 L -110.11982,211.78023 L -113.96842,211.78023 L -113.96842,197.39636 C -113.96845,195.84833 -114.09387,194.73389 -114.34468,194.05302 C -114.59555,193.37219 -115.05064,192.82392 -115.70997,192.40823 C -116.36934,191.99257 -117.14336,191.78473 -118.03203,191.78471 C -119.63743,191.78473 -120.97046,192.31866 -122.03113,193.3865 C -123.09184,194.45438 -123.62219,196.16367 -123.62217,198.51438 L -123.62217,211.78023 L -127.49227,211.78023 L -127.49227,196.94484 C -127.49229,195.22482 -127.80763,193.93478 -128.4383,193.07474 C -129.06899,192.21474 -130.10102,191.78473 -131.53438,191.78471 C -132.62375,191.78473 -133.63069,192.0714 -134.5552,192.64473 C -135.47974,193.2181 -136.14984,194.05662 -136.56551,195.1603 C -136.98119,196.26401 -137.18903,197.85505 -137.18902,199.93342 L -137.18902,211.78023 L -141.05912,211.78023 z M -104.33617,220.53095 L -104.33617,188.94664 L -100.81008,188.94664 L -100.81008,191.91371 C -99.978733,190.75271 -99.039876,189.88193 -97.993508,189.3014 C -96.947158,188.7209 -95.678626,188.43065 -94.187909,188.43062 C -92.238541,188.43065 -90.518498,188.93233 -89.027776,189.93566 C -87.53709,190.93904 -86.411896,192.35449 -85.652189,194.18202 C -84.892525,196.00959 -84.512682,198.01272 -84.512659,200.19143 C -84.512682,202.52783 -84.931942,204.6313 -85.770442,206.50184 C -86.608984,208.37239 -87.827348,209.80576 -89.425536,210.80195 C -91.02376,211.79814 -92.704385,212.29624 -94.467416,212.29624 C -95.757461,212.29624 -96.914907,212.0239 -97.939756,211.47922 C -98.964624,210.93454 -99.806729,210.24652 -100.46607,209.41517 L -100.46607,220.53095 L -104.33617,220.53095 z M -100.83158,200.49244 C -100.83159,203.43085 -100.23674,205.60241 -99.047035,207.0071 C -97.857347,208.41181 -96.416811,209.11416 -94.725423,209.11416 C -93.005393,209.11416 -91.532606,208.38673 -90.307059,206.93185 C -89.081545,205.47699 -88.46878,203.22302 -88.468761,200.16993 C -88.46878,197.2602 -89.067212,195.08148 -90.264058,193.63376 C -91.460938,192.18607 -92.890723,191.46222 -94.553419,191.4622 C -96.201806,191.46222 -97.660259,192.23266 -98.928782,193.77351 C -100.19732,195.3144 -100.83159,197.55404 -100.83158,200.49244 L -100.83158,200.49244 z M -79.868537,211.78023 L -79.868537,188.94664 L -76.385447,188.94664 L -76.385447,192.40823 C -75.496765,190.78854 -74.676161,189.72068 -73.923634,189.20464 C -73.171124,188.68865 -72.343353,188.43065 -71.440319,188.43062 C -70.135965,188.43065 -68.810099,188.84632 -67.462717,189.67766 L -68.795751,193.26825 C -69.741789,192.70925 -70.687812,192.42975 -71.633824,192.42973 C -72.479523,192.42975 -73.239209,192.68417 -73.912883,193.193 C -74.586576,193.70186 -75.066754,194.4078 -75.353421,195.3108 C -75.783439,196.68685 -75.998444,198.19189 -75.998437,199.82592 L -75.998437,211.78023 L -79.868537,211.78023 z M -49.488249,204.42704 L -45.489146,204.92155 C -46.119851,207.25795 -47.288047,209.07116 -48.993737,210.36119 C -50.699465,211.65122 -52.878186,212.29624 -55.529906,212.29624 C -58.869668,212.29624 -61.517817,211.2678 -63.474361,209.21091 C -65.430914,207.15403 -66.409188,204.26937 -66.409187,200.55694 C -66.409188,196.71552 -65.420164,193.73411 -63.44211,191.61271 C -61.464066,189.49134 -58.898335,188.43065 -55.744911,188.43062 C -52.691848,188.43065 -50.197786,189.46984 -48.262718,191.5482 C -46.327689,193.62661 -45.360165,196.55068 -45.360143,200.32043 C -45.360165,200.54978 -45.367332,200.89379 -45.381643,201.35246 L -62.410083,201.35246 C -62.266752,203.86086 -61.557235,205.78158 -60.281528,207.11461 C -59.005838,208.44764 -57.414798,209.11416 -55.508405,209.11416 C -54.089382,209.11416 -52.878186,208.74149 -51.874811,207.99613 C -50.871469,207.25078 -50.075949,206.06109 -49.488249,204.42704 L -49.488249,204.42704 z M -62.195078,198.17038 L -49.445248,198.17038 C -49.617271,196.24968 -50.104617,194.80914 -50.907286,193.84876 C -52.140001,192.35808 -53.738207,191.61273 -55.70191,191.61271 C -57.4793,191.61273 -58.973587,192.20757 -60.184776,193.39725 C -61.395981,194.58697 -62.066081,196.17801 -62.195078,198.17038 L -62.195078,198.17038 z M -42.156558,204.96455 L -38.329459,204.36254 C -38.114459,205.89625 -37.516027,207.07161 -36.534163,207.88863 C -35.552312,208.70565 -34.179861,209.11416 -32.416806,209.11416 C -30.63944,209.11416 -29.320741,208.75224 -28.460704,208.02838 C -27.600698,207.30453 -27.170687,206.45526 -27.170671,205.48056 C -27.170687,204.60622 -27.55053,203.9182 -28.3102,203.41651 C -28.840562,203.07251 -30.159261,202.63533 -32.266302,202.10498 C -35.104384,201.3883 -37.071683,200.76837 -38.168205,200.24518 C -39.264738,199.72201 -40.096092,198.99816 -40.662269,198.07362 C -41.228453,197.14911 -41.511543,196.12784 -41.511541,195.00979 C -41.511543,193.99212 -41.278621,193.04968 -40.812773,192.18247 C -40.346931,191.3153 -39.712665,190.59503 -38.909974,190.02167 C -38.307964,189.57734 -37.48736,189.20108 -36.448161,188.89289 C -35.408975,188.58473 -34.294531,188.43065 -33.104824,188.43062 C -31.313123,188.43065 -29.740001,188.68865 -28.385452,189.20464 C -27.030934,189.72068 -26.031159,190.41945 -25.386125,191.30095 C -24.741127,192.18249 -24.296782,193.36144 -24.05309,194.83779 L -27.837188,195.3538 C -28.009208,194.17846 -28.507304,193.2611 -29.331477,192.60173 C -30.155678,191.9424 -31.32029,191.61273 -32.825317,191.61271 C -34.602705,191.61273 -35.871237,191.90657 -36.630915,192.49423 C -37.390608,193.08193 -37.77045,193.76995 -37.770445,194.55828 C -37.77045,195.05998 -37.61278,195.51149 -37.297433,195.91282 C -36.982098,196.32851 -36.487585,196.67252 -35.813894,196.94484 C -35.426892,197.0882 -34.287364,197.41787 -32.395306,197.93387 C -29.657582,198.6649 -27.747618,199.26333 -26.665408,199.72917 C -25.583231,200.19502 -24.73396,200.87229 -24.117592,201.76097 C -23.501263,202.64967 -23.193088,203.75336 -23.193068,205.07205 C -23.193088,206.36209 -23.569348,207.57687 -24.321847,208.7164 C -25.074385,209.85593 -26.160162,210.73745 -27.579181,211.36097 C -28.998232,211.98448 -30.603606,212.29624 -32.395306,212.29624 C -35.362391,212.29624 -37.62353,211.67989 -39.178731,210.44719 C -40.733941,209.2145 -41.726549,207.38695 -42.156558,204.96455 L -42.156558,204.96455 z M -20.140002,204.96455 L -16.312903,204.36254 C -16.097903,205.89625 -15.499472,207.07161 -14.517607,207.88863 C -13.535756,208.70565 -12.163305,209.11416 -10.400251,209.11416 C -8.6228842,209.11416 -7.3041847,208.75224 -6.4441483,208.02838 C -5.584142,207.30453 -5.1541313,206.45526 -5.1541149,205.48056 C -5.1541313,204.60622 -5.5339741,203.9182 -6.2936444,203.41651 C -6.8240061,203.07251 -8.1427056,202.63533 -10.249747,202.10498 C -13.087828,201.3883 -15.055127,200.76837 -16.151649,200.24518 C -17.248182,199.72201 -18.079536,198.99816 -18.645714,198.07362 C -19.211897,197.14911 -19.494988,196.12784 -19.494986,195.00979 C -19.494988,193.99212 -19.262065,193.04968 -18.796218,192.18247 C -18.330375,191.3153 -17.69611,190.59503 -16.893418,190.02167 C -16.291408,189.57734 -15.470804,189.20108 -14.431605,188.89289 C -13.392419,188.58473 -12.277975,188.43065 -11.088268,188.43062 C -9.2965676,188.43065 -7.7234451,188.68865 -6.3688963,189.20464 C -5.0143778,189.72068 -4.014603,190.41945 -3.3695688,191.30095 C -2.7245709,192.18249 -2.2802265,193.36144 -2.0365344,194.83779 L -5.8206322,195.3538 C -5.9926521,194.17846 -6.4907478,193.2611 -7.3149208,192.60173 C -8.1391221,191.9424 -9.3037344,191.61273 -10.808761,191.61271 C -12.586149,191.61273 -13.854681,191.90657 -14.614359,192.49423 C -15.374052,193.08193 -15.753895,193.76995 -15.753889,194.55828 C -15.753895,195.05998 -15.596224,195.51149 -15.280877,195.91282 C -14.965542,196.32851 -14.471029,196.67252 -13.797338,196.94484 C -13.410336,197.0882 -12.270808,197.41787 -10.37875,197.93387 C -7.6410264,198.6649 -5.7310623,199.26333 -4.6488519,199.72917 C -3.5666752,200.19502 -2.7174041,200.87229 -2.101036,201.76097 C -1.4847068,202.64967 -1.1765324,203.75336 -1.1765121,205.07205 C -1.1765324,206.36209 -1.5527918,207.57687 -2.3052913,208.7164 C -3.0578292,209.85593 -4.1436062,210.73745 -5.5626255,211.36097 C -6.9816767,211.98448 -8.5870499,212.29624 -10.37875,212.29624 C -13.345835,212.29624 -15.606974,211.67989 -17.162175,210.44719 C -18.717385,209.2145 -19.709993,207.38695 -20.140002,204.96455 L -20.140002,204.96455 z M 1.9840715,200.36343 C 1.98407,196.13501 3.1594326,193.00309 5.5101626,190.96769 C 7.4738731,189.27634 9.8675993,188.43065 12.691348,188.43062 C 15.830414,188.43065 18.396145,189.45909 20.388547,191.51595 C 22.38091,193.57286 23.377102,196.41451 23.377125,200.04092 C 23.377102,202.97934 22.936341,205.29065 22.05484,206.97485 C 21.173297,208.65907 19.890432,209.96702 18.206241,210.8987 C 16.522015,211.8304 14.683719,212.29624 12.691348,212.29624 C 9.4949233,212.29624 6.9112758,211.27138 4.9403979,209.22166 C 2.9695112,207.17195 1.98407,204.21921 1.9840715,200.36343 L 1.9840715,200.36343 z M 5.9616743,200.36343 C 5.9616689,203.28752 6.5995181,205.47699 7.8752238,206.93185 C 9.1509148,208.38673 10.756288,209.11416 12.691348,209.11416 C 14.612051,209.11416 16.210257,208.38314 17.485972,206.9211 C 18.761654,205.45907 19.399503,203.23018 19.399522,200.23443 C 19.399503,197.4107 18.75807,195.2714 17.475222,193.81651 C 16.19234,192.36166 14.597717,191.63423 12.691348,191.63421 C 10.756288,191.63423 9.1509148,192.35808 7.8752238,193.80576 C 6.5995181,195.25348 5.9616689,197.43937 5.9616743,200.36343 L 5.9616743,200.36343 z M 27.892243,211.78023 L 27.892243,188.94664 L 31.375333,188.94664 L 31.375333,192.40823 C 32.264015,190.78854 33.084619,189.72068 33.837147,189.20464 C 34.589657,188.68865 35.417427,188.43065 36.320461,188.43062 C 37.624815,188.43065 38.950682,188.84632 40.298064,189.67766 L 38.965029,193.26825 C 38.018992,192.70925 37.072968,192.42975 36.126956,192.42973 C 35.281257,192.42975 34.521572,192.68417 33.847897,193.193 C 33.174205,193.70186 32.694026,194.4078 32.40736,195.3108 C 31.977342,196.68685 31.762336,198.19189 31.762343,199.82592 L 31.762343,211.78023 L 27.892243,211.78023 z"
       id="text3964" />
    <g
       id="g3974"
       transform="matrix(1.8774749,0,0,1.961692,-693.58797,-181.03368)">
		<g
   id="g3976">
			<line
   style="fill:none;stroke:#000000;stroke-width:1.04214358"
   id="line3978"
   y2="271.479"
   x2="361.58301"
   y1="203.36591"
   x1="351.19299" />

			<polygon
   id="polygon3980"
   points="359.027,268.946 361.561,271.15 363.764,268.616 363.904,270.625 361.701,273.159 359.168,270.956 359.027,268.946 " />

		</g>

	</g>
    <path
       style="font-size:44.03313828px;font-style:normal;font-weight:normal;text-align:start;line-height:100%;writing-mode:lr-tb;text-anchor:start;fill:#000000;fill-opacity:1;stroke:none;stroke-width:1px;stroke-linecap:butt;stroke-linejoin:miter;stroke-opacity:1;font-family:Bitstream Vera Sans"
       d="M 568.91484,211.08926 L 568.91484,183.28905 L 558.53007,183.28905 L 558.53007,179.56945 L 583.51372,179.56945 L 583.51372,183.28905 L 573.08595,183.28905 L 573.08595,211.08926 L 568.91484,211.08926 z M 602.2837,211.08926 L 602.2837,207.73518 C 600.50631,210.31524 598.09108,211.60528 595.03802,211.60528 C 593.69064,211.60528 592.43286,211.34727 591.26467,210.83126 C 590.09647,210.31524 589.22928,209.66665 588.6631,208.88546 C 588.09692,208.10427 587.69916,207.1475 587.46982,206.01513 C 587.31215,205.25545 587.23331,204.05142 587.23332,202.40304 L 587.23332,188.25567 L 591.10342,188.25567 L 591.10342,200.9195 C 591.10341,202.94056 591.18224,204.30226 591.33992,205.00461 C 591.58359,206.0223 592.0996,206.82141 592.88796,207.40192 C 593.67631,207.98244 594.651,208.27269 595.81204,208.27269 C 596.97305,208.27269 598.06241,207.97527 599.08012,207.38042 C 600.0978,206.78557 600.81807,205.97572 601.24093,204.95086 C 601.66375,203.926 601.87518,202.43888 601.87519,200.48949 L 601.87519,188.25567 L 605.74529,188.25567 L 605.74529,211.08926 L 602.2837,211.08926 z M 611.78695,211.08926 L 611.78695,188.25567 L 615.27004,188.25567 L 615.27004,191.71726 C 616.15872,190.09758 616.97933,189.02972 617.73185,188.51368 C 618.48436,187.99769 619.31213,187.73968 620.21517,187.73966 C 621.51952,187.73968 622.84539,188.15536 624.19277,188.98669 L 622.85974,192.57729 C 621.9137,192.01829 620.96768,191.73878 620.02166,191.73876 C 619.17596,191.73878 618.41628,191.99321 617.7426,192.50203 C 617.06891,193.0109 616.58873,193.71683 616.30207,194.61984 C 615.87205,195.99589 615.65704,197.50093 615.65705,199.13495 L 615.65705,211.08926 L 611.78695,211.08926 z M 630.10543,211.08926 L 626.51483,211.08926 L 626.51483,179.56945 L 630.38493,179.56945 L 630.38493,190.81424 C 632.01897,188.76454 634.10452,187.73968 636.64159,187.73966 C 638.04628,187.73968 639.37573,188.02277 640.62995,188.58893 C 641.88413,189.15514 642.91615,189.95066 643.72603,190.97549 C 644.53586,192.00037 645.17013,193.23665 645.62883,194.68434 C 646.08748,196.13206 646.31682,197.6801 646.31684,199.32846 C 646.31682,203.24157 645.3493,206.26598 643.41427,208.40169 C 641.4792,210.53742 639.15714,211.60528 636.44809,211.60528 C 633.75334,211.60528 631.63912,210.48008 630.10543,208.22969 L 630.10543,211.08926 z M 630.06242,199.50046 C 630.06242,202.23821 630.43509,204.21626 631.18045,205.43462 C 632.39881,207.42701 634.04718,208.4232 636.12558,208.42319 C 637.81694,208.4232 639.27898,207.6886 640.51169,206.21939 C 641.74438,204.75019 642.36072,202.56072 642.36074,199.65097 C 642.36072,196.66957 641.76946,194.46935 640.58695,193.0503 C 639.4044,191.63128 637.97461,190.92176 636.29759,190.92174 C 634.6062,190.92176 633.14416,191.65636 631.91147,193.12555 C 630.67877,194.59477 630.06242,196.71974 630.06242,199.50046 L 630.06242,199.50046 z M 651.06846,184.02006 L 651.06846,179.56945 L 654.93856,179.56945 L 654.93856,184.02006 L 651.06846,184.02006 z M 651.06846,211.08926 L 651.06846,188.25567 L 654.93856,188.25567 L 654.93856,211.08926 L 651.06846,211.08926 z M 660.85121,211.08926 L 660.85121,188.25567 L 664.3343,188.25567 L 664.3343,191.50226 C 666.01134,188.99388 668.43373,187.73968 671.60149,187.73966 C 672.97751,187.73968 674.24246,187.98694 675.39634,188.48143 C 676.55018,188.97596 677.41379,189.62456 677.98716,190.42723 C 678.56048,191.22994 678.96183,192.18313 679.19119,193.2868 C 679.3345,194.00351 679.40617,195.2577 679.40619,197.0494 L 679.40619,211.08926 L 675.53609,211.08926 L 675.53609,197.1999 C 675.53608,195.62321 675.38557,194.44427 675.08458,193.66306 C 674.78356,192.88189 674.24963,192.25838 673.48279,191.79252 C 672.71592,191.32669 671.81648,191.09377 670.78447,191.09375 C 669.13608,191.09377 667.71346,191.61695 666.51661,192.66329 C 665.31974,193.70967 664.72131,195.69488 664.72131,198.61894 L 664.72131,211.08926 L 660.85121,211.08926 z M 700.99275,203.73607 L 704.99186,204.23059 C 704.36115,206.56698 703.19296,208.3802 701.48727,209.67023 C 699.78154,210.96026 697.60282,211.60528 694.9511,211.60528 C 691.61134,211.60528 688.96319,210.57683 687.00664,208.51995 C 685.05009,206.46307 684.07181,203.57841 684.07182,199.86597 C 684.07181,196.02456 685.06084,193.04315 687.03889,190.92174 C 689.01694,188.80038 691.58267,187.73968 694.73609,187.73966 C 697.78916,187.73968 700.28322,188.77888 702.21829,190.85724 C 704.15331,192.93565 705.12084,195.85972 705.12086,199.62947 C 705.12084,199.85882 705.11367,200.20283 705.09936,200.66149 L 688.07092,200.66149 C 688.21425,203.1699 688.92377,205.09061 690.19947,206.42364 C 691.47517,207.75668 693.0662,208.4232 694.9726,208.42319 C 696.39162,208.4232 697.60282,208.05052 698.60619,207.30517 C 699.60953,206.55982 700.40505,205.37012 700.99275,203.73607 L 700.99275,203.73607 z M 688.28592,197.47941 L 701.03575,197.47941 C 700.86373,195.55871 700.37639,194.11818 699.57372,193.1578 C 698.341,191.66711 696.7428,190.92176 694.77909,190.92174 C 693.0017,190.92176 691.50742,191.51661 690.29623,192.70629 C 689.08502,193.896 688.41492,195.48704 688.28592,197.47941 L 688.28592,197.47941 z"
       id="text3984" />
    <g
       transform="matrix(-1.8774749,0,0,1.961692,1294.0309,-181.03368)"
       id="g3994">
		<g
   id="g3996">
			<line
   x1="351.19299"
   y1="203.36591"
   x2="361.58301"
   y2="271.479"
   id="line3998"
   style="fill:none;stroke:#000000;stroke-width:1.04214358" />

			<polygon
   points="359.027,268.946 361.561,271.15 363.764,268.616 363.904,270.625 361.701,273.159 359.168,270.956 359.027,268.946 "
   id="polygon4000" />

		</g>

	</g>
    <path
       style="font-size:44.03313828px;font-style:normal;font-weight:normal;text-align:start;line-height:100%;writing-mode:lr-tb;text-anchor:start;fill:#000000;fill-opacity:1;stroke:none;stroke-width:1px;stroke-linecap:butt;stroke-linejoin:miter;stroke-opacity:1;font-family:Bitstream Vera Sans"
       d="M 858.30337,867.39069 L 858.30337,835.87087 L 862.58198,835.87087 L 879.13741,860.61801 L 879.13741,835.87087 L 883.13651,835.87087 L 883.13651,867.39069 L 878.8579,867.39069 L 862.30247,842.62205 L 862.30247,867.39069 L 858.30337,867.39069 z M 888.23214,855.97389 C 888.23214,851.74546 889.4075,848.61355 891.75823,846.57815 C 893.72194,844.88679 896.11567,844.04111 898.93942,844.04108 C 902.07848,844.04111 904.64421,845.06955 906.63662,847.12641 C 908.62898,849.18332 909.62517,852.02497 909.62519,855.65138 C 909.62517,858.5898 909.18441,860.90111 908.30291,862.58531 C 907.42136,864.26953 906.1385,865.57747 904.45431,866.50916 C 902.77008,867.44085 900.93179,867.9067 898.93942,867.9067 C 895.74299,867.9067 893.15934,866.88184 891.18847,864.83212 C 889.21758,862.7824 888.23214,859.82966 888.23214,855.97389 L 888.23214,855.97389 z M 892.20974,855.97389 C 892.20974,858.89797 892.84759,861.08745 894.12329,862.54231 C 895.39898,863.99719 897.00436,864.72462 898.93942,864.72462 C 900.86012,864.72462 902.45832,863.9936 903.73404,862.53156 C 905.00972,861.06953 905.64757,858.84064 905.64759,855.84489 C 905.64757,853.02116 905.00614,850.88186 903.72329,849.42697 C 902.44041,847.97212 900.84578,847.24469 898.93942,847.24467 C 897.00436,847.24469 895.39898,847.96854 894.12329,849.41622 C 892.84759,850.86394 892.20974,853.04983 892.20974,855.97389 L 892.20974,855.97389 z M 912.14076,867.39069 L 912.14076,864.2516 L 926.67513,847.56717 C 925.02674,847.6532 923.57187,847.6962 922.31052,847.69618 L 913.00078,847.69618 L 913.00078,844.5571 L 931.66326,844.5571 L 931.66326,847.11566 L 919.30044,861.60704 L 916.91388,864.2516 C 918.64825,864.1226 920.27513,864.0581 921.79451,864.0581 L 932.35128,864.0581 L 932.35128,867.39069 L 912.14076,867.39069 z M 934.15732,867.39069 L 934.15732,864.2516 L 948.6917,847.56717 C 947.04331,847.6532 945.58844,847.6962 944.32709,847.69618 L 935.01735,847.69618 L 935.01735,844.5571 L 953.67983,844.5571 L 953.67983,847.11566 L 941.31701,861.60704 L 938.93045,864.2516 C 940.66482,864.1226 942.29169,864.0581 943.81107,864.0581 L 954.36785,864.0581 L 954.36785,867.39069 L 934.15732,867.39069 z M 958.13045,867.39069 L 958.13045,835.87087 L 962.00055,835.87087 L 962.00055,867.39069 L 958.13045,867.39069 z M 983.65161,860.0375 L 987.65071,860.53201 C 987.02,862.86841 985.85181,864.68162 984.14612,865.97165 C 982.44039,867.26168 980.26167,867.9067 977.60995,867.9067 C 974.27019,867.9067 971.62204,866.87826 969.66549,864.82137 C 967.70894,862.76449 966.73067,859.87983 966.73067,856.1674 C 966.73067,852.32598 967.71969,849.34457 969.69774,847.22316 C 971.67579,845.1018 974.24152,844.04111 977.39494,844.04108 C 980.44801,844.04111 982.94207,845.0803 984.87714,847.15866 C 986.81217,849.23707 987.77969,852.16114 987.77971,855.93089 C 987.77969,856.16024 987.77252,856.50425 987.75821,856.96292 L 970.72977,856.96292 C 970.8731,859.47132 971.58262,861.39204 972.85833,862.72507 C 974.13402,864.0581 975.72506,864.72462 977.63145,864.72462 C 979.05047,864.72462 980.26167,864.35194 981.26504,863.60659 C 982.26839,862.86124 983.06391,861.67154 983.65161,860.0375 L 983.65161,860.0375 z M 970.94478,853.78083 L 983.69461,853.78083 C 983.52258,851.86013 983.03524,850.4196 982.23257,849.45922 C 980.99985,847.96854 979.40165,847.22318 977.43794,847.22316 C 975.66055,847.22318 974.16627,847.81803 972.95508,849.00771 C 971.74387,850.19743 971.07377,851.78846 970.94478,853.78083 L 970.94478,853.78083 z"
       id="text4010" />
    <g
       id="g4019"
       transform="matrix(-1.8774749,0,0,1.8774749,1627.7962,-28.667104)">
		<line
   x1="378.202"
   y1="457.1803"
   x2="392.056"
   y2="341.90302"
   id="line4021"
   style="fill:none;stroke:#000000;stroke-width:1.06526053" />
<polygon
   points="394.212,344.784 392.031,342.231 389.479,344.415 389.635,342.406 392.187,340.224 394.369,342.775 394.212,344.784 "
   id="polygon4023" />

	</g>
  </g>
</svg>
