<?xml version="1.0" encoding="utf-8"?>
<!-- Generator: Adobe Illustrator 13.0.2, SVG Export Plug-In . SVG Version: 6.00 Build 14948)  -->
<!DOCTYPE svg PUBLIC "-//W3C//DTD SVG 1.1//EN" "http://www.w3.org/Graphics/SVG/1.1/DTD/svg11.dtd">
<svg version="1.1" xmlns="http://www.w3.org/2000/svg" xmlns:xlink="http://www.w3.org/1999/xlink" x="0px" y="0px" width="872px"
	 height="577px" viewBox="0 0 872 577" enable-background="new 0 0 872 577" xml:space="preserve">
<g id="Shading">
	<g>
		<defs>
			<rect id="SVGID_1_" x="14.317" y="112.158" width="822.545" height="363.666"/>
		</defs>
		<clipPath id="SVGID_2_">
			<use xlink:href="#SVGID_1_"  overflow="visible"/>
		</clipPath>
		<g clip-path="url(#SVGID_2_)">
			<linearGradient id="SVGID_3_" gradientUnits="userSpaceOnUse" x1="-8.9868" y1="291.1055" x2="890.3203" y2="291.1055">
				<stop  offset="0" style="stop-color:#C4FFFF"/>
				<stop  offset="0.064" style="stop-color:#C6FDFD"/>
				<stop  offset="0.099" style="stop-color:#CCF5F5"/>
				<stop  offset="0.1269" style="stop-color:#D6E7E7"/>
				<stop  offset="0.1511" style="stop-color:#E4D4D4"/>
				<stop  offset="0.1538" style="stop-color:#E6D1D1"/>
			</linearGradient>
			<path fill="url(#SVGID_3_)" d="M890.32,465.803C881.567,462.401,821.865,405.68,737,404c-61,14-126.457,55.324-203,55
				c-26.711-0.113-61.843-43.993-89-44c-40.375-0.011-79.807-8.225-119-8c-46.84,0.268-82.911,24.397-124,25
				c-29.305,0.43-65.548,31.4-90,32c-15.114,0.371-29.184-4.329-41.947-3.894c-44.182,1.51-73.148,3.408-79.04,5.696
				c34.589-13.438,34.589-335.958,0-349.396c5.887,2.287,34.819,4.185,78.951,5.693c11.668,0.399,24.398,0.771,38.047,1.115
				C133.467,123.858,179,152,211,158c40,8,75.16,23.732,122,24c39.513,0.226,74.297-11.988,115-12c27.157-0.008,52-34,79.985-43.699
				C602.479,125.982,672,164,734,182c86.997-1.679,147.43-62.139,156.32-65.593C855.732,129.845,855.732,452.365,890.32,465.803z"/>
			<linearGradient id="SVGID_4_" gradientUnits="userSpaceOnUse" x1="124.9121" y1="292.5469" x2="859.1729" y2="292.5469">
				<stop  offset="0" style="stop-color:#BAFFFF"/>
				<stop  offset="0.1648" style="stop-color:#E6C4D6"/>
				<stop  offset="0.1919" style="stop-color:#E6C7CD"/>
				<stop  offset="0.236" style="stop-color:#E6CFB5"/>
				<stop  offset="0.2918" style="stop-color:#E6DB8D"/>
				<stop  offset="0.3562" style="stop-color:#E6EC56"/>
				<stop  offset="0.4176" style="stop-color:#E6FF1C"/>
				<stop  offset="0.478" style="stop-color:#E63B63"/>
				<stop  offset="0.989" style="stop-color:#E6C9BF"/>
			</linearGradient>
			<path fill="url(#SVGID_4_)" d="M124.912,387.502l94.668-25.397l105.06-15.007c0,0,108.523,2.307,204.346,63.496
				c63.498,5.773,121.24-33.481,127.012-34.636c5.772-1.153,173.158,5.774,203.175,13.854v-194.53
				c-30.017,8.081-197.402,15.008-203.175,13.854c-5.771-1.154-63.514-40.408-127.012-34.635
				c-95.823,61.189-204.346,63.497-204.346,63.497l-105.06-15.008l-94.668-25.399V387.502z"/>
		</g>
	</g>
</g>
<g id="Parts">
	<g id="High_Pressure_Shaft">
		<rect x="225.93" y="272.056" fill="#7E217B" stroke="#000000" stroke-width="1.8136" width="225.127" height="39.252"/>
		<rect x="225.93" y="277.251" fill="#7E217B" stroke="#000000" stroke-width="1.5551" width="225.127" height="28.862"/>
	</g>
	<polygon id="Low_Pressure_Shaft" fill="#6C8940" stroke="#000000" stroke-width="1.7317" points="115.693,262.82 123.198,248.389 
		132.433,248.389 137.833,248.389 147.646,283.601 472.415,283.601 479.921,263.974 490.312,263.974 500.701,258.202 
		499.547,328.05 490.312,321.699 479.342,321.699 472.126,300.919 146.491,300.919 137.833,334.398 121.466,334.398 
		113.384,321.699 	"/>
	<path id="Rear_Cone" fill="#CCCCCC" stroke="#000000" stroke-width="1.7317" d="M495.712,249.348c0,0,60.225,8.603,103.239,43.017
		c-43.016,34.412-103.239,43.017-103.239,43.017V249.348z"/>
	<path id="Front_Cone" fill="#CCCCCC" stroke="#000000" stroke-width="1.7317" d="M104.795,249.348c0,0-94.178,31.944-94.178,43.017
		c0,12.595,94.178,43.017,94.178,43.017V249.348z"/>
	<path id="Top_Wall_1_" fill="#CCCCCC" stroke="#000000" stroke-width="1.7317" d="M172.087,203.56l-4.333,3.943l58.321,18.951
		l99.142,16.019l112.563-19.049c0,0,58.446-15.153,90.917-45.891c38.964-5.195,114.167,24.677,129.753,33.769l1.731-5.195
		c0,0-67.41-42.428-132.351-36.367c-54.117,40.263-87.886,45.025-89.185,45.025s-112.563,19.482-112.563,19.482l-99.575-15.152
		L172.087,203.56z"/>
	<path id="Bottom_Wall_3_" fill="#CCCCCC" stroke="#000000" stroke-width="1.7317" d="M172.087,381.233l-4.333-3.942l58.321-18.951
		l99.142-16.019L437.78,361.37c0,0,58.446,15.153,90.917,45.892c38.964,5.195,114.167-24.678,129.753-33.769l1.731,5.194
		c0,0-67.41,42.429-132.351,36.367c-54.117-40.263-87.886-45.025-89.185-45.025s-112.563-19.482-112.563-19.482L226.508,365.7
		L172.087,381.233z"/>
	<path id="Bottom_Wall_2_" fill="#CCCCCC" stroke="#000000" stroke-width="2.0141" d="M109.333,467.333
		c-12.583,1.417-81.67-5.762-0.667-6.333c30.833-7,86.875-32.749,86.875-32.749l128.289-28.609l120.47,10.661
		c0,0,47.203,11.632,82.239,43.955c45.307,2.069,192.151-43.206,211.425-55.319l1.502,5.843c0,0-138.969,59.033-214.748,58.593
		c-59.523-41.163-78.762-43.259-80.29-43.127c-1.528,0.131-120.425-11.162-120.425-11.162l-128.709,27.65
		C195.294,436.735,121.917,465.916,109.333,467.333z"/>
	<path id="Bottom_Wall_1_" fill="#CCCCCC" stroke="#000000" stroke-width="2.0141" d="M109.333,119.123
		c-12.583-1.417-81.67,5.762-0.667,6.333c30.833,7,86.875,32.749,86.875,32.749l128.289,28.609l120.47-10.661
		c0,0,47.203-11.632,82.239-43.955c45.307-2.069,192.151,43.206,211.425,55.319l1.502-5.843c0,0-138.969-59.033-214.748-58.593
		c-59.523,41.163-78.762,43.259-80.29,43.127c-1.528-0.131-120.425,11.162-120.425,11.162l-128.709-27.65
		C195.294,149.721,121.917,120.54,109.333,119.123z"/>
</g>
<g id="Fans">
	<g>
		<g>
			<polygon fill="#B6C4A0" stroke="#000000" stroke-width="1.7317" points="123.375,184.315 100.863,184.315 99.131,135.249 
				126.262,139.866 			"/>
			<polygon fill="#A3B588" stroke="#000000" stroke-width="1.7317" points="123.375,216.352 102.017,220.682 99.13,182.583 
				126.839,179.696 			"/>
			<polygon fill="#91A770" stroke="#000000" stroke-width="1.5516" points="123.375,246.067 102.017,249.543 99.13,218.958 
				126.839,216.64 			"/>
			<polygon fill="#7E9858" stroke="#000000" stroke-width="1.4112" points="122.798,267.881 102.595,276.097 98.553,245.457 
				126.262,243.54 			"/>
			<polygon fill="#6C8940" stroke="#000000" stroke-width="1.235" points="122.798,285.39 102.595,291.683 98.553,268.214 
				126.262,266.746 			"/>
		</g>
		<g>
			<polygon fill="#2E3B1B" stroke="#000000" stroke-width="1.7317" points="102.017,396.164 124.529,396.164 126.261,445.231 
				99.13,440.615 			"/>
			<polygon fill="#3E4E25" stroke="#000000" stroke-width="1.7317" points="102.017,364.127 123.375,359.798 126.262,397.896 
				98.553,400.785 			"/>
			<polygon fill="#4D622E" stroke="#000000" stroke-width="1.5516" points="102.017,334.413 123.375,330.937 126.262,361.522 
				98.553,363.84 			"/>
			<polygon fill="#5D7537" stroke="#000000" stroke-width="1.4112" points="102.594,312.6 122.797,304.382 126.839,335.022 
				99.13,336.94 			"/>
			<polygon fill="#6C8940" stroke="#000000" stroke-width="1.235" points="102.594,295.091 122.797,288.796 126.839,312.267 
				99.13,313.734 			"/>
		</g>
		<polygon fill="#1F2712" stroke="#000000" stroke-width="1.7317" points="102.595,291.683 122.798,285.39 124.53,290.528 
			101.439,296.878 		"/>
	</g>
	<g>
		<g>
			<polygon fill="#B6C4A0" stroke="#000000" stroke-width="0.9586" points="489.822,232.197 502.411,232.197 503.379,205.31 
				488.209,207.841 			"/>
			<polygon fill="#A3B588" stroke="#000000" stroke-width="0.9586" points="489.822,249.752 501.766,252.124 503.38,231.248 
				487.886,229.666 			"/>
			<polygon fill="#91A770" stroke="#000000" stroke-width="0.8589" points="489.822,266.035 501.766,267.94 503.38,251.179 
				487.886,249.91 			"/>
			<polygon fill="#7E9858" stroke="#000000" stroke-width="0.7811" points="490.147,277.988 501.44,282.491 503.701,265.7 
				488.209,264.65 			"/>
			<polygon fill="#6C8940" stroke="#000000" stroke-width="0.6836" points="490.147,287.582 501.44,291.03 503.701,278.171 
				488.209,277.366 			"/>
		</g>
		<g>
			<polygon fill="#2E3B1B" stroke="#000000" stroke-width="0.9586" points="501.766,348.283 489.178,348.283 488.209,375.17 
				503.38,372.641 			"/>
			<polygon fill="#3E4E25" stroke="#000000" stroke-width="0.9586" points="501.766,330.729 489.824,328.354 488.209,349.233 
				503.701,350.816 			"/>
			<polygon fill="#4D622E" stroke="#000000" stroke-width="0.8589" points="501.766,314.446 489.824,312.54 488.209,329.3 
				503.701,330.571 			"/>
			<polygon fill="#5D7537" stroke="#000000" stroke-width="0.7811" points="501.442,302.491 490.147,297.989 487.886,314.779 
				503.38,315.828 			"/>
			<polygon fill="#6C8940" stroke="#000000" stroke-width="0.6836" points="501.442,292.897 490.147,289.449 487.886,302.311 
				503.38,303.113 			"/>
		</g>
		<polygon fill="#1F2712" stroke="#000000" stroke-width="0.9586" points="501.44,291.03 490.147,287.582 489.178,290.399 
			502.088,293.878 		"/>
	</g>
	<g>
		<g>
			<polygon fill="#B6C4A0" stroke="#000000" stroke-width="0.8413" points="470.638,239.298 481.687,239.298 482.535,215.7 
				469.223,217.922 			"/>
			<polygon fill="#A3B588" stroke="#000000" stroke-width="0.8413" points="470.638,254.706 481.119,256.787 482.537,238.465 
				468.938,237.077 			"/>
			<polygon fill="#91A770" stroke="#000000" stroke-width="0.7538" points="470.638,268.996 481.119,270.668 482.537,255.958 
				468.938,254.844 			"/>
			<polygon fill="#7E9858" stroke="#000000" stroke-width="0.6856" points="470.924,279.487 480.834,283.438 482.819,268.703 
				469.223,267.78 			"/>
			<polygon fill="#6C8940" stroke="#000000" stroke-width="0.6" points="470.924,287.908 480.834,290.934 482.819,279.647 
				469.223,278.941 			"/>
		</g>
		<g>
			<polygon fill="#2E3B1B" stroke="#000000" stroke-width="0.8413" points="481.119,341.182 470.073,341.182 469.223,364.78 
				482.537,362.56 			"/>
			<polygon fill="#3E4E25" stroke="#000000" stroke-width="0.8413" points="481.119,325.775 470.64,323.691 469.223,342.016 
				482.819,343.405 			"/>
			<polygon fill="#4D622E" stroke="#000000" stroke-width="0.7538" points="481.119,311.484 470.64,309.813 469.223,324.521 
				482.819,325.637 			"/>
			<polygon fill="#5D7537" stroke="#000000" stroke-width="0.6856" points="480.836,300.993 470.924,297.041 468.938,311.777 
				482.537,312.697 			"/>
			<polygon fill="#6C8940" stroke="#000000" stroke-width="0.6" points="480.836,292.572 470.924,289.545 468.938,300.834 
				482.537,301.539 			"/>
		</g>
		<polygon fill="#1F2712" stroke="#000000" stroke-width="0.8413" points="480.834,290.934 470.924,287.908 470.073,290.379 
			481.403,293.434 		"/>
	</g>
	<g>
		<g>
			<polygon fill="#B6C4A0" stroke="#000000" stroke-width="1.6174" points="156.245,191.308 135.218,191.308 133.601,145.479 
				158.94,149.793 			"/>
			<polygon fill="#A3B588" stroke="#000000" stroke-width="1.6174" points="156.245,221.229 136.296,225.273 133.601,189.691 
				159.479,186.993 			"/>
			<polygon fill="#91A770" stroke="#000000" stroke-width="1.4492" points="156.245,248.984 136.296,252.23 133.601,223.663 
				159.479,221.5 			"/>
			<polygon fill="#7E9858" stroke="#000000" stroke-width="1.318" points="155.704,269.356 136.835,277.031 133.06,248.414 
				158.94,246.622 			"/>
			<polygon fill="#6C8940" stroke="#000000" stroke-width="1.1535" points="155.704,285.709 136.835,291.587 133.06,269.667 
				158.94,268.297 			"/>
		</g>
		<g>
			<polygon fill="#2E3B1B" stroke="#000000" stroke-width="1.6174" points="136.294,389.173 157.321,389.173 158.94,435 
				133.601,430.688 			"/>
			<polygon fill="#3E4E25" stroke="#000000" stroke-width="1.6174" points="136.294,359.247 156.244,355.206 158.94,390.791 
				133.06,393.488 			"/>
			<polygon fill="#4D622E" stroke="#000000" stroke-width="1.4492" points="136.294,331.498 156.244,328.25 158.94,356.815 
				133.06,358.982 			"/>
			<polygon fill="#5D7537" stroke="#000000" stroke-width="1.318" points="136.835,311.124 155.704,303.45 159.479,332.067 
				133.601,333.858 			"/>
			<polygon fill="#6C8940" stroke="#000000" stroke-width="1.1535" points="136.835,294.771 155.704,288.892 159.479,310.813 
				133.601,312.184 			"/>
		</g>
		<polygon fill="#1F2712" stroke="#000000" stroke-width="1.6174" points="136.835,291.587 155.704,285.709 157.321,290.511 
			135.756,296.441 		"/>
	</g>
	<g>
		<g>
			<polygon fill="#B6C4A0" stroke="#000000" stroke-width="0.8111" points="185.156,240.627 174.611,240.627 173.8,217.644 
				186.507,219.808 			"/>
			<polygon fill="#A3B588" stroke="#000000" stroke-width="0.8111" points="185.156,255.632 175.151,257.66 173.8,239.816 
				186.778,238.463 			"/>
			<polygon fill="#91A770" stroke="#000000" stroke-width="0.7268" points="185.156,269.551 175.151,271.179 173.8,256.853 
				186.778,255.767 			"/>
			<polygon fill="#7E9858" stroke="#000000" stroke-width="0.661" points="184.884,279.768 175.422,283.616 173.529,269.264 
				186.507,268.366 			"/>
			<polygon fill="#6C8940" stroke="#000000" stroke-width="0.5785" points="184.884,287.968 175.422,290.916 173.529,279.923 
				186.507,279.236 			"/>
		</g>
		<g>
			<polygon fill="#2E3B1B" stroke="#000000" stroke-width="0.8111" points="175.15,339.854 185.695,339.854 186.507,362.835 
				173.8,360.673 			"/>
			<polygon fill="#3E4E25" stroke="#000000" stroke-width="0.8111" points="175.15,324.847 185.155,322.819 186.507,340.665 
				173.529,342.018 			"/>
			<polygon fill="#4D622E" stroke="#000000" stroke-width="0.7268" points="175.15,310.931 185.155,309.302 186.507,323.628 
				173.529,324.713 			"/>
			<polygon fill="#5D7537" stroke="#000000" stroke-width="0.661" points="175.422,300.712 184.884,296.864 186.778,311.216 
				173.8,312.114 			"/>
			<polygon fill="#6C8940" stroke="#000000" stroke-width="0.5785" points="175.422,292.512 184.884,289.563 186.778,300.556 
				173.8,301.244 			"/>
		</g>
		<polygon fill="#1F2712" stroke="#000000" stroke-width="0.8111" points="175.422,290.916 184.884,287.968 185.695,290.376 
			174.881,293.35 		"/>
	</g>
	<g>
		<g>
			<polygon fill="#B6C4A0" stroke="#000000" stroke-width="0.7596" points="206.032,243.778 196.158,243.778 195.397,222.255 
				207.298,224.281 			"/>
			<polygon fill="#A3B588" stroke="#000000" stroke-width="0.7596" points="206.032,257.83 196.663,259.729 195.397,243.02 
				207.551,241.751 			"/>
			<polygon fill="#91A770" stroke="#000000" stroke-width="0.6806" points="206.032,270.865 196.663,272.389 195.397,258.973 
				207.551,257.956 			"/>
			<polygon fill="#7E9858" stroke="#000000" stroke-width="0.619" points="205.777,280.433 196.917,284.037 195.144,270.597 
				207.298,269.755 			"/>
			<polygon fill="#6C8940" stroke="#000000" stroke-width="0.5417" points="205.777,288.112 196.917,290.873 195.144,280.579 
				207.298,279.935 			"/>
		</g>
		<g>
			<polygon fill="#2E3B1B" stroke="#000000" stroke-width="0.7596" points="196.662,336.702 206.537,336.702 207.298,358.225 
				195.397,356.198 			"/>
			<polygon fill="#3E4E25" stroke="#000000" stroke-width="0.7596" points="196.662,322.649 206.032,320.75 207.298,337.462 
				195.144,338.729 			"/>
			<polygon fill="#4D622E" stroke="#000000" stroke-width="0.6806" points="196.662,309.615 206.032,308.09 207.298,321.507 
				195.144,322.523 			"/>
			<polygon fill="#5D7537" stroke="#000000" stroke-width="0.619" points="196.917,300.048 205.777,296.443 207.551,309.884 
				195.397,310.726 			"/>
			<polygon fill="#6C8940" stroke="#000000" stroke-width="0.5417" points="196.917,292.367 205.777,289.607 207.551,299.9 
				195.397,300.546 			"/>
		</g>
		<polygon fill="#1F2712" stroke="#000000" stroke-width="0.7596" points="196.917,290.873 205.777,288.112 206.537,290.368 
			196.41,293.153 		"/>
	</g>
	<g>
		<g>
			<polygon fill="#BF90BD" stroke="#000000" stroke-width="0.7174" points="233.039,250.551 223.229,250.551 222.473,231.231 
				234.297,233.05 			"/>
			<polygon fill="#AE74AD" stroke="#000000" stroke-width="0.7174" points="233.039,263.167 223.731,264.872 222.473,249.869 
				234.549,248.733 			"/>
			<polygon fill="#9E599C" stroke="#000000" stroke-width="0.6428" points="233.039,274.867 223.731,276.236 222.473,264.191 
				234.549,263.279 			"/>
			<polygon fill="#8E3D8C" stroke="#000000" stroke-width="0.5846" points="232.788,283.457 223.983,286.692 222.221,274.627 
				234.297,273.873 			"/>
			<polygon fill="#7E217B" stroke="#000000" stroke-width="0.5116" points="232.788,290.353 223.983,292.83 222.221,283.587 
				234.297,283.01 			"/>
		</g>
		<g>
			<polygon fill="#360E35" stroke="#000000" stroke-width="0.7174" points="223.73,333.971 233.541,333.971 234.297,353.29 
				222.473,351.474 			"/>
			<polygon fill="#481346" stroke="#000000" stroke-width="0.7174" points="223.73,321.356 233.038,319.651 234.297,334.652 
				222.221,335.79 			"/>
			<polygon fill="#5A1858" stroke="#000000" stroke-width="0.6428" points="223.73,309.655 233.038,308.285 234.297,320.328 
				222.221,321.241 			"/>
			<polygon fill="#6C1C69" stroke="#000000" stroke-width="0.5846" points="223.982,301.063 232.786,297.829 234.549,309.896 
				222.473,310.649 			"/>
			<polygon fill="#7E217B" stroke="#000000" stroke-width="0.5116" points="223.982,294.169 232.786,291.691 234.549,300.932 
				222.473,301.512 			"/>
		</g>
		<polygon fill="#360E35" stroke="#000000" stroke-width="0.7174" points="223.983,292.83 232.788,290.353 233.543,292.376 
			223.479,294.876 		"/>
	</g>
	<g>
		<g>
			<polygon fill="#BF90BD" stroke="#000000" stroke-width="0.7825" points="447.658,246.764 458.358,246.764 459.184,225.691 
				446.287,227.674 			"/>
			<polygon fill="#AE74AD" stroke="#000000" stroke-width="0.7825" points="447.658,260.525 457.811,262.385 459.184,246.021 
				446.01,244.782 			"/>
			<polygon fill="#9E599C" stroke="#000000" stroke-width="0.7011" points="447.658,273.289 457.811,274.782 459.184,261.644 
				446.01,260.648 			"/>
			<polygon fill="#8E3D8C" stroke="#000000" stroke-width="0.6377" points="447.933,282.657 457.535,286.187 459.458,273.026 
				446.287,272.204 			"/>
			<polygon fill="#7E217B" stroke="#000000" stroke-width="0.5581" points="447.933,290.18 457.535,292.882 459.458,282.8 
				446.287,282.17 			"/>
		</g>
		<g>
			<polygon fill="#360E35" stroke="#000000" stroke-width="0.7825" points="457.813,337.757 447.108,337.757 446.287,358.83 
				459.184,356.849 			"/>
			<polygon fill="#481346" stroke="#000000" stroke-width="0.7825" points="457.813,323.998 447.658,322.138 446.287,338.499 
				459.458,339.742 			"/>
			<polygon fill="#5A1858" stroke="#000000" stroke-width="0.7011" points="457.813,311.234 447.658,309.739 446.287,322.877 
				459.458,323.873 			"/>
			<polygon fill="#6C1C69" stroke="#000000" stroke-width="0.6377" points="457.536,301.86 447.934,298.334 446.01,311.497 
				459.184,312.318 			"/>
			<polygon fill="#7E217B" stroke="#000000" stroke-width="0.5581" points="457.536,294.342 447.934,291.639 446.01,301.719 
				459.184,302.353 			"/>
		</g>
		<polygon fill="#360E35" stroke="#000000" stroke-width="0.7825" points="457.535,292.882 447.933,290.18 447.108,292.387 
			458.084,295.112 		"/>
	</g>
	<g>
		<g>
			<polygon fill="#BF90BD" stroke="#000000" stroke-width="0.7471" points="427.389,248.822 437.606,248.822 438.395,228.701 
				426.08,230.595 			"/>
			<polygon fill="#AE74AD" stroke="#000000" stroke-width="0.7471" points="427.389,261.96 437.082,263.737 438.395,248.112 
				425.815,246.929 			"/>
			<polygon fill="#9E599C" stroke="#000000" stroke-width="0.6694" points="427.389,274.146 437.082,275.572 438.395,263.028 
				425.815,262.079 			"/>
			<polygon fill="#8E3D8C" stroke="#000000" stroke-width="0.6088" points="427.651,283.092 436.819,286.461 438.654,273.896 
				426.08,273.111 			"/>
			<polygon fill="#7E217B" stroke="#000000" stroke-width="0.5328" points="427.651,290.274 436.819,292.854 438.654,283.228 
				426.08,282.627 			"/>
		</g>
		<g>
			<polygon fill="#360E35" stroke="#000000" stroke-width="0.7471" points="437.084,335.699 426.865,335.699 426.08,355.82 
				438.395,353.928 			"/>
			<polygon fill="#481346" stroke="#000000" stroke-width="0.7471" points="437.084,322.562 427.389,320.786 426.08,336.409 
				438.654,337.595 			"/>
			<polygon fill="#5A1858" stroke="#000000" stroke-width="0.6694" points="437.084,310.377 427.389,308.95 426.08,321.491 
				438.654,322.443 			"/>
			<polygon fill="#6C1C69" stroke="#000000" stroke-width="0.6088" points="436.821,301.426 427.653,298.061 425.815,310.627 
				438.395,311.412 			"/>
			<polygon fill="#7E217B" stroke="#000000" stroke-width="0.5328" points="436.821,294.247 427.653,291.668 425.815,301.291 
				438.395,301.896 			"/>
		</g>
		<polygon fill="#360E35" stroke="#000000" stroke-width="0.7471" points="436.819,292.854 427.651,290.274 426.865,292.382 
			437.344,294.984 		"/>
	</g>
	<g>
		<g>
			<polygon fill="#BF90BD" stroke="#000000" stroke-width="0.6348" points="248.832,252.878 240.695,252.878 240.068,234.635 
				249.875,236.353 			"/>
			<polygon fill="#AE74AD" stroke="#000000" stroke-width="0.6348" points="248.832,264.79 241.112,266.399 240.068,252.233 
				250.084,251.161 			"/>
			<polygon fill="#9E599C" stroke="#000000" stroke-width="0.5688" points="248.832,275.837 241.112,277.13 240.068,265.758 
				250.084,264.896 			"/>
			<polygon fill="#8E3D8C" stroke="#000000" stroke-width="0.5173" points="248.623,283.948 241.321,287.003 239.859,275.61 
				249.875,274.898 			"/>
			<polygon fill="#7E217B" stroke="#000000" stroke-width="0.4528" points="248.623,290.459 241.321,292.798 239.859,284.071 
				249.875,283.526 			"/>
		</g>
		<g>
			<polygon fill="#360E35" stroke="#000000" stroke-width="0.6348" points="241.111,331.644 249.248,331.644 249.875,349.886 
				240.068,348.171 			"/>
			<polygon fill="#481346" stroke="#000000" stroke-width="0.6348" points="241.111,319.732 248.831,318.124 249.875,332.288 
				239.859,333.361 			"/>
			<polygon fill="#5A1858" stroke="#000000" stroke-width="0.5688" points="241.111,308.685 248.831,307.391 249.875,318.762 
				239.859,319.624 			"/>
			<polygon fill="#6C1C69" stroke="#000000" stroke-width="0.5173" points="241.32,300.572 248.622,297.518 250.084,308.911 
				240.068,309.623 			"/>
			<polygon fill="#7E217B" stroke="#000000" stroke-width="0.4528" points="241.32,294.063 248.622,291.724 250.084,300.448 
				240.068,300.996 			"/>
		</g>
		<polygon fill="#360E35" stroke="#000000" stroke-width="0.6348" points="241.321,292.798 248.623,290.459 249.25,292.37 
			240.903,294.73 		"/>
	</g>
	<g>
		<g>
			<polygon fill="#BF90BD" stroke="#000000" stroke-width="0.6199" points="265.419,254.393 257.353,254.393 256.73,236.853 
				266.455,238.504 			"/>
			<polygon fill="#AE74AD" stroke="#000000" stroke-width="0.6199" points="265.419,265.847 257.765,267.395 256.73,253.773 
				266.662,252.743 			"/>
			<polygon fill="#9E599C" stroke="#000000" stroke-width="0.5554" points="265.419,276.469 257.765,277.711 256.73,266.777 
				266.662,265.949 			"/>
			<polygon fill="#8E3D8C" stroke="#000000" stroke-width="0.5051" points="265.213,284.268 257.972,287.205 256.523,276.251 
				266.455,275.566 			"/>
			<polygon fill="#7E217B" stroke="#000000" stroke-width="0.4421" points="265.213,290.528 257.972,292.777 256.523,284.387 
				266.455,283.861 			"/>
		</g>
		<g>
			<polygon fill="#360E35" stroke="#000000" stroke-width="0.6199" points="257.765,330.128 265.832,330.128 266.455,347.669 
				256.73,346.02 			"/>
			<polygon fill="#481346" stroke="#000000" stroke-width="0.6199" points="257.765,318.676 265.419,317.13 266.455,330.747 
				256.523,331.78 			"/>
			<polygon fill="#5A1858" stroke="#000000" stroke-width="0.5554" points="257.765,308.052 265.419,306.809 266.455,317.742 
				256.523,318.57 			"/>
			<polygon fill="#6C1C69" stroke="#000000" stroke-width="0.5051" points="257.972,300.252 265.212,297.314 266.662,308.27 
				256.73,308.955 			"/>
			<polygon fill="#7E217B" stroke="#000000" stroke-width="0.4421" points="257.972,293.993 265.212,291.744 266.662,300.134 
				256.73,300.66 			"/>
		</g>
		<polygon fill="#360E35" stroke="#000000" stroke-width="0.6199" points="257.972,292.777 265.213,290.528 265.833,292.364 
			257.558,294.636 		"/>
	</g>
	<g>
		<g>
			<polygon fill="#BF90BD" stroke="#000000" stroke-width="0.6013" points="283.587,255.529 275.763,255.529 275.159,238.515 
				284.591,240.116 			"/>
			<polygon fill="#AE74AD" stroke="#000000" stroke-width="0.6013" points="283.587,266.639 276.163,268.141 275.159,254.928 
				284.792,253.928 			"/>
			<polygon fill="#9E599C" stroke="#000000" stroke-width="0.5387" points="283.587,276.942 276.163,278.148 275.159,267.542 
				284.792,266.738 			"/>
			<polygon fill="#8E3D8C" stroke="#000000" stroke-width="0.49" points="283.388,284.507 276.364,287.356 274.958,276.731 
				284.591,276.067 			"/>
			<polygon fill="#7E217B" stroke="#000000" stroke-width="0.4288" points="283.388,290.58 276.364,292.762 274.958,284.623 
				284.591,284.113 			"/>
		</g>
		<g>
			<polygon fill="#360E35" stroke="#000000" stroke-width="0.6013" points="276.163,328.991 283.988,328.991 284.591,346.007 
				275.159,344.406 			"/>
			<polygon fill="#481346" stroke="#000000" stroke-width="0.6013" points="276.163,317.883 283.587,316.384 284.591,329.592 
				274.958,330.595 			"/>
			<polygon fill="#5A1858" stroke="#000000" stroke-width="0.5387" points="276.163,307.578 283.587,306.372 284.591,316.978 
				274.958,317.781 			"/>
			<polygon fill="#6C1C69" stroke="#000000" stroke-width="0.49" points="276.363,300.012 283.387,297.162 284.792,307.79 
				275.159,308.454 			"/>
			<polygon fill="#7E217B" stroke="#000000" stroke-width="0.4288" points="276.363,293.94 283.387,291.759 284.792,299.897 
				275.159,300.408 			"/>
		</g>
		<polygon fill="#360E35" stroke="#000000" stroke-width="0.6013" points="276.364,292.762 283.388,290.58 283.99,292.361 
			275.962,294.564 		"/>
	</g>
	<g>
		<g>
			<polygon fill="#BF90BD" stroke="#000000" stroke-width="0.5512" points="300.454,258.587 293.279,258.587 292.726,242.988 
				301.374,244.457 			"/>
			<polygon fill="#AE74AD" stroke="#000000" stroke-width="0.5512" points="300.454,268.771 293.646,270.148 292.726,258.036 
				301.558,257.118 			"/>
			<polygon fill="#9E599C" stroke="#000000" stroke-width="0.4939" points="300.454,278.217 293.646,279.322 292.726,269.599 
				301.558,268.863 			"/>
			<polygon fill="#8E3D8C" stroke="#000000" stroke-width="0.4492" points="300.27,285.153 293.831,287.765 292.542,278.024 
				301.374,277.415 			"/>
			<polygon fill="#7E217B" stroke="#000000" stroke-width="0.3931" points="300.27,290.721 293.831,292.72 292.542,285.258 
				301.374,284.792 			"/>
		</g>
		<g>
			<polygon fill="#360E35" stroke="#000000" stroke-width="0.5512" points="293.646,325.934 300.82,325.934 301.374,341.533 
				292.726,340.067 			"/>
			<polygon fill="#481346" stroke="#000000" stroke-width="0.5512" points="293.646,315.75 300.454,314.377 301.374,326.485 
				292.542,327.403 			"/>
			<polygon fill="#5A1858" stroke="#000000" stroke-width="0.4939" points="293.646,306.303 300.454,305.197 301.374,314.921 
				292.542,315.657 			"/>
			<polygon fill="#6C1C69" stroke="#000000" stroke-width="0.4492" points="293.83,299.366 300.269,296.755 301.558,306.498 
				292.726,307.106 			"/>
			<polygon fill="#7E217B" stroke="#000000" stroke-width="0.3931" points="293.83,293.801 300.269,291.802 301.558,299.261 
				292.726,299.729 			"/>
		</g>
		<polygon fill="#360E35" stroke="#000000" stroke-width="0.5512" points="293.831,292.72 300.27,290.721 300.822,292.353 
			293.462,294.374 		"/>
	</g>
	<g>
		<g>
			<polygon fill="#BF90BD" stroke="#000000" stroke-width="0.5331" points="316.962,259.694 310.024,259.694 309.488,244.608 
				317.852,246.029 			"/>
			<polygon fill="#AE74AD" stroke="#000000" stroke-width="0.5331" points="316.962,269.543 310.379,270.875 309.488,259.161 
				318.03,258.274 			"/>
			<polygon fill="#9E599C" stroke="#000000" stroke-width="0.4777" points="316.962,278.679 310.379,279.748 309.488,270.344 
				318.03,269.632 			"/>
			<polygon fill="#8E3D8C" stroke="#000000" stroke-width="0.4344" points="316.785,285.386 310.557,287.913 309.311,278.493 
				317.852,277.903 			"/>
			<polygon fill="#7E217B" stroke="#000000" stroke-width="0.3802" points="316.785,290.771 310.557,292.704 309.311,285.488 
				317.852,285.037 			"/>
		</g>
		<g>
			<polygon fill="#360E35" stroke="#000000" stroke-width="0.5331" points="310.379,324.826 317.317,324.826 317.852,339.913 
				309.488,338.496 			"/>
			<polygon fill="#481346" stroke="#000000" stroke-width="0.5331" points="310.379,314.977 316.962,313.649 317.852,325.36 
				309.311,326.249 			"/>
			<polygon fill="#5A1858" stroke="#000000" stroke-width="0.4777" points="310.379,305.842 316.962,304.771 317.852,314.176 
				309.311,314.888 			"/>
			<polygon fill="#6C1C69" stroke="#000000" stroke-width="0.4344" points="310.556,299.133 316.784,296.607 318.03,306.029 
				309.488,306.617 			"/>
			<polygon fill="#7E217B" stroke="#000000" stroke-width="0.3802" points="310.556,293.75 316.784,291.816 318.03,299.031 
				309.488,299.484 			"/>
		</g>
		<polygon fill="#360E35" stroke="#000000" stroke-width="0.5331" points="310.557,292.704 316.785,290.771 317.318,292.35 
			310.201,294.305 		"/>
	</g>
</g>
<g id="Arrows" opacity="0.3">
	<g>
		<g>
			<line fill="none" stroke="#000000" stroke-width="8.6587" x1="29.955" y1="144.196" x2="74.114" y2="150.257"/>
			<path d="M72.732,150.067c-3.09-4.074-3.829-11.402-3.293-16.337c4.01,7.276,9.611,13.914,16.893,18.204
				c-8.15,2.033-15.099,7.303-21.173,12.983C66.302,159.707,68.469,153.49,72.732,150.067z"/>
		</g>
	</g>
	<g>
		<g>
			<line fill="none" stroke="#000000" stroke-width="8.6587" x1="29.762" y1="184.534" x2="74.307" y2="186.115"/>
			<path d="M72.913,186.066c-3.485-3.742-4.958-10.959-4.922-15.923c4.722,6.835,10.964,12.875,18.641,16.41
				c-7.904,2.843-14.286,8.787-19.758,15.05C67.486,196.304,69.017,189.901,72.913,186.066z"/>
		</g>
	</g>
	<g>
		<g>
			<line fill="none" stroke="#000000" stroke-width="8.6587" x1="30.484" y1="233.36" x2="73.585" y2="221.999"/>
			<path d="M72.236,222.354c-4.418-2.575-7.914-9.058-9.315-13.82c6.497,5.178,14.217,9.156,22.589,10.321
				c-6.745,5.006-11.137,12.541-14.564,20.119C70,233.724,69.614,227.151,72.236,222.354z"/>
		</g>
	</g>
	<g>
		<g>
			<line fill="none" stroke="#000000" stroke-width="9.4899" x1="186.01" y1="180.654" x2="237.139" y2="196.03"/>
			<path d="M235.674,195.589c-2.654-4.936-2.208-12.997-0.789-18.249c3.105,8.56,8.041,16.698,15.197,22.582
				c-9.17,0.815-17.589,5.34-25.132,10.458C227.073,204.933,230.477,198.571,235.674,195.589z"/>
		</g>
	</g>
	<g>
		<g>
			<line fill="none" stroke="#000000" stroke-width="9.0813" x1="355.298" y1="255.442" x2="404.242" y2="256.33"/>
			<path d="M402.779,256.303c-3.723-3.86-5.399-11.402-5.452-16.607c5.077,7.082,11.731,13.301,19.847,16.868
				c-8.236,3.125-14.821,9.474-20.445,16.142C397.275,267.138,398.763,260.396,402.779,256.303z"/>
		</g>
	</g>
	<g>
		<g>
			<line fill="none" stroke="#000000" stroke-width="13.5834" x1="716.473" y1="196.699" x2="824.635" y2="184.507"/>
			<path d="M822.46,184.752c-6.271-5.001-10.225-15.859-11.315-23.57c8.906,9.515,19.985,17.445,32.714,21.158
				c-11.607,6.237-20.139,16.933-27.183,27.915C816.403,201.892,817.3,191.603,822.46,184.752z"/>
		</g>
	</g>
	<g>
		<g>
			<line fill="none" stroke="#000000" stroke-width="13.5834" x1="716.146" y1="234.58" x2="824.961" y2="231.873"/>
			<path d="M822.772,231.927c-5.812-5.529-8.801-16.691-9.215-24.467c8.042,10.256,18.387,19.123,30.743,23.932
				c-12.107,5.2-21.539,15.11-29.515,25.436C815.244,248.473,817.035,238.301,822.772,231.927z"/>
		</g>
	</g>
	<g>
		<g>
			<line fill="none" stroke="#000000" stroke-width="13.5834" x1="716.135" y1="291.296" x2="824.973" y2="292.914"/>
			<path d="M822.784,292.882c-5.587-5.756-8.131-17.028-8.235-24.814c7.627,10.567,17.612,19.838,29.768,25.135
				c-12.305,4.715-22.123,14.242-30.502,24.243C814.604,309.115,816.797,299.022,822.784,292.882z"/>
		</g>
	</g>
	<g>
		<g>
			<line fill="none" stroke="#000000" stroke-width="12.3274" x1="536.52" y1="219.52" x2="622.766" y2="244.227"/>
			<path d="M620.856,243.68c-3.531-6.366-3.09-16.844-1.336-23.69c4.179,11.065,10.729,21.552,20.123,29.072
				c-11.896,1.215-22.755,7.236-32.466,14.012C609.844,255.963,614.156,247.641,620.856,243.68z"/>
		</g>
	</g>
</g>
<g id="Labels">
	<g>
		<g>
			<line fill="none" stroke="#000000" stroke-width="2" x1="87.968" y1="62.515" x2="114.521" y2="166.42"/>
			<polygon points="111.552,164.388 114.44,166.101 116.153,163.212 116.651,165.164 114.938,168.052 112.051,166.339 			"/>
		</g>
	</g>
	<g>
		<g>
			<line fill="none" stroke="#000000" stroke-width="2" x1="223.044" y1="62.515" x2="266.915" y2="242.617"/>
			<polygon points="263.969,240.551 266.837,242.296 268.583,239.427 269.059,241.384 267.313,244.253 264.446,242.508 			"/>
		</g>
	</g>
	<g>
		<g>
			<line fill="none" stroke="#000000" stroke-width="2" x1="351.193" y1="122.549" x2="361.583" y2="271.479"/>
			<polygon points="359.027,268.946 361.561,271.15 363.764,268.616 363.904,270.625 361.701,273.159 359.168,270.956 			"/>
		</g>
	</g>
	<g>
		<g>
			<line fill="none" stroke="#000000" stroke-width="2" x1="432.008" y1="64.824" x2="435.472" y2="257.625"/>
			<polygon points="433.05,254.964 435.466,257.295 437.798,254.878 437.834,256.893 435.502,259.309 433.086,256.978 			"/>
		</g>
	</g>
	<g>
		<g>
			<line fill="none" stroke="#000000" stroke-width="2" x1="119.14" y1="517.387" x2="180.153" y2="351.344"/>
			<polygon points="181.448,354.701 180.04,351.653 176.992,353.063 177.687,351.172 180.734,349.763 182.143,352.81 			"/>
		</g>
	</g>
	<g>
		<g>
			<line fill="none" stroke="#000000" stroke-width="2" x1="339.648" y1="459.662" x2="354.657" y2="293.415"/>
			<polygon points="356.777,296.322 354.627,293.743 352.048,295.895 352.229,293.889 354.808,291.737 356.958,294.315 			"/>
		</g>
	</g>
	<g>
		<g>
			<line fill="none" stroke="#000000" stroke-width="2" x1="378.202" y1="519.695" x2="392.056" y2="341.903"/>
			<polygon points="394.212,344.784 392.031,342.231 389.479,344.415 389.635,342.406 392.187,340.224 394.369,342.775 			"/>
		</g>
	</g>
	<g>
		<g>
			<line fill="none" stroke="#000000" stroke-width="2" x1="535.913" y1="518.542" x2="497" y2="366"/>
			<polygon points="499.968,368.034 497.081,366.319 495.367,369.207 494.869,367.256 496.584,364.368 499.471,366.082 			"/>
		</g>
	</g>
	<g>
		<g>
			<line fill="none" stroke="#000000" stroke-width="2" x1="669.834" y1="518.542" x2="574" y2="366"/>
			<polygon points="577.448,367.027 574.175,366.279 573.428,369.553 572.356,367.848 573.104,364.574 576.377,365.321 			"/>
		</g>
	</g>
	<g>
		<path d="M58.817,37.532h9.2v1.85h-6.995v5.677h6.463v1.825h-6.463v7.73h-2.205V37.532z"/>
		<path d="M78.557,51.674c0,1.064,0.051,2.104,0.203,2.94h-2.028l-0.177-1.546h-0.076c-0.684,0.963-2.002,1.825-3.751,1.825
			c-2.484,0-3.751-1.749-3.751-3.523c0-2.965,2.636-4.587,7.375-4.562v-0.253c0-1.014-0.279-2.839-2.788-2.839
			c-1.141,0-2.332,0.355-3.193,0.913l-0.507-1.47c1.014-0.659,2.484-1.09,4.03-1.09c3.751,0,4.663,2.56,4.663,5.019V51.674z
			 M76.403,48.354c-2.433-0.051-5.196,0.38-5.196,2.763c0,1.445,0.963,2.129,2.104,2.129c1.597,0,2.61-1.014,2.965-2.053
			c0.076-0.228,0.126-0.482,0.126-0.71V48.354z"/>
		<path d="M82.152,45.667c0-1.267-0.025-2.306-0.101-3.32h1.977l0.127,2.028h0.051c0.608-1.166,2.027-2.307,4.055-2.307
			c1.698,0,4.334,1.014,4.334,5.221v7.325h-2.23v-7.071c0-1.977-0.735-3.624-2.839-3.624c-1.47,0-2.61,1.039-2.991,2.281
			c-0.101,0.279-0.152,0.659-0.152,1.039v7.375h-2.23V45.667z"/>
	</g>
	<g>
		<path d="M186.863,13.288v7.147h8.262v-7.147h2.23V30.37h-2.23v-8.009h-8.262v8.009h-2.205V13.288H186.863z"/>
		<path d="M203.838,14.656c0.025,0.76-0.532,1.369-1.419,1.369c-0.786,0-1.343-0.608-1.343-1.369c0-0.786,0.583-1.394,1.394-1.394
			C203.306,13.262,203.838,13.871,203.838,14.656z M201.354,30.37V18.103h2.23V30.37H201.354z"/>
		<path d="M217.75,28.596c0,2.813-0.557,4.537-1.749,5.601c-1.191,1.115-2.915,1.47-4.461,1.47c-1.47,0-3.092-0.354-4.08-1.014
			l0.557-1.698c0.811,0.507,2.079,0.963,3.599,0.963c2.281,0,3.954-1.191,3.954-4.283v-1.369h-0.051
			c-0.685,1.141-2.002,2.053-3.903,2.053c-3.042,0-5.221-2.585-5.221-5.981c0-4.156,2.712-6.514,5.525-6.514
			c2.129,0,3.295,1.115,3.827,2.129h0.051l0.101-1.851h1.952c-0.051,0.887-0.102,1.875-0.102,3.371V28.596z M215.546,22.944
			c0-0.38-0.025-0.709-0.127-1.014c-0.405-1.292-1.495-2.357-3.117-2.357c-2.129,0-3.65,1.799-3.65,4.638
			c0,2.408,1.217,4.41,3.625,4.41c1.369,0,2.61-0.861,3.092-2.281c0.127-0.38,0.178-0.811,0.178-1.191V22.944z"/>
		<path d="M221.446,12.375h2.23v7.654h0.051c0.354-0.633,0.912-1.191,1.597-1.571c0.659-0.38,1.444-0.634,2.281-0.634
			c1.647,0,4.284,1.014,4.284,5.247v7.299h-2.23v-7.046c0-1.977-0.735-3.649-2.839-3.649c-1.444,0-2.585,1.014-2.991,2.23
			c-0.126,0.304-0.152,0.634-0.152,1.064v7.401h-2.23V12.375z"/>
		<path d="M240.679,22.69v1.647h-6.26V22.69H240.679z"/>
		<path d="M243.287,22.108c0-1.572-0.051-2.839-0.101-4.005h2.002l0.102,2.104h0.051c0.912-1.496,2.357-2.383,4.359-2.383
			c2.965,0,5.196,2.509,5.196,6.235c0,4.41-2.687,6.59-5.576,6.59c-1.622,0-3.042-0.709-3.776-1.926h-0.051v6.666h-2.205V22.108z
			 M245.492,25.377c0,0.33,0.051,0.634,0.102,0.913c0.405,1.546,1.749,2.61,3.345,2.61c2.357,0,3.726-1.926,3.726-4.739
			c0-2.458-1.292-4.562-3.649-4.562c-1.521,0-2.94,1.09-3.371,2.763c-0.076,0.279-0.152,0.608-0.152,0.912V25.377z"/>
		<path d="M257.703,21.93c0-1.444-0.025-2.687-0.101-3.827h1.951l0.076,2.408h0.102c0.558-1.647,1.901-2.687,3.396-2.687
			c0.253,0,0.431,0.025,0.634,0.076v2.104c-0.228-0.05-0.457-0.076-0.76-0.076c-1.572,0-2.687,1.191-2.991,2.864
			c-0.051,0.304-0.102,0.659-0.102,1.039v6.539h-2.205V21.93z"/>
		<path d="M266.977,24.642c0.05,3.016,1.977,4.258,4.207,4.258c1.597,0,2.56-0.279,3.396-0.633l0.38,1.597
			c-0.786,0.355-2.129,0.786-4.081,0.786c-3.776,0-6.032-2.509-6.032-6.209s2.18-6.615,5.753-6.615c4.004,0,5.069,3.523,5.069,5.779
			c0,0.456-0.05,0.811-0.076,1.039H266.977z M273.516,23.045c0.025-1.419-0.583-3.625-3.092-3.625c-2.256,0-3.244,2.079-3.422,3.625
			H273.516z"/>
		<path d="M278.125,28.089c0.659,0.431,1.825,0.887,2.94,0.887c1.622,0,2.383-0.811,2.383-1.825c0-1.064-0.634-1.647-2.281-2.256
			c-2.205-0.786-3.244-2.002-3.244-3.472c0-1.977,1.597-3.599,4.232-3.599c1.242,0,2.332,0.355,3.016,0.761l-0.558,1.622
			c-0.481-0.304-1.369-0.71-2.509-0.71c-1.318,0-2.053,0.76-2.053,1.673c0,1.014,0.735,1.47,2.332,2.078
			c2.129,0.811,3.219,1.875,3.219,3.701c0,2.154-1.673,3.7-4.587,3.7c-1.343,0-2.585-0.355-3.447-0.862L278.125,28.089z"/>
		<path d="M288.158,28.089c0.659,0.431,1.825,0.887,2.94,0.887c1.622,0,2.383-0.811,2.383-1.825c0-1.064-0.634-1.647-2.281-2.256
			c-2.205-0.786-3.244-2.002-3.244-3.472c0-1.977,1.597-3.599,4.232-3.599c1.242,0,2.332,0.355,3.016,0.761l-0.558,1.622
			c-0.481-0.304-1.369-0.71-2.509-0.71c-1.318,0-2.053,0.76-2.053,1.673c0,1.014,0.735,1.47,2.332,2.078
			c2.129,0.811,3.219,1.875,3.219,3.701c0,2.154-1.673,3.7-4.587,3.7c-1.343,0-2.585-0.355-3.447-0.862L288.158,28.089z"/>
		<path d="M308.761,27.024c0,1.268,0.025,2.383,0.102,3.346h-1.977l-0.126-2.002h-0.051c-0.583,0.989-1.875,2.281-4.055,2.281
			c-1.926,0-4.233-1.064-4.233-5.373v-7.173h2.23v6.792c0,2.332,0.71,3.903,2.737,3.903c1.496,0,2.535-1.039,2.94-2.028
			c0.127-0.329,0.203-0.735,0.203-1.14v-7.528h2.23V27.024z"/>
		<path d="M312.457,21.93c0-1.444-0.025-2.687-0.101-3.827h1.951l0.076,2.408h0.102c0.558-1.647,1.901-2.687,3.396-2.687
			c0.253,0,0.431,0.025,0.634,0.076v2.104c-0.228-0.05-0.457-0.076-0.76-0.076c-1.572,0-2.687,1.191-2.991,2.864
			c-0.051,0.304-0.102,0.659-0.102,1.039v6.539h-2.205V21.93z"/>
		<path d="M321.731,24.642c0.05,3.016,1.977,4.258,4.207,4.258c1.597,0,2.56-0.279,3.396-0.633l0.38,1.597
			c-0.786,0.355-2.129,0.786-4.081,0.786c-3.776,0-6.032-2.509-6.032-6.209s2.18-6.615,5.753-6.615c4.004,0,5.069,3.523,5.069,5.779
			c0,0.456-0.05,0.811-0.076,1.039H321.731z M328.27,23.045c0.025-1.419-0.583-3.625-3.092-3.625c-2.256,0-3.244,2.079-3.422,3.625
			H328.27z"/>
		<path d="M193.326,52.427c-0.583,0.304-1.875,0.735-3.523,0.735c-3.7,0-6.108-2.535-6.108-6.286c0-3.776,2.585-6.514,6.59-6.514
			c1.318,0,2.484,0.33,3.092,0.634l-0.507,1.724c-0.532-0.304-1.368-0.583-2.585-0.583c-2.813,0-4.334,2.078-4.334,4.638
			c0,2.838,1.825,4.587,4.258,4.587c1.268,0,2.104-0.33,2.737-0.608L193.326,52.427z"/>
		<path d="M206.882,46.648c0,4.537-3.143,6.514-6.108,6.514c-3.32,0-5.88-2.433-5.88-6.311c0-4.105,2.687-6.514,6.083-6.514
			C204.5,40.337,206.882,42.897,206.882,46.648z M197.149,46.775c0,2.687,1.546,4.714,3.726,4.714c2.129,0,3.726-2.002,3.726-4.765
			c0-2.079-1.04-4.714-3.675-4.714S197.149,44.443,197.149,46.775z"/>
		<path d="M209.691,43.936c0-1.267-0.025-2.306-0.101-3.32h1.951l0.102,1.977h0.076c0.684-1.166,1.825-2.256,3.852-2.256
			c1.673,0,2.94,1.014,3.473,2.458h0.05c0.38-0.684,0.862-1.216,1.369-1.597c0.735-0.558,1.546-0.862,2.712-0.862
			c1.622,0,4.03,1.064,4.03,5.323v7.223h-2.18v-6.944c0-2.357-0.861-3.776-2.661-3.776c-1.267,0-2.255,0.938-2.636,2.027
			c-0.102,0.304-0.177,0.71-0.177,1.115v7.578h-2.18v-7.35c0-1.952-0.862-3.371-2.56-3.371c-1.394,0-2.408,1.115-2.763,2.23
			c-0.126,0.33-0.177,0.71-0.177,1.09v7.401h-2.18V43.936z"/>
		<path d="M230.822,44.621c0-1.572-0.051-2.839-0.101-4.005h2.002l0.102,2.104h0.051c0.912-1.496,2.357-2.383,4.359-2.383
			c2.965,0,5.196,2.509,5.196,6.235c0,4.41-2.687,6.59-5.576,6.59c-1.622,0-3.042-0.709-3.776-1.926h-0.051v6.666h-2.205V44.621z
			 M233.027,47.89c0,0.33,0.051,0.634,0.102,0.913c0.405,1.546,1.749,2.61,3.345,2.61c2.357,0,3.726-1.926,3.726-4.739
			c0-2.458-1.292-4.562-3.649-4.562c-1.521,0-2.94,1.09-3.371,2.763c-0.076,0.279-0.152,0.608-0.152,0.912V47.89z"/>
		<path d="M245.239,44.443c0-1.444-0.025-2.687-0.101-3.827h1.951l0.076,2.408h0.102c0.558-1.647,1.901-2.687,3.396-2.687
			c0.253,0,0.431,0.025,0.634,0.076v2.104c-0.228-0.05-0.457-0.076-0.76-0.076c-1.572,0-2.687,1.191-2.991,2.864
			c-0.051,0.304-0.102,0.659-0.102,1.039v6.539h-2.205V44.443z"/>
		<path d="M254.513,47.155c0.05,3.016,1.977,4.258,4.207,4.258c1.597,0,2.56-0.279,3.396-0.633l0.38,1.597
			c-0.786,0.355-2.129,0.786-4.081,0.786c-3.776,0-6.032-2.509-6.032-6.209s2.18-6.615,5.753-6.615c4.004,0,5.069,3.523,5.069,5.779
			c0,0.456-0.05,0.811-0.076,1.039H254.513z M261.051,45.558c0.025-1.419-0.583-3.625-3.092-3.625c-2.256,0-3.244,2.079-3.422,3.625
			H261.051z"/>
		<path d="M265.66,50.602c0.659,0.431,1.825,0.887,2.94,0.887c1.622,0,2.383-0.811,2.383-1.825c0-1.064-0.634-1.647-2.281-2.256
			c-2.205-0.786-3.244-2.002-3.244-3.472c0-1.977,1.597-3.599,4.232-3.599c1.242,0,2.332,0.355,3.016,0.761l-0.558,1.622
			c-0.481-0.304-1.369-0.71-2.509-0.71c-1.318,0-2.053,0.76-2.053,1.673c0,1.014,0.735,1.47,2.332,2.078
			c2.129,0.811,3.219,1.875,3.219,3.701c0,2.154-1.673,3.7-4.587,3.7c-1.343,0-2.585-0.355-3.447-0.862L265.66,50.602z"/>
		<path d="M275.694,50.602c0.659,0.431,1.825,0.887,2.94,0.887c1.622,0,2.383-0.811,2.383-1.825c0-1.064-0.634-1.647-2.281-2.256
			c-2.205-0.786-3.244-2.002-3.244-3.472c0-1.977,1.597-3.599,4.232-3.599c1.242,0,2.332,0.355,3.016,0.761l-0.558,1.622
			c-0.481-0.304-1.369-0.71-2.509-0.71c-1.318,0-2.053,0.76-2.053,1.673c0,1.014,0.735,1.47,2.332,2.078
			c2.129,0.811,3.219,1.875,3.219,3.701c0,2.154-1.673,3.7-4.587,3.7c-1.343,0-2.585-0.355-3.447-0.862L275.694,50.602z"/>
		<path d="M297.133,46.648c0,4.537-3.143,6.514-6.108,6.514c-3.32,0-5.88-2.433-5.88-6.311c0-4.105,2.687-6.514,6.083-6.514
			C294.75,40.337,297.133,42.897,297.133,46.648z M287.4,46.775c0,2.687,1.546,4.714,3.726,4.714c2.129,0,3.726-2.002,3.726-4.765
			c0-2.079-1.04-4.714-3.675-4.714S287.4,44.443,287.4,46.775z"/>
		<path d="M299.942,44.443c0-1.444-0.025-2.687-0.101-3.827h1.951l0.076,2.408h0.102c0.558-1.647,1.901-2.687,3.396-2.687
			c0.253,0,0.431,0.025,0.634,0.076v2.104c-0.228-0.05-0.457-0.076-0.76-0.076c-1.572,0-2.687,1.191-2.991,2.864
			c-0.051,0.304-0.102,0.659-0.102,1.039v6.539h-2.205V44.443z"/>
	</g>
	<g>
		<path d="M368.118,13.288v7.147h8.262v-7.147h2.23V30.37h-2.23v-8.009h-8.262v8.009h-2.205V13.288H368.118z"/>
		<path d="M385.094,14.656c0.025,0.76-0.532,1.369-1.419,1.369c-0.786,0-1.343-0.608-1.343-1.369c0-0.786,0.583-1.394,1.394-1.394
			C384.562,13.262,385.094,13.871,385.094,14.656z M382.61,30.37V18.103h2.23V30.37H382.61z"/>
		<path d="M399.006,28.596c0,2.813-0.558,4.537-1.749,5.601c-1.191,1.115-2.915,1.47-4.461,1.47c-1.47,0-3.092-0.354-4.081-1.014
			l0.558-1.698c0.811,0.507,2.079,0.963,3.599,0.963c2.281,0,3.954-1.191,3.954-4.283v-1.369h-0.05
			c-0.685,1.141-2.002,2.053-3.903,2.053c-3.042,0-5.221-2.585-5.221-5.981c0-4.156,2.712-6.514,5.525-6.514
			c2.129,0,3.295,1.115,3.827,2.129h0.051l0.101-1.851h1.952c-0.051,0.887-0.102,1.875-0.102,3.371V28.596z M396.801,22.944
			c0-0.38-0.025-0.709-0.127-1.014c-0.405-1.292-1.495-2.357-3.117-2.357c-2.129,0-3.65,1.799-3.65,4.638
			c0,2.408,1.217,4.41,3.625,4.41c1.369,0,2.61-0.861,3.092-2.281c0.127-0.38,0.178-0.811,0.178-1.191V22.944z"/>
		<path d="M402.702,12.375h2.23v7.654h0.051c0.354-0.633,0.912-1.191,1.597-1.571c0.659-0.38,1.444-0.634,2.281-0.634
			c1.647,0,4.284,1.014,4.284,5.247v7.299h-2.23v-7.046c0-1.977-0.735-3.649-2.839-3.649c-1.444,0-2.585,1.014-2.991,2.23
			c-0.126,0.304-0.152,0.634-0.152,1.064v7.401h-2.23V12.375z"/>
		<path d="M421.934,22.69v1.647h-6.26V22.69H421.934z"/>
		<path d="M424.542,22.108c0-1.572-0.051-2.839-0.101-4.005h2.002l0.102,2.104h0.051c0.912-1.496,2.357-2.383,4.359-2.383
			c2.965,0,5.196,2.509,5.196,6.235c0,4.41-2.687,6.59-5.576,6.59c-1.622,0-3.042-0.709-3.776-1.926h-0.051v6.666h-2.205V22.108z
			 M426.747,25.377c0,0.33,0.051,0.634,0.102,0.913c0.405,1.546,1.749,2.61,3.345,2.61c2.357,0,3.726-1.926,3.726-4.739
			c0-2.458-1.292-4.562-3.649-4.562c-1.521,0-2.94,1.09-3.371,2.763c-0.076,0.279-0.152,0.608-0.152,0.912V25.377z"/>
		<path d="M438.959,21.93c0-1.444-0.025-2.687-0.102-3.827h1.951l0.076,2.408h0.102c0.558-1.647,1.9-2.687,3.396-2.687
			c0.253,0,0.431,0.025,0.633,0.076v2.104c-0.228-0.05-0.456-0.076-0.76-0.076c-1.571,0-2.687,1.191-2.991,2.864
			c-0.051,0.304-0.101,0.659-0.101,1.039v6.539h-2.205V21.93z"/>
		<path d="M448.232,24.642c0.051,3.016,1.978,4.258,4.207,4.258c1.598,0,2.561-0.279,3.396-0.633l0.381,1.597
			c-0.786,0.355-2.13,0.786-4.081,0.786c-3.776,0-6.032-2.509-6.032-6.209s2.18-6.615,5.754-6.615c4.004,0,5.068,3.523,5.068,5.779
			c0,0.456-0.051,0.811-0.076,1.039H448.232z M454.771,23.045c0.025-1.419-0.583-3.625-3.092-3.625
			c-2.256,0-3.244,2.079-3.422,3.625H454.771z"/>
		<path d="M459.38,28.089c0.659,0.431,1.825,0.887,2.94,0.887c1.622,0,2.382-0.811,2.382-1.825c0-1.064-0.634-1.647-2.28-2.256
			c-2.205-0.786-3.244-2.002-3.244-3.472c0-1.977,1.597-3.599,4.232-3.599c1.241,0,2.331,0.355,3.016,0.761l-0.558,1.622
			c-0.481-0.304-1.368-0.71-2.509-0.71c-1.318,0-2.053,0.76-2.053,1.673c0,1.014,0.734,1.47,2.331,2.078
			c2.129,0.811,3.219,1.875,3.219,3.701c0,2.154-1.673,3.7-4.587,3.7c-1.344,0-2.585-0.355-3.447-0.862L459.38,28.089z"/>
		<path d="M469.413,28.089c0.659,0.431,1.825,0.887,2.94,0.887c1.622,0,2.382-0.811,2.382-1.825c0-1.064-0.634-1.647-2.28-2.256
			c-2.205-0.786-3.244-2.002-3.244-3.472c0-1.977,1.597-3.599,4.232-3.599c1.241,0,2.331,0.355,3.016,0.761l-0.558,1.622
			c-0.481-0.304-1.368-0.71-2.509-0.71c-1.318,0-2.053,0.76-2.053,1.673c0,1.014,0.734,1.47,2.331,2.078
			c2.129,0.811,3.219,1.875,3.219,3.701c0,2.154-1.673,3.7-4.587,3.7c-1.344,0-2.585-0.355-3.447-0.862L469.413,28.089z"/>
		<path d="M490.016,27.024c0,1.268,0.025,2.383,0.101,3.346h-1.977l-0.127-2.002h-0.051c-0.583,0.989-1.875,2.281-4.055,2.281
			c-1.927,0-4.232-1.064-4.232-5.373v-7.173h2.23v6.792c0,2.332,0.709,3.903,2.737,3.903c1.495,0,2.534-1.039,2.939-2.028
			c0.127-0.329,0.203-0.735,0.203-1.14v-7.528h2.23V27.024z"/>
		<path d="M493.712,21.93c0-1.444-0.025-2.687-0.102-3.827h1.951l0.076,2.408h0.102c0.558-1.647,1.9-2.687,3.396-2.687
			c0.253,0,0.431,0.025,0.633,0.076v2.104c-0.228-0.05-0.456-0.076-0.76-0.076c-1.571,0-2.687,1.191-2.991,2.864
			c-0.051,0.304-0.102,0.659-0.102,1.039v6.539h-2.204V21.93z"/>
		<path d="M502.985,24.642c0.051,3.016,1.978,4.258,4.208,4.258c1.597,0,2.56-0.279,3.396-0.633l0.381,1.597
			c-0.786,0.355-2.13,0.786-4.081,0.786c-3.776,0-6.032-2.509-6.032-6.209s2.18-6.615,5.754-6.615c4.004,0,5.068,3.523,5.068,5.779
			c0,0.456-0.051,0.811-0.076,1.039H502.985z M509.524,23.045c0.025-1.419-0.583-3.625-3.092-3.625
			c-2.256,0-3.244,2.079-3.422,3.625H509.524z"/>
		<path d="M368.523,37.676v2.94h3.193v1.698h-3.193v6.615c0,1.521,0.431,2.382,1.673,2.382c0.608,0,0.963-0.051,1.292-0.152
			l0.102,1.673c-0.431,0.178-1.115,0.33-1.977,0.33c-1.039,0-1.875-0.355-2.408-0.963c-0.634-0.659-0.862-1.749-0.862-3.194v-6.691
			h-1.901v-1.698h1.901V38.36L368.523,37.676z"/>
		<path d="M384.488,49.537c0,1.268,0.025,2.383,0.102,3.346h-1.977l-0.126-2.002h-0.051c-0.583,0.989-1.875,2.281-4.055,2.281
			c-1.926,0-4.233-1.064-4.233-5.373v-7.173h2.23v6.792c0,2.332,0.71,3.903,2.737,3.903c1.496,0,2.535-1.039,2.94-2.028
			c0.127-0.329,0.203-0.735,0.203-1.14v-7.528h2.23V49.537z"/>
		<path d="M388.185,44.443c0-1.444-0.025-2.687-0.101-3.827h1.951l0.076,2.408h0.102c0.558-1.647,1.901-2.687,3.396-2.687
			c0.253,0,0.431,0.025,0.634,0.076v2.104c-0.228-0.05-0.457-0.076-0.76-0.076c-1.572,0-2.687,1.191-2.991,2.864
			c-0.051,0.304-0.102,0.659-0.102,1.039v6.539h-2.205V44.443z"/>
		<path d="M396.571,34.888h2.205v7.705h0.051c0.786-1.369,2.205-2.256,4.182-2.256c3.042,0,5.196,2.535,5.17,6.26
			c0,4.385-2.763,6.564-5.5,6.564c-1.774,0-3.194-0.684-4.106-2.306h-0.076l-0.102,2.027h-1.926c0.05-0.836,0.101-2.078,0.101-3.168
			V34.888z M398.776,47.966c0,0.279,0.051,0.558,0.102,0.811c0.431,1.546,1.723,2.611,3.345,2.611c2.332,0,3.726-1.901,3.726-4.714
			c0-2.458-1.267-4.562-3.649-4.562c-1.521,0-2.94,1.039-3.396,2.737c-0.051,0.253-0.127,0.558-0.127,0.912V47.966z"/>
		<path d="M413.471,37.169c0.025,0.76-0.532,1.369-1.419,1.369c-0.786,0-1.343-0.608-1.343-1.369c0-0.786,0.583-1.394,1.394-1.394
			C412.939,35.775,413.471,36.383,413.471,37.169z M410.987,52.883V40.616h2.23v12.267H410.987z"/>
		<path d="M416.916,43.936c0-1.267-0.025-2.306-0.101-3.32h1.977l0.127,2.028h0.051c0.608-1.166,2.027-2.307,4.055-2.307
			c1.698,0,4.334,1.014,4.334,5.221v7.325h-2.23v-7.071c0-1.977-0.735-3.624-2.839-3.624c-1.47,0-2.61,1.039-2.991,2.281
			c-0.101,0.279-0.152,0.659-0.152,1.039v7.375h-2.23V43.936z"/>
		<path d="M432.22,47.155c0.05,3.016,1.977,4.258,4.208,4.258c1.597,0,2.56-0.279,3.396-0.633l0.381,1.597
			c-0.786,0.355-2.13,0.786-4.081,0.786c-3.776,0-6.032-2.509-6.032-6.209s2.18-6.615,5.754-6.615c4.004,0,5.068,3.523,5.068,5.779
			c0,0.456-0.051,0.811-0.076,1.039H432.22z M438.759,45.558c0.025-1.419-0.583-3.625-3.092-3.625c-2.256,0-3.244,2.079-3.422,3.625
			H438.759z"/>
	</g>
	<g>
		<path d="M274.604,72.167v7.147h8.262v-7.147h2.23V89.25h-2.23v-8.009h-8.262v8.009h-2.205V72.167H274.604z"/>
		<path d="M291.58,73.536c0.025,0.76-0.532,1.369-1.419,1.369c-0.786,0-1.343-0.608-1.343-1.369c0-0.786,0.583-1.394,1.394-1.394
			C291.047,72.142,291.58,72.75,291.58,73.536z M289.096,89.25V76.982h2.23V89.25H289.096z"/>
		<path d="M305.492,87.476c0,2.813-0.557,4.537-1.749,5.601c-1.191,1.115-2.915,1.47-4.461,1.47c-1.47,0-3.092-0.354-4.08-1.014
			l0.557-1.698c0.811,0.507,2.079,0.963,3.599,0.963c2.281,0,3.954-1.191,3.954-4.283v-1.369h-0.051
			c-0.685,1.141-2.002,2.053-3.903,2.053c-3.042,0-5.221-2.585-5.221-5.981c0-4.156,2.712-6.514,5.525-6.514
			c2.129,0,3.295,1.115,3.827,2.129h0.051l0.101-1.851h1.952c-0.051,0.887-0.102,1.875-0.102,3.371V87.476z M303.287,81.823
			c0-0.38-0.025-0.709-0.127-1.014c-0.405-1.292-1.495-2.357-3.117-2.357c-2.129,0-3.65,1.799-3.65,4.638
			c0,2.408,1.217,4.41,3.625,4.41c1.369,0,2.61-0.861,3.092-2.281c0.127-0.38,0.178-0.811,0.178-1.191V81.823z"/>
		<path d="M309.188,71.255h2.23v7.654h0.051c0.354-0.633,0.912-1.191,1.597-1.571c0.659-0.38,1.444-0.634,2.281-0.634
			c1.647,0,4.284,1.014,4.284,5.247v7.299h-2.23v-7.046c0-1.977-0.735-3.649-2.839-3.649c-1.444,0-2.585,1.014-2.991,2.23
			c-0.126,0.304-0.152,0.634-0.152,1.064v7.401h-2.23V71.255z"/>
		<path d="M328.42,81.57v1.647h-6.26V81.57H328.42z"/>
		<path d="M331.028,80.987c0-1.572-0.051-2.839-0.101-4.005h2.002l0.102,2.104h0.051c0.912-1.496,2.357-2.383,4.359-2.383
			c2.965,0,5.196,2.509,5.196,6.235c0,4.41-2.687,6.59-5.576,6.59c-1.622,0-3.042-0.709-3.776-1.926h-0.051v6.666h-2.205V80.987z
			 M333.233,84.256c0,0.33,0.051,0.634,0.102,0.913c0.405,1.546,1.749,2.61,3.345,2.61c2.357,0,3.726-1.926,3.726-4.739
			c0-2.458-1.292-4.562-3.649-4.562c-1.521,0-2.94,1.09-3.371,2.763c-0.076,0.279-0.152,0.608-0.152,0.912V84.256z"/>
		<path d="M345.444,80.81c0-1.444-0.025-2.687-0.101-3.827h1.951l0.076,2.408h0.102c0.558-1.647,1.901-2.687,3.396-2.687
			c0.253,0,0.431,0.025,0.634,0.076v2.104c-0.228-0.05-0.457-0.076-0.76-0.076c-1.572,0-2.687,1.191-2.991,2.864
			c-0.051,0.304-0.102,0.659-0.102,1.039v6.539h-2.205V80.81z"/>
		<path d="M354.718,83.521c0.05,3.016,1.977,4.258,4.207,4.258c1.597,0,2.56-0.279,3.396-0.633l0.38,1.597
			c-0.786,0.355-2.129,0.786-4.081,0.786c-3.776,0-6.032-2.509-6.032-6.209s2.18-6.615,5.753-6.615c4.004,0,5.069,3.523,5.069,5.779
			c0,0.456-0.05,0.811-0.076,1.039H354.718z M361.257,81.925c0.025-1.419-0.583-3.624-3.092-3.624c-2.256,0-3.244,2.078-3.422,3.624
			H361.257z"/>
		<path d="M365.866,86.968c0.659,0.431,1.825,0.887,2.94,0.887c1.622,0,2.383-0.811,2.383-1.825c0-1.064-0.634-1.647-2.281-2.256
			c-2.205-0.786-3.244-2.002-3.244-3.472c0-1.977,1.597-3.599,4.232-3.599c1.242,0,2.332,0.355,3.016,0.761l-0.558,1.622
			c-0.481-0.304-1.369-0.71-2.509-0.71c-1.318,0-2.053,0.76-2.053,1.673c0,1.014,0.735,1.47,2.332,2.078
			c2.129,0.811,3.219,1.875,3.219,3.701c0,2.154-1.673,3.7-4.587,3.7c-1.343,0-2.585-0.355-3.447-0.862L365.866,86.968z"/>
		<path d="M375.899,86.968c0.659,0.431,1.825,0.887,2.94,0.887c1.622,0,2.383-0.811,2.383-1.825c0-1.064-0.634-1.647-2.281-2.256
			c-2.205-0.786-3.244-2.002-3.244-3.472c0-1.977,1.597-3.599,4.232-3.599c1.242,0,2.332,0.355,3.016,0.761l-0.558,1.622
			c-0.481-0.304-1.369-0.71-2.509-0.71c-1.318,0-2.053,0.76-2.053,1.673c0,1.014,0.735,1.47,2.332,2.078
			c2.129,0.811,3.219,1.875,3.219,3.701c0,2.154-1.673,3.7-4.587,3.7c-1.343,0-2.585-0.355-3.447-0.862L375.899,86.968z"/>
		<path d="M396.502,85.904c0,1.268,0.025,2.383,0.102,3.346h-1.977l-0.126-2.002h-0.051c-0.583,0.989-1.875,2.281-4.055,2.281
			c-1.926,0-4.233-1.064-4.233-5.373v-7.173h2.23v6.792c0,2.332,0.71,3.903,2.737,3.903c1.496,0,2.535-1.039,2.94-2.028
			c0.127-0.329,0.203-0.735,0.203-1.14v-7.528h2.23V85.904z"/>
		<path d="M400.198,80.81c0-1.444-0.025-2.687-0.101-3.827h1.951l0.076,2.408h0.102c0.558-1.647,1.901-2.687,3.396-2.687
			c0.253,0,0.431,0.025,0.634,0.076v2.104c-0.228-0.05-0.457-0.076-0.76-0.076c-1.572,0-2.687,1.191-2.991,2.864
			c-0.051,0.304-0.102,0.659-0.102,1.039v6.539h-2.205V80.81z"/>
		<path d="M409.472,83.521c0.05,3.016,1.977,4.258,4.207,4.258c1.597,0,2.56-0.279,3.396-0.633l0.38,1.597
			c-0.786,0.355-2.129,0.786-4.081,0.786c-3.776,0-6.032-2.509-6.032-6.209s2.18-6.615,5.753-6.615c4.004,0,5.069,3.523,5.069,5.779
			c0,0.456-0.05,0.811-0.076,1.039H409.472z M416.011,81.925c0.025-1.419-0.583-3.624-3.092-3.624c-2.256,0-3.244,2.078-3.422,3.624
			H416.011z"/>
		<path d="M272.019,109.481c0.659,0.431,1.825,0.887,2.94,0.887c1.622,0,2.383-0.811,2.383-1.825c0-1.064-0.634-1.647-2.281-2.256
			c-2.205-0.786-3.244-2.002-3.244-3.472c0-1.977,1.597-3.599,4.232-3.599c1.242,0,2.332,0.355,3.016,0.761l-0.558,1.622
			c-0.481-0.304-1.369-0.71-2.509-0.71c-1.318,0-2.053,0.76-2.053,1.673c0,1.014,0.735,1.47,2.332,2.078
			c2.129,0.811,3.219,1.875,3.219,3.701c0,2.154-1.673,3.7-4.587,3.7c-1.343,0-2.585-0.355-3.447-0.862L272.019,109.481z"/>
		<path d="M282.356,93.768h2.23v7.654h0.051c0.354-0.633,0.912-1.191,1.597-1.571c0.659-0.38,1.444-0.634,2.281-0.634
			c1.647,0,4.284,1.014,4.284,5.247v7.299h-2.23v-7.046c0-1.977-0.735-3.649-2.839-3.649c-1.444,0-2.585,1.014-2.991,2.23
			c-0.126,0.304-0.152,0.634-0.152,1.064v7.401h-2.23V93.768z"/>
		<path d="M305.036,108.822c0,1.064,0.051,2.104,0.203,2.94h-2.028l-0.177-1.546h-0.076c-0.684,0.963-2.002,1.825-3.751,1.825
			c-2.484,0-3.751-1.749-3.751-3.523c0-2.965,2.636-4.587,7.375-4.562v-0.253c0-1.014-0.279-2.839-2.788-2.839
			c-1.141,0-2.332,0.355-3.193,0.913l-0.507-1.47c1.014-0.659,2.484-1.09,4.03-1.09c3.751,0,4.663,2.56,4.663,5.019V108.822z
			 M302.881,105.502c-2.433-0.051-5.196,0.38-5.196,2.763c0,1.445,0.963,2.129,2.104,2.129c1.597,0,2.61-1.014,2.965-2.053
			c0.076-0.229,0.126-0.482,0.126-0.71V105.502z"/>
		<path d="M308.859,111.762v-10.569h-1.723v-1.698h1.723v-0.583c0-1.724,0.38-3.295,1.419-4.284c0.836-0.811,1.952-1.14,2.991-1.14
			c0.786,0,1.47,0.177,1.901,0.354l-0.304,1.724c-0.33-0.152-0.786-0.279-1.419-0.279c-1.901,0-2.382,1.673-2.382,3.548v0.659h2.965
			v1.698h-2.965v10.569H308.859z"/>
		<path d="M318.994,96.555v2.94h3.193v1.698h-3.193v6.615c0,1.521,0.431,2.382,1.673,2.382c0.608,0,0.963-0.051,1.292-0.152
			l0.102,1.673c-0.431,0.178-1.115,0.33-1.977,0.33c-1.039,0-1.875-0.355-2.408-0.963c-0.634-0.659-0.862-1.749-0.862-3.194v-6.691
			h-1.901v-1.698h1.901V97.24L318.994,96.555z"/>
	</g>
	<g>
		<path d="M63.436,523.576h2.205v15.231h7.299v1.851h-9.504V523.576z"/>
		<path d="M86.065,534.424c0,4.536-3.143,6.513-6.108,6.513c-3.32,0-5.88-2.433-5.88-6.311c0-4.105,2.687-6.514,6.083-6.514
			C83.683,528.112,86.065,530.672,86.065,534.424z M76.333,534.55c0,2.687,1.546,4.715,3.726,4.715c2.129,0,3.726-2.003,3.726-4.766
			c0-2.078-1.04-4.714-3.675-4.714S76.333,532.219,76.333,534.55z"/>
		<path d="M89.584,528.392l1.622,6.234c0.355,1.369,0.684,2.636,0.912,3.903h0.076c0.279-1.242,0.685-2.56,1.09-3.903l2.002-6.234
			h1.875l1.901,6.133c0.456,1.471,0.811,2.763,1.09,4.005h0.076c0.203-1.242,0.533-2.534,0.938-3.979l1.749-6.158h2.205
			l-3.954,12.267h-2.027l-1.876-5.854c-0.431-1.369-0.786-2.585-1.089-4.03h-0.051c-0.304,1.471-0.685,2.737-1.115,4.056
			l-1.977,5.829h-2.027l-3.701-12.267H89.584z"/>
		<path d="M112.414,532.979v1.647h-6.26v-1.647H112.414z"/>
		<path d="M115.022,532.396c0-1.571-0.051-2.838-0.101-4.004h2.002l0.102,2.104h0.051c0.912-1.495,2.357-2.383,4.359-2.383
			c2.965,0,5.196,2.51,5.196,6.235c0,4.41-2.687,6.589-5.576,6.589c-1.622,0-3.042-0.709-3.776-1.926h-0.051v6.666h-2.205V532.396z
			 M117.227,535.665c0,0.33,0.051,0.634,0.102,0.913c0.405,1.546,1.749,2.61,3.345,2.61c2.357,0,3.726-1.927,3.726-4.74
			c0-2.458-1.292-4.562-3.649-4.562c-1.521,0-2.94,1.09-3.371,2.763c-0.076,0.278-0.152,0.608-0.152,0.912V535.665z"/>
		<path d="M129.438,532.219c0-1.445-0.025-2.687-0.101-3.827h1.951l0.076,2.407h0.102c0.558-1.647,1.901-2.687,3.396-2.687
			c0.253,0,0.431,0.025,0.634,0.076v2.104c-0.228-0.051-0.457-0.076-0.76-0.076c-1.572,0-2.687,1.191-2.991,2.864
			c-0.051,0.304-0.102,0.659-0.102,1.039v6.539h-2.205V532.219z"/>
		<path d="M138.712,534.931c0.05,3.016,1.977,4.258,4.207,4.258c1.597,0,2.56-0.279,3.396-0.634l0.38,1.597
			c-0.786,0.354-2.129,0.785-4.081,0.785c-3.776,0-6.032-2.509-6.032-6.209s2.18-6.615,5.753-6.615c4.004,0,5.069,3.523,5.069,5.779
			c0,0.456-0.05,0.811-0.076,1.039H138.712z M145.251,533.334c0.025-1.42-0.583-3.625-3.092-3.625c-2.256,0-3.244,2.078-3.422,3.625
			H145.251z"/>
		<path d="M149.86,538.377c0.659,0.431,1.825,0.888,2.94,0.888c1.622,0,2.383-0.812,2.383-1.825c0-1.064-0.634-1.647-2.281-2.256
			c-2.205-0.785-3.244-2.002-3.244-3.472c0-1.978,1.597-3.6,4.232-3.6c1.242,0,2.332,0.355,3.016,0.761l-0.558,1.622
			c-0.481-0.305-1.369-0.71-2.509-0.71c-1.318,0-2.053,0.761-2.053,1.673c0,1.014,0.735,1.47,2.332,2.078
			c2.129,0.812,3.219,1.876,3.219,3.7c0,2.154-1.673,3.7-4.587,3.7c-1.343,0-2.585-0.354-3.447-0.861L149.86,538.377z"/>
		<path d="M159.894,538.377c0.659,0.431,1.825,0.888,2.94,0.888c1.622,0,2.383-0.812,2.383-1.825c0-1.064-0.634-1.647-2.281-2.256
			c-2.205-0.785-3.244-2.002-3.244-3.472c0-1.978,1.597-3.6,4.232-3.6c1.242,0,2.332,0.355,3.016,0.761l-0.558,1.622
			c-0.481-0.305-1.369-0.71-2.509-0.71c-1.318,0-2.053,0.761-2.053,1.673c0,1.014,0.735,1.47,2.332,2.078
			c2.129,0.812,3.219,1.876,3.219,3.7c0,2.154-1.673,3.7-4.587,3.7c-1.343,0-2.585-0.354-3.447-0.861L159.894,538.377z"/>
		<path d="M180.496,537.313c0,1.268,0.025,2.383,0.102,3.346h-1.977l-0.126-2.002h-0.051c-0.583,0.988-1.875,2.28-4.055,2.28
			c-1.926,0-4.233-1.064-4.233-5.373v-7.172h2.23v6.792c0,2.332,0.71,3.903,2.737,3.903c1.496,0,2.535-1.039,2.94-2.027
			c0.127-0.33,0.203-0.735,0.203-1.141v-7.527h2.23V537.313z"/>
		<path d="M184.192,532.219c0-1.445-0.025-2.687-0.101-3.827h1.951l0.076,2.407h0.102c0.558-1.647,1.901-2.687,3.396-2.687
			c0.253,0,0.431,0.025,0.634,0.076v2.104c-0.228-0.051-0.457-0.076-0.76-0.076c-1.572,0-2.687,1.191-2.991,2.864
			c-0.051,0.304-0.102,0.659-0.102,1.039v6.539h-2.205V532.219z"/>
		<path d="M193.467,534.931c0.05,3.016,1.977,4.258,4.207,4.258c1.597,0,2.56-0.279,3.396-0.634l0.38,1.597
			c-0.786,0.354-2.129,0.785-4.081,0.785c-3.776,0-6.032-2.509-6.032-6.209s2.18-6.615,5.753-6.615c4.004,0,5.069,3.523,5.069,5.779
			c0,0.456-0.05,0.811-0.076,1.039H193.467z M200.005,533.334c0.025-1.42-0.583-3.625-3.092-3.625c-2.256,0-3.244,2.078-3.422,3.625
			H200.005z"/>
		<path d="M72.104,562.715c-0.583,0.304-1.875,0.734-3.523,0.734c-3.7,0-6.108-2.534-6.108-6.285c0-3.776,2.585-6.514,6.59-6.514
			c1.318,0,2.484,0.33,3.092,0.634l-0.507,1.724c-0.533-0.305-1.369-0.583-2.585-0.583c-2.813,0-4.334,2.078-4.334,4.638
			c0,2.839,1.825,4.588,4.258,4.588c1.268,0,2.104-0.33,2.737-0.608L72.104,562.715z"/>
		<path d="M85.66,556.937c0,4.536-3.143,6.513-6.108,6.513c-3.32,0-5.88-2.433-5.88-6.311c0-4.105,2.687-6.514,6.083-6.514
			C83.277,550.625,85.66,553.185,85.66,556.937z M75.927,557.063c0,2.687,1.546,4.715,3.726,4.715c2.129,0,3.726-2.003,3.726-4.766
			c0-2.078-1.04-4.714-3.675-4.714S75.927,554.731,75.927,557.063z"/>
		<path d="M88.469,554.225c0-1.268-0.025-2.307-0.101-3.32h1.951l0.102,1.977h0.076c0.684-1.166,1.825-2.256,3.852-2.256
			c1.673,0,2.94,1.014,3.473,2.459h0.05c0.38-0.685,0.862-1.217,1.369-1.597c0.735-0.558,1.546-0.862,2.712-0.862
			c1.622,0,4.03,1.064,4.03,5.322v7.224h-2.18v-6.944c0-2.357-0.861-3.776-2.661-3.776c-1.267,0-2.255,0.938-2.636,2.027
			c-0.102,0.305-0.177,0.71-0.177,1.115v7.578h-2.18v-7.35c0-1.952-0.862-3.371-2.56-3.371c-1.394,0-2.408,1.115-2.763,2.23
			c-0.126,0.329-0.177,0.709-0.177,1.09v7.4h-2.18V554.225z"/>
		<path d="M109.6,554.908c0-1.571-0.051-2.838-0.101-4.004h2.002l0.102,2.104h0.051c0.912-1.495,2.357-2.383,4.359-2.383
			c2.965,0,5.196,2.51,5.196,6.235c0,4.41-2.687,6.589-5.576,6.589c-1.622,0-3.042-0.709-3.776-1.926h-0.051v6.666H109.6V554.908z
			 M111.805,558.178c0,0.33,0.051,0.634,0.102,0.913c0.405,1.546,1.749,2.61,3.345,2.61c2.357,0,3.726-1.927,3.726-4.74
			c0-2.458-1.292-4.562-3.649-4.562c-1.521,0-2.94,1.09-3.371,2.763c-0.076,0.278-0.152,0.608-0.152,0.912V558.178z"/>
		<path d="M124.017,554.731c0-1.445-0.025-2.687-0.101-3.827h1.951l0.076,2.407h0.102c0.558-1.647,1.901-2.687,3.396-2.687
			c0.253,0,0.431,0.025,0.634,0.076v2.104c-0.228-0.051-0.457-0.076-0.76-0.076c-1.572,0-2.687,1.191-2.991,2.864
			c-0.051,0.304-0.102,0.659-0.102,1.039v6.539h-2.205V554.731z"/>
		<path d="M133.291,557.443c0.05,3.016,1.977,4.258,4.207,4.258c1.597,0,2.56-0.279,3.396-0.634l0.38,1.597
			c-0.786,0.354-2.129,0.785-4.081,0.785c-3.776,0-6.032-2.509-6.032-6.209s2.18-6.615,5.753-6.615c4.004,0,5.069,3.523,5.069,5.779
			c0,0.456-0.05,0.811-0.076,1.039H133.291z M139.829,555.847c0.025-1.42-0.583-3.625-3.092-3.625c-2.256,0-3.244,2.078-3.422,3.625
			H139.829z"/>
		<path d="M144.438,560.89c0.659,0.431,1.825,0.888,2.94,0.888c1.622,0,2.383-0.812,2.383-1.825c0-1.064-0.634-1.647-2.281-2.256
			c-2.205-0.785-3.244-2.002-3.244-3.472c0-1.978,1.597-3.6,4.232-3.6c1.242,0,2.332,0.355,3.016,0.761l-0.558,1.622
			c-0.481-0.305-1.369-0.71-2.509-0.71c-1.318,0-2.053,0.761-2.053,1.673c0,1.014,0.735,1.47,2.332,2.078
			c2.129,0.812,3.219,1.876,3.219,3.7c0,2.154-1.673,3.7-4.587,3.7c-1.343,0-2.585-0.354-3.447-0.861L144.438,560.89z"/>
		<path d="M154.472,560.89c0.659,0.431,1.825,0.888,2.94,0.888c1.622,0,2.383-0.812,2.383-1.825c0-1.064-0.634-1.647-2.281-2.256
			c-2.205-0.785-3.244-2.002-3.244-3.472c0-1.978,1.597-3.6,4.232-3.6c1.242,0,2.332,0.355,3.016,0.761l-0.558,1.622
			c-0.481-0.305-1.369-0.71-2.509-0.71c-1.318,0-2.053,0.761-2.053,1.673c0,1.014,0.735,1.47,2.332,2.078
			c2.129,0.812,3.219,1.876,3.219,3.7c0,2.154-1.673,3.7-4.587,3.7c-1.343,0-2.585-0.354-3.447-0.861L154.472,560.89z"/>
		<path d="M175.911,556.937c0,4.536-3.143,6.513-6.108,6.513c-3.32,0-5.88-2.433-5.88-6.311c0-4.105,2.687-6.514,6.083-6.514
			C173.528,550.625,175.911,553.185,175.911,556.937z M166.178,557.063c0,2.687,1.546,4.715,3.726,4.715
			c2.129,0,3.726-2.003,3.726-4.766c0-2.078-1.04-4.714-3.675-4.714S166.178,554.731,166.178,557.063z"/>
		<path d="M178.72,554.731c0-1.445-0.025-2.687-0.101-3.827h1.951l0.076,2.407h0.102c0.558-1.647,1.901-2.687,3.396-2.687
			c0.253,0,0.431,0.025,0.634,0.076v2.104c-0.228-0.051-0.457-0.076-0.76-0.076c-1.572,0-2.687,1.191-2.991,2.864
			c-0.051,0.304-0.102,0.659-0.102,1.039v6.539h-2.205V554.731z"/>
	</g>
	<g>
		<path d="M226.22,465.852h2.205v15.231h7.299v1.851h-9.504V465.852z"/>
		<path d="M248.849,476.699c0,4.536-3.143,6.513-6.108,6.513c-3.32,0-5.88-2.433-5.88-6.311c0-4.105,2.687-6.514,6.083-6.514
			C246.467,470.388,248.849,472.947,248.849,476.699z M239.117,476.825c0,2.687,1.546,4.715,3.726,4.715
			c2.129,0,3.726-2.003,3.726-4.766c0-2.078-1.04-4.714-3.675-4.714S239.117,474.494,239.117,476.825z"/>
		<path d="M252.368,470.667l1.622,6.234c0.355,1.369,0.684,2.636,0.912,3.903h0.076c0.279-1.242,0.685-2.56,1.09-3.903l2.002-6.234
			h1.875l1.901,6.133c0.456,1.471,0.811,2.763,1.09,4.005h0.076c0.203-1.242,0.533-2.534,0.938-3.979l1.749-6.158h2.205
			l-3.954,12.267h-2.027l-1.876-5.854c-0.431-1.369-0.786-2.585-1.089-4.03h-0.051c-0.304,1.471-0.685,2.737-1.115,4.056
			l-1.977,5.829h-2.027l-3.701-12.267H252.368z"/>
		<path d="M275.198,475.254v1.647h-6.26v-1.647H275.198z"/>
		<path d="M277.806,474.671c0-1.571-0.051-2.838-0.101-4.004h2.002l0.102,2.104h0.051c0.912-1.495,2.357-2.383,4.359-2.383
			c2.965,0,5.196,2.51,5.196,6.235c0,4.41-2.687,6.589-5.576,6.589c-1.622,0-3.042-0.709-3.776-1.926h-0.051v6.666h-2.205V474.671z
			 M280.011,477.94c0,0.33,0.051,0.634,0.102,0.913c0.405,1.546,1.749,2.61,3.345,2.61c2.357,0,3.726-1.927,3.726-4.74
			c0-2.458-1.292-4.562-3.649-4.562c-1.521,0-2.94,1.09-3.371,2.763c-0.076,0.278-0.152,0.608-0.152,0.912V477.94z"/>
		<path d="M292.223,474.494c0-1.445-0.025-2.687-0.101-3.827h1.951l0.076,2.407h0.102c0.558-1.647,1.901-2.687,3.396-2.687
			c0.253,0,0.431,0.025,0.634,0.076v2.104c-0.228-0.051-0.457-0.076-0.76-0.076c-1.572,0-2.687,1.191-2.991,2.864
			c-0.051,0.304-0.102,0.659-0.102,1.039v6.539h-2.205V474.494z"/>
		<path d="M301.497,477.206c0.05,3.016,1.977,4.258,4.207,4.258c1.597,0,2.56-0.279,3.396-0.634l0.38,1.597
			c-0.786,0.354-2.129,0.785-4.081,0.785c-3.776,0-6.032-2.509-6.032-6.209s2.18-6.615,5.753-6.615c4.004,0,5.069,3.523,5.069,5.779
			c0,0.456-0.05,0.811-0.076,1.039H301.497z M308.035,475.609c0.025-1.42-0.583-3.625-3.092-3.625c-2.256,0-3.244,2.078-3.422,3.625
			H308.035z"/>
		<path d="M312.644,480.652c0.659,0.431,1.825,0.888,2.94,0.888c1.622,0,2.383-0.812,2.383-1.825c0-1.064-0.634-1.647-2.281-2.256
			c-2.205-0.785-3.244-2.002-3.244-3.472c0-1.978,1.597-3.6,4.232-3.6c1.242,0,2.332,0.355,3.016,0.761l-0.558,1.622
			c-0.481-0.305-1.369-0.71-2.509-0.71c-1.318,0-2.053,0.761-2.053,1.673c0,1.014,0.735,1.47,2.332,2.078
			c2.129,0.812,3.219,1.876,3.219,3.7c0,2.154-1.673,3.7-4.587,3.7c-1.343,0-2.585-0.354-3.447-0.861L312.644,480.652z"/>
		<path d="M322.678,480.652c0.659,0.431,1.825,0.888,2.94,0.888c1.622,0,2.383-0.812,2.383-1.825c0-1.064-0.634-1.647-2.281-2.256
			c-2.205-0.785-3.244-2.002-3.244-3.472c0-1.978,1.597-3.6,4.232-3.6c1.242,0,2.332,0.355,3.016,0.761l-0.558,1.622
			c-0.481-0.305-1.369-0.71-2.509-0.71c-1.318,0-2.053,0.761-2.053,1.673c0,1.014,0.735,1.47,2.332,2.078
			c2.129,0.812,3.219,1.876,3.219,3.7c0,2.154-1.673,3.7-4.587,3.7c-1.343,0-2.585-0.354-3.447-0.861L322.678,480.652z"/>
		<path d="M343.28,479.588c0,1.268,0.025,2.383,0.102,3.346h-1.977l-0.126-2.002h-0.051c-0.583,0.988-1.875,2.28-4.055,2.28
			c-1.926,0-4.233-1.064-4.233-5.373v-7.172h2.23v6.792c0,2.332,0.71,3.903,2.737,3.903c1.496,0,2.535-1.039,2.94-2.027
			c0.127-0.33,0.203-0.735,0.203-1.141v-7.527h2.23V479.588z"/>
		<path d="M346.977,474.494c0-1.445-0.025-2.687-0.101-3.827h1.951l0.076,2.407h0.102c0.558-1.647,1.901-2.687,3.396-2.687
			c0.253,0,0.431,0.025,0.634,0.076v2.104c-0.228-0.051-0.457-0.076-0.76-0.076c-1.572,0-2.687,1.191-2.991,2.864
			c-0.051,0.304-0.102,0.659-0.102,1.039v6.539h-2.205V474.494z"/>
		<path d="M356.251,477.206c0.05,3.016,1.977,4.258,4.207,4.258c1.597,0,2.56-0.279,3.396-0.634l0.38,1.597
			c-0.786,0.354-2.129,0.785-4.081,0.785c-3.776,0-6.032-2.509-6.032-6.209s2.18-6.615,5.753-6.615c4.004,0,5.069,3.523,5.069,5.779
			c0,0.456-0.05,0.811-0.076,1.039H356.251z M362.79,475.609c0.025-1.42-0.583-3.625-3.092-3.625c-2.256,0-3.244,2.078-3.422,3.625
			H362.79z"/>
		<path d="M225.839,503.165c0.659,0.431,1.825,0.888,2.94,0.888c1.622,0,2.383-0.812,2.383-1.825c0-1.064-0.634-1.647-2.281-2.256
			c-2.205-0.785-3.244-2.002-3.244-3.472c0-1.978,1.597-3.6,4.232-3.6c1.242,0,2.332,0.355,3.016,0.761l-0.558,1.622
			c-0.481-0.305-1.369-0.71-2.509-0.71c-1.318,0-2.053,0.761-2.053,1.673c0,1.014,0.735,1.47,2.332,2.078
			c2.129,0.812,3.219,1.876,3.219,3.7c0,2.154-1.673,3.7-4.587,3.7c-1.343,0-2.585-0.354-3.447-0.861L225.839,503.165z"/>
		<path d="M236.177,487.451h2.23v7.654h0.051c0.354-0.634,0.912-1.191,1.597-1.571c0.659-0.38,1.444-0.634,2.281-0.634
			c1.647,0,4.284,1.014,4.284,5.246v7.3h-2.23V498.4c0-1.977-0.735-3.649-2.839-3.649c-1.444,0-2.585,1.014-2.991,2.23
			c-0.126,0.304-0.152,0.633-0.152,1.064v7.4h-2.23V487.451z"/>
		<path d="M258.856,502.506c0,1.064,0.051,2.104,0.203,2.94h-2.028l-0.177-1.546h-0.076c-0.685,0.963-2.002,1.824-3.751,1.824
			c-2.484,0-3.751-1.748-3.751-3.522c0-2.966,2.636-4.588,7.375-4.563v-0.253c0-1.014-0.279-2.839-2.788-2.839
			c-1.141,0-2.332,0.354-3.193,0.912l-0.507-1.47c1.014-0.659,2.484-1.09,4.03-1.09c3.751,0,4.663,2.56,4.663,5.019V502.506z
			 M256.702,499.187c-2.433-0.051-5.196,0.38-5.196,2.762c0,1.445,0.963,2.13,2.104,2.13c1.597,0,2.61-1.015,2.965-2.054
			c0.076-0.228,0.126-0.481,0.126-0.709V499.187z"/>
		<path d="M262.68,505.446v-10.568h-1.723v-1.698h1.723v-0.583c0-1.724,0.38-3.295,1.419-4.283c0.836-0.812,1.952-1.141,2.991-1.141
			c0.786,0,1.47,0.177,1.901,0.354l-0.304,1.724c-0.33-0.152-0.786-0.279-1.419-0.279c-1.901,0-2.382,1.673-2.382,3.549v0.659h2.965
			v1.698h-2.965v10.568H262.68z"/>
		<path d="M272.815,490.239v2.94h3.193v1.698h-3.193v6.614c0,1.521,0.431,2.383,1.673,2.383c0.608,0,0.963-0.051,1.292-0.152
			l0.102,1.673c-0.431,0.178-1.115,0.329-1.977,0.329c-1.039,0-1.875-0.354-2.408-0.963c-0.634-0.659-0.862-1.748-0.862-3.193v-6.69
			h-1.901v-1.698h1.901v-2.256L272.815,490.239z"/>
	</g>
	<g>
		<path d="M346.679,543.565c-0.811,0.405-2.433,0.836-4.512,0.836c-4.815,0-8.439-3.066-8.439-8.667
			c0-5.349,3.624-8.973,8.921-8.973c2.129,0,3.472,0.456,4.055,0.761l-0.532,1.799c-0.836-0.405-2.028-0.709-3.447-0.709
			c-4.004,0-6.666,2.56-6.666,7.046c0,4.182,2.408,6.868,6.564,6.868c1.343,0,2.712-0.279,3.599-0.71L346.679,543.565z"/>
		<path d="M360.184,537.889c0,4.536-3.143,6.513-6.108,6.513c-3.32,0-5.88-2.433-5.88-6.311c0-4.105,2.687-6.514,6.083-6.514
			C357.801,531.577,360.184,534.137,360.184,537.889z M350.451,538.015c0,2.687,1.546,4.715,3.726,4.715
			c2.129,0,3.726-2.003,3.726-4.766c0-2.078-1.04-4.714-3.675-4.714S350.451,535.684,350.451,538.015z"/>
		<path d="M362.993,535.177c0-1.268-0.025-2.307-0.101-3.32h1.951l0.102,1.977h0.076c0.684-1.166,1.825-2.256,3.852-2.256
			c1.673,0,2.94,1.014,3.473,2.459h0.05c0.38-0.685,0.862-1.217,1.369-1.597c0.735-0.558,1.546-0.862,2.712-0.862
			c1.622,0,4.03,1.064,4.03,5.322v7.224h-2.18v-6.944c0-2.357-0.861-3.776-2.661-3.776c-1.267,0-2.255,0.938-2.636,2.027
			c-0.102,0.305-0.177,0.71-0.177,1.115v7.578h-2.18v-7.35c0-1.952-0.862-3.371-2.56-3.371c-1.394,0-2.408,1.115-2.763,2.23
			c-0.126,0.329-0.177,0.709-0.177,1.09v7.4h-2.18V535.177z"/>
		<path d="M384.124,526.128h2.205v7.705h0.051c0.786-1.368,2.205-2.256,4.182-2.256c3.042,0,5.196,2.535,5.17,6.261
			c0,4.385-2.763,6.563-5.5,6.563c-1.774,0-3.194-0.684-4.106-2.306h-0.076l-0.102,2.027h-1.926c0.05-0.836,0.101-2.078,0.101-3.168
			V526.128z M386.329,539.206c0,0.279,0.051,0.558,0.102,0.812c0.431,1.546,1.723,2.61,3.345,2.61c2.332,0,3.726-1.901,3.726-4.715
			c0-2.458-1.267-4.562-3.649-4.562c-1.521,0-2.94,1.039-3.396,2.737c-0.051,0.253-0.127,0.558-0.127,0.912V539.206z"/>
		<path d="M408.805,540.777c0,1.268,0.025,2.383,0.102,3.346h-1.977l-0.126-2.002h-0.051c-0.583,0.988-1.875,2.28-4.055,2.28
			c-1.926,0-4.233-1.064-4.233-5.373v-7.172h2.23v6.792c0,2.332,0.71,3.903,2.737,3.903c1.496,0,2.535-1.039,2.94-2.027
			c0.127-0.33,0.203-0.735,0.203-1.141v-7.527h2.23V540.777z"/>
		<path d="M412.197,541.842c0.659,0.431,1.825,0.888,2.94,0.888c1.622,0,2.383-0.812,2.383-1.825c0-1.064-0.634-1.647-2.281-2.256
			c-2.205-0.785-3.244-2.002-3.244-3.472c0-1.978,1.597-3.6,4.232-3.6c1.242,0,2.332,0.355,3.016,0.761l-0.558,1.622
			c-0.481-0.305-1.369-0.71-2.509-0.71c-1.318,0-2.053,0.761-2.053,1.673c0,1.014,0.735,1.47,2.332,2.078
			c2.129,0.812,3.219,1.876,3.219,3.7c0,2.154-1.673,3.7-4.587,3.7c-1.343,0-2.585-0.354-3.447-0.861L412.197,541.842z"/>
		<path d="M425.222,528.916v2.94h3.193v1.698h-3.193v6.614c0,1.521,0.431,2.383,1.673,2.383c0.608,0,0.963-0.051,1.292-0.152
			l0.102,1.673c-0.431,0.178-1.115,0.329-1.977,0.329c-1.039,0-1.875-0.354-2.408-0.963c-0.634-0.659-0.862-1.749-0.862-3.193v-6.69
			h-1.901v-1.698h1.901v-2.256L425.222,528.916z"/>
		<path d="M433.406,528.409c0.025,0.761-0.532,1.369-1.419,1.369c-0.786,0-1.343-0.608-1.343-1.369c0-0.785,0.583-1.394,1.394-1.394
			C432.874,527.016,433.406,527.624,433.406,528.409z M430.922,544.123v-12.267h2.23v12.267H430.922z"/>
		<path d="M447.952,537.889c0,4.536-3.143,6.513-6.108,6.513c-3.32,0-5.88-2.433-5.88-6.311c0-4.105,2.687-6.514,6.083-6.514
			C445.569,531.577,447.952,534.137,447.952,537.889z M438.22,538.015c0,2.687,1.546,4.715,3.726,4.715
			c2.129,0,3.726-2.003,3.726-4.766c0-2.078-1.039-4.714-3.675-4.714S438.22,535.684,438.22,538.015z"/>
		<path d="M450.762,535.177c0-1.268-0.025-2.307-0.102-3.32h1.977l0.127,2.027h0.051c0.608-1.166,2.027-2.307,4.055-2.307
			c1.698,0,4.334,1.014,4.334,5.222v7.324h-2.23v-7.071c0-1.977-0.734-3.624-2.838-3.624c-1.471,0-2.611,1.039-2.991,2.281
			c-0.102,0.278-0.152,0.658-0.152,1.039v7.375h-2.229V535.177z"/>
		<path d="M343.41,566.18c-0.583,0.304-1.875,0.734-3.523,0.734c-3.7,0-6.108-2.534-6.108-6.285c0-3.776,2.585-6.514,6.59-6.514
			c1.318,0,2.484,0.33,3.092,0.634l-0.507,1.724c-0.532-0.305-1.368-0.583-2.585-0.583c-2.813,0-4.334,2.078-4.334,4.638
			c0,2.839,1.825,4.588,4.258,4.588c1.268,0,2.104-0.33,2.737-0.608L343.41,566.18z"/>
		<path d="M346.017,548.641h2.23v7.654h0.051c0.354-0.634,0.912-1.191,1.597-1.571c0.659-0.38,1.444-0.634,2.281-0.634
			c1.647,0,4.284,1.014,4.284,5.246v7.3h-2.23v-7.046c0-1.977-0.735-3.649-2.839-3.649c-1.444,0-2.585,1.014-2.991,2.23
			c-0.126,0.304-0.152,0.633-0.152,1.064v7.4h-2.23V548.641z"/>
		<path d="M368.696,563.695c0,1.064,0.051,2.104,0.203,2.94h-2.028l-0.177-1.546h-0.076c-0.684,0.963-2.002,1.824-3.751,1.824
			c-2.484,0-3.751-1.748-3.751-3.522c0-2.966,2.636-4.588,7.375-4.563v-0.253c0-1.014-0.279-2.839-2.788-2.839
			c-1.141,0-2.332,0.354-3.193,0.912l-0.507-1.47c1.014-0.659,2.484-1.09,4.03-1.09c3.751,0,4.663,2.56,4.663,5.019V563.695z
			 M366.542,560.376c-2.433-0.051-5.196,0.38-5.196,2.762c0,1.445,0.963,2.13,2.104,2.13c1.597,0,2.61-1.015,2.965-2.054
			c0.076-0.228,0.126-0.481,0.126-0.709V560.376z"/>
		<path d="M372.291,557.689c0-1.268-0.025-2.307-0.101-3.32h1.951l0.102,1.977h0.076c0.684-1.166,1.825-2.256,3.852-2.256
			c1.673,0,2.94,1.014,3.473,2.459h0.05c0.38-0.685,0.862-1.217,1.369-1.597c0.735-0.558,1.546-0.862,2.712-0.862
			c1.622,0,4.03,1.064,4.03,5.322v7.224h-2.18v-6.944c0-2.357-0.861-3.776-2.661-3.776c-1.267,0-2.255,0.938-2.636,2.027
			c-0.102,0.305-0.177,0.71-0.177,1.115v7.578h-2.18v-7.35c0-1.952-0.862-3.371-2.56-3.371c-1.394,0-2.408,1.115-2.763,2.23
			c-0.126,0.329-0.177,0.709-0.177,1.09v7.4h-2.18V557.689z"/>
		<path d="M393.422,548.641h2.205v7.705h0.051c0.786-1.368,2.205-2.256,4.182-2.256c3.042,0,5.196,2.535,5.17,6.261
			c0,4.385-2.763,6.563-5.5,6.563c-1.774,0-3.194-0.684-4.106-2.306h-0.076l-0.102,2.027h-1.926c0.05-0.836,0.101-2.078,0.101-3.168
			V548.641z M395.627,561.719c0,0.279,0.051,0.558,0.102,0.812c0.431,1.546,1.723,2.61,3.345,2.61c2.332,0,3.726-1.901,3.726-4.715
			c0-2.458-1.267-4.562-3.649-4.562c-1.521,0-2.94,1.039-3.396,2.737c-0.051,0.253-0.127,0.558-0.127,0.912V561.719z"/>
		<path d="M409.081,560.908c0.05,3.016,1.977,4.258,4.207,4.258c1.597,0,2.56-0.279,3.396-0.634l0.38,1.597
			c-0.786,0.354-2.129,0.785-4.081,0.785c-3.776,0-6.032-2.509-6.032-6.209s2.18-6.615,5.753-6.615c4.004,0,5.069,3.523,5.069,5.779
			c0,0.456-0.05,0.811-0.076,1.039H409.081z M415.62,559.312c0.025-1.42-0.583-3.625-3.092-3.625c-2.256,0-3.244,2.078-3.422,3.625
			H415.62z"/>
		<path d="M420.533,558.196c0-1.445-0.025-2.687-0.101-3.827h1.951l0.076,2.407h0.102c0.558-1.647,1.901-2.687,3.396-2.687
			c0.253,0,0.431,0.025,0.634,0.076v2.104c-0.228-0.051-0.457-0.076-0.76-0.076c-1.572,0-2.687,1.191-2.991,2.864
			c-0.051,0.304-0.102,0.659-0.102,1.039v6.539h-2.205V558.196z"/>
	</g>
	<g>
		<path d="M482.516,528.196h2.205v15.231h7.3v1.851h-9.505V528.196z"/>
		<path d="M505.146,539.044c0,4.536-3.143,6.513-6.108,6.513c-3.32,0-5.88-2.433-5.88-6.311c0-4.105,2.687-6.514,6.083-6.514
			C502.763,532.732,505.146,535.292,505.146,539.044z M495.413,539.17c0,2.687,1.546,4.715,3.726,4.715
			c2.129,0,3.726-2.003,3.726-4.766c0-2.078-1.039-4.714-3.675-4.714S495.413,536.839,495.413,539.17z"/>
		<path d="M508.665,533.012l1.622,6.234c0.354,1.369,0.685,2.636,0.912,3.903h0.076c0.279-1.242,0.685-2.56,1.09-3.903l2.002-6.234
			h1.876l1.9,6.133c0.457,1.471,0.812,2.763,1.09,4.005h0.076c0.203-1.242,0.532-2.534,0.938-3.979l1.748-6.158h2.205l-3.953,12.267
			h-2.028l-1.875-5.854c-0.431-1.369-0.786-2.585-1.09-4.03h-0.051c-0.305,1.471-0.685,2.737-1.115,4.056l-1.977,5.829h-2.028
			l-3.7-12.267H508.665z"/>
		<path d="M531.495,537.599v1.647h-6.26v-1.647H531.495z"/>
		<path d="M534.104,537.016c0-1.571-0.051-2.838-0.102-4.004h2.002l0.102,2.104h0.051c0.912-1.495,2.356-2.383,4.359-2.383
			c2.965,0,5.195,2.51,5.195,6.235c0,4.41-2.687,6.589-5.576,6.589c-1.622,0-3.041-0.709-3.776-1.926h-0.05v6.666h-2.205V537.016z
			 M536.309,540.285c0,0.33,0.05,0.634,0.101,0.913c0.406,1.546,1.749,2.61,3.346,2.61c2.357,0,3.726-1.927,3.726-4.74
			c0-2.458-1.292-4.562-3.649-4.562c-1.521,0-2.94,1.09-3.371,2.763c-0.076,0.278-0.151,0.608-0.151,0.912V540.285z"/>
		<path d="M548.521,536.839c0-1.445-0.025-2.687-0.102-3.827h1.951l0.076,2.407h0.102c0.558-1.647,1.9-2.687,3.396-2.687
			c0.253,0,0.431,0.025,0.633,0.076v2.104c-0.228-0.051-0.456-0.076-0.76-0.076c-1.571,0-2.687,1.191-2.991,2.864
			c-0.051,0.304-0.102,0.659-0.102,1.039v6.539h-2.204V536.839z"/>
		<path d="M557.794,539.551c0.051,3.016,1.978,4.258,4.208,4.258c1.597,0,2.56-0.279,3.396-0.634l0.381,1.597
			c-0.786,0.354-2.13,0.785-4.081,0.785c-3.776,0-6.032-2.509-6.032-6.209s2.18-6.615,5.754-6.615c4.004,0,5.068,3.523,5.068,5.779
			c0,0.456-0.051,0.811-0.076,1.039H557.794z M564.333,537.954c0.025-1.42-0.583-3.625-3.092-3.625
			c-2.256,0-3.244,2.078-3.422,3.625H564.333z"/>
		<path d="M568.941,542.997c0.659,0.431,1.825,0.888,2.94,0.888c1.622,0,2.382-0.812,2.382-1.825c0-1.064-0.634-1.647-2.28-2.256
			c-2.205-0.785-3.244-2.002-3.244-3.472c0-1.978,1.597-3.6,4.232-3.6c1.241,0,2.331,0.355,3.016,0.761l-0.558,1.622
			c-0.481-0.305-1.368-0.71-2.509-0.71c-1.318,0-2.053,0.761-2.053,1.673c0,1.014,0.734,1.47,2.331,2.078
			c2.129,0.812,3.219,1.876,3.219,3.7c0,2.154-1.673,3.7-4.587,3.7c-1.344,0-2.585-0.354-3.447-0.861L568.941,542.997z"/>
		<path d="M578.975,542.997c0.659,0.431,1.825,0.888,2.94,0.888c1.622,0,2.382-0.812,2.382-1.825c0-1.064-0.634-1.647-2.28-2.256
			c-2.205-0.785-3.244-2.002-3.244-3.472c0-1.978,1.597-3.6,4.232-3.6c1.241,0,2.331,0.355,3.016,0.761l-0.558,1.622
			c-0.481-0.305-1.368-0.71-2.509-0.71c-1.318,0-2.053,0.761-2.053,1.673c0,1.014,0.734,1.47,2.331,2.078
			c2.129,0.812,3.219,1.876,3.219,3.7c0,2.154-1.673,3.7-4.587,3.7c-1.344,0-2.585-0.354-3.447-0.861L578.975,542.997z"/>
		<path d="M599.577,541.933c0,1.268,0.025,2.383,0.101,3.346h-1.977l-0.127-2.002h-0.051c-0.583,0.988-1.875,2.28-4.055,2.28
			c-1.927,0-4.232-1.064-4.232-5.373v-7.172h2.23v6.792c0,2.332,0.709,3.903,2.737,3.903c1.495,0,2.534-1.039,2.939-2.027
			c0.127-0.33,0.203-0.735,0.203-1.141v-7.527h2.23V541.933z"/>
		<path d="M603.273,536.839c0-1.445-0.025-2.687-0.102-3.827h1.951l0.076,2.407h0.102c0.558-1.647,1.9-2.687,3.396-2.687
			c0.253,0,0.431,0.025,0.633,0.076v2.104c-0.228-0.051-0.456-0.076-0.76-0.076c-1.571,0-2.687,1.191-2.991,2.864
			c-0.051,0.304-0.101,0.659-0.101,1.039v6.539h-2.205V536.839z"/>
		<path d="M612.546,539.551c0.051,3.016,1.978,4.258,4.208,4.258c1.597,0,2.56-0.279,3.396-0.634l0.381,1.597
			c-0.786,0.354-2.13,0.785-4.081,0.785c-3.776,0-6.032-2.509-6.032-6.209s2.18-6.615,5.754-6.615c4.004,0,5.068,3.523,5.068,5.779
			c0,0.456-0.051,0.811-0.076,1.039H612.546z M619.085,537.954c0.025-1.42-0.583-3.625-3.092-3.625
			c-2.256,0-3.244,2.078-3.422,3.625H619.085z"/>
		<path d="M485.127,552.584v2.94h3.193v1.698h-3.193v6.614c0,1.521,0.431,2.383,1.673,2.383c0.607,0,0.963-0.051,1.292-0.152
			l0.102,1.673c-0.431,0.178-1.115,0.329-1.977,0.329c-1.039,0-1.876-0.354-2.408-0.963c-0.634-0.659-0.861-1.749-0.861-3.193v-6.69
			h-1.901v-1.698h1.901v-2.256L485.127,552.584z"/>
		<path d="M501.092,564.445c0,1.268,0.025,2.383,0.101,3.346h-1.977l-0.127-2.002h-0.051c-0.583,0.988-1.875,2.28-4.055,2.28
			c-1.927,0-4.232-1.064-4.232-5.373v-7.172h2.23v6.792c0,2.332,0.709,3.903,2.737,3.903c1.495,0,2.534-1.039,2.939-2.027
			c0.127-0.33,0.203-0.735,0.203-1.141v-7.527h2.23V564.445z"/>
		<path d="M504.788,559.352c0-1.445-0.025-2.687-0.102-3.827h1.951l0.076,2.407h0.102c0.558-1.647,1.9-2.687,3.396-2.687
			c0.253,0,0.431,0.025,0.633,0.076v2.104c-0.228-0.051-0.456-0.076-0.76-0.076c-1.571,0-2.687,1.191-2.991,2.864
			c-0.051,0.304-0.102,0.659-0.102,1.039v6.539h-2.204V559.352z"/>
		<path d="M513.175,549.796h2.204v7.705h0.051c0.786-1.368,2.205-2.256,4.183-2.256c3.041,0,5.195,2.535,5.17,6.261
			c0,4.385-2.763,6.563-5.5,6.563c-1.773,0-3.193-0.684-4.105-2.306h-0.076l-0.102,2.027h-1.926
			c0.051-0.836,0.102-2.078,0.102-3.168V549.796z M515.379,562.874c0,0.279,0.051,0.558,0.102,0.812
			c0.432,1.546,1.724,2.61,3.346,2.61c2.332,0,3.726-1.901,3.726-4.715c0-2.458-1.267-4.562-3.649-4.562
			c-1.521,0-2.94,1.039-3.396,2.737c-0.051,0.253-0.127,0.558-0.127,0.912V562.874z"/>
		<path d="M530.075,552.077c0.025,0.761-0.532,1.369-1.419,1.369c-0.786,0-1.344-0.608-1.344-1.369c0-0.785,0.583-1.394,1.395-1.394
			C529.543,550.684,530.075,551.292,530.075,552.077z M527.592,567.791v-12.267h2.229v12.267H527.592z"/>
		<path d="M533.521,558.845c0-1.268-0.025-2.307-0.102-3.32h1.977l0.127,2.027h0.051c0.608-1.166,2.027-2.307,4.055-2.307
			c1.698,0,4.334,1.014,4.334,5.222v7.324h-2.23v-7.071c0-1.977-0.734-3.624-2.838-3.624c-1.471,0-2.611,1.039-2.991,2.281
			c-0.102,0.278-0.152,0.658-0.152,1.039v7.375h-2.229V558.845z"/>
		<path d="M548.824,562.063c0.051,3.016,1.978,4.258,4.207,4.258c1.598,0,2.561-0.279,3.396-0.634l0.381,1.597
			c-0.786,0.354-2.13,0.785-4.081,0.785c-3.776,0-6.032-2.509-6.032-6.209s2.18-6.615,5.754-6.615c4.004,0,5.068,3.523,5.068,5.779
			c0,0.456-0.051,0.811-0.076,1.039H548.824z M555.363,560.467c0.025-1.42-0.583-3.625-3.092-3.625
			c-2.256,0-3.244,2.078-3.422,3.625H555.363z"/>
	</g>
	<g>
		<path d="M646.455,540.662V523.58h2.408l5.475,8.643c1.268,2.002,2.256,3.802,3.066,5.55l0.051-0.025
			c-0.203-2.28-0.253-4.359-0.253-7.021v-7.146h2.078v17.082h-2.23l-5.424-8.668c-1.191-1.9-2.332-3.853-3.193-5.702l-0.076,0.025
			c0.127,2.154,0.178,4.207,0.178,7.046v7.299H646.455z"/>
		<path d="M674.152,534.428c0,4.536-3.143,6.513-6.108,6.513c-3.32,0-5.88-2.433-5.88-6.311c0-4.105,2.687-6.514,6.083-6.514
			C671.77,528.116,674.152,530.676,674.152,534.428z M664.42,534.554c0,2.687,1.546,4.715,3.726,4.715
			c2.129,0,3.726-2.003,3.726-4.766c0-2.078-1.039-4.714-3.675-4.714S664.42,532.223,664.42,534.554z"/>
		<path d="M675.391,539.369l5.551-7.223c0.532-0.659,1.039-1.242,1.597-1.901v-0.051h-6.641v-1.799h9.353l-0.025,1.394l-5.475,7.122
			c-0.507,0.685-1.014,1.293-1.571,1.926v0.051h7.173v1.774h-9.961V539.369z"/>
		<path d="M686.234,539.369l5.551-7.223c0.532-0.659,1.039-1.242,1.597-1.901v-0.051h-6.641v-1.799h9.353l-0.025,1.394l-5.475,7.122
			c-0.507,0.685-1.014,1.293-1.571,1.926v0.051h7.173v1.774h-9.961V539.369z"/>
		<path d="M698.473,522.667h2.229v17.995h-2.229V522.667z"/>
		<path d="M705.693,534.935c0.051,3.016,1.978,4.258,4.207,4.258c1.598,0,2.561-0.279,3.396-0.634l0.381,1.597
			c-0.786,0.354-2.13,0.785-4.081,0.785c-3.776,0-6.032-2.509-6.032-6.209s2.18-6.615,5.754-6.615c4.004,0,5.068,3.523,5.068,5.779
			c0,0.456-0.051,0.811-0.076,1.039H705.693z M712.232,533.338c0.025-1.42-0.583-3.625-3.092-3.625
			c-2.256,0-3.244,2.078-3.422,3.625H712.232z"/>
	</g>
</g>
</svg>
